<?xml version="1.0" standalone="no"?>
<!DOCTYPE svg PUBLIC "-//W3C//DTD SVG 1.1//EN" "http://www.w3.org/Graphics/SVG/1.1/DTD/svg11.dtd" >
<svg xmlns="http://www.w3.org/2000/svg" xmlns:xlink="http://www.w3.org/1999/xlink" version="1.1">
<metadata>
Created by FontForge 20170731 at Fri May  5 14:18:34 2017
 By Aleksey,,,
Copyright 2015 The Atma Project Authors (www.black-foundry.com)
</metadata>
<defs>
<font id="Atma-Regular" horiz-adv-x="233" >
  <font-face 
    font-family="Atma"
    font-weight="400"
    font-stretch="normal"
    units-per-em="1000"
    panose-1="0 0 0 0 0 0 0 0 0 0"
    ascent="800"
    descent="-200"
    x-height="518"
    cap-height="680"
    bbox="-614 -441 1352 990"
    underline-thickness="0"
    underline-position="0"
    unicode-range="U+000D-FB02"
  />
<missing-glyph horiz-adv-x="0" 
 />
    <glyph glyph-name=".notdef" horiz-adv-x="0" 
 />
    <glyph glyph-name=".null" horiz-adv-x="0" 
 />
    <glyph glyph-name=".null" horiz-adv-x="0" 
 />
    <glyph glyph-name="nonmarkingreturn" horiz-adv-x="333" 
 />
    <glyph glyph-name="CR" unicode="&#xd;" horiz-adv-x="0" 
 />
    <glyph glyph-name="space" unicode=" " horiz-adv-x="186" 
 />
    <glyph glyph-name="exclam" unicode="!" horiz-adv-x="217" 
d="M75 209q-8 129 -11.5 234.5t-3.5 221.5v38t1 21q16 7 28 10t25 3q6 0 12 -0.5t22 -3.5q-12 -113 -15.5 -245t0.5 -281q-7 -1 -12 -1.5t-11 -0.5q-11 0 -19.5 1t-15.5 3zM110 -5q-9 0 -18.5 1t-18.5 4q-1 14 -1 30t1 47q24 1 40 0.5t32 -1.5q1 -9 1.5 -19t1.5 -28l1.5 -18
t0.5 -12q-10 -2 -19.5 -3t-20.5 -1z" />
    <glyph glyph-name="quotedbl" unicode="&#x22;" horiz-adv-x="252" 
d="M68 739q7 0 13 -0.5t16 -2.5q0 -54 -3.5 -107.5t-12.5 -128.5q-7 -2 -19 -3t-28 0q0 82 -1.5 133.5t-4.5 104.5q6 2 17 3t23 1zM181 739q7 0 13 -0.5t16 -2.5q0 -54 -3.5 -107.5t-12.5 -128.5q-7 -2 -19 -3t-28 0q0 82 -1.5 133.5t-4.5 104.5q6 2 17 3t23 1z" />
    <glyph glyph-name="numbersign" unicode="#" horiz-adv-x="603" 
d="M202 229q38 -4 80 -6.5t87 -3.5q11 36 21 72t18 72q-47 0 -87.5 2t-79.5 6q-8 -34 -17.5 -69.5t-21.5 -72.5zM409 164q-18 -51 -37.5 -101.5t-42.5 -101.5q-21 4 -32 8.5t-21 10.5q21 44 39.5 90.5t35.5 94.5q-40 1 -81.5 4t-84.5 8q-17 -47 -37.5 -99.5t-46.5 -112.5
q-19 4 -30.5 8.5t-22.5 11.5q22 48 42.5 98t38.5 102q-32 5 -61 10.5t-57 11.5q-1 14 0.5 26.5t6.5 26.5q30 -7 62 -13t65 -11q11 35 21 70.5t18 70.5q-41 6 -81 12.5t-80 15.5q-1 15 1 27.5t6 25.5q36 -9 76.5 -16t88.5 -13q10 52 17 100t11 92q15 -3 29 -8.5t27 -13.5
q-4 -42 -10.5 -85t-15.5 -91q41 -3 83 -4.5t83 -1.5q10 47 17 96.5t12 102.5q17 -3 30 -8t26 -13q-4 -42 -10.5 -85t-15.5 -91q27 1 56 3t61 5q1 -13 -1 -27t-7 -28q-35 -3 -64.5 -5t-56.5 -3q-7 -34 -16.5 -69.5t-22.5 -75.5q35 1 73 3t83 7q0 -17 -2 -30.5t-6 -25.5
q-42 -4 -83.5 -6t-82.5 -3z" />
    <glyph glyph-name="dollar" unicode="$" horiz-adv-x="355" 
d="M205 43q2 -43 2 -64.5t-2 -38.5q-13 -5 -27 -5.5t-32 2.5q5 36 6.5 59.5t0.5 47.5q-60 10 -94 60.5t-34 128.5q18 6 36 9t34 2q-4 -70 20 -109.5t71 -39.5q37 0 57 22t20 62q0 34 -19 65.5t-92 94.5q-73 61 -97 103.5t-24 92.5q0 61 32.5 100t90.5 46q-4 27 -5.5 48.5
t-0.5 38.5q12 5 26.5 6.5t33.5 -0.5q-2 -26 -2 -49t1 -44q52 -6 82 -42.5t41 -107.5q-13 -7 -29 -11t-36 -5q-8 61 -28 88t-56 27q-34 0 -53.5 -22t-19.5 -61q0 -40 22.5 -76.5t85.5 -87.5q74 -61 99 -102.5t25 -90.5q0 -60 -37 -100t-98 -47z" />
    <glyph glyph-name="percent" unicode="%" horiz-adv-x="793" 
d="M510 781q17 -5 32 -13t28 -19q-78 -194 -161 -369.5t-209 -409.5q-7 2 -13.5 4.5t-13.5 7.5q-5 3 -13 8.5t-11 7.5q110 211 191.5 387.5t169.5 395.5zM37 525q0 107 47 168.5t128 61.5q61 0 96 -47t35 -129q0 -121 -43.5 -190t-121.5 -69q-64 0 -102.5 57t-38.5 148z
M273 550q0 82 -18.5 120.5t-57.5 38.5q-41 0 -66 -48t-25 -127q0 -74 23 -121t61 -47t60.5 50.5t22.5 133.5zM449 193q0 107 47 168.5t128 61.5q62 0 97 -47t35 -129q0 -121 -43.5 -189.5t-121.5 -68.5q-65 0 -103.5 56.5t-38.5 147.5zM686 218q0 82 -18.5 120.5t-57.5 38.5
q-41 0 -66.5 -48t-25.5 -127q0 -74 23.5 -121t61.5 -47t60.5 50.5t22.5 133.5z" />
    <glyph glyph-name="ampersand" unicode="&#x26;" horiz-adv-x="759" 
d="M370 671q-35 0 -56 -38.5t-21 -104.5q0 -25 2.5 -49t6.5 -47q64 16 97.5 53.5t33.5 93.5q0 43 -16.5 67.5t-46.5 24.5zM116 196q0 -89 57.5 -142.5t151.5 -53.5q41 0 79 15t69 43q-87 63 -146 142t-85 169q-60 -20 -93 -65.5t-33 -107.5zM709 10q-7 -16 -20 -30t-30 -23
q-34 13 -67 29.5t-64 35.5q-42 -38 -96 -58.5t-113 -20.5q-126 0 -202.5 67t-76.5 174q0 83 49.5 142t141.5 84q-6 28 -8.5 56t-2.5 55q0 92 42.5 146t116.5 54q57 0 92 -37.5t35 -97.5q0 -72 -50 -121.5t-145 -71.5q23 -82 75.5 -152t132.5 -128q22 35 34 78t12 88
q0 30 -2.5 53.5t-8.5 50.5q17 4 37 3.5t41 -5.5q3 -26 4 -49t0 -48q-1 -60 -16.5 -112.5t-44.5 -95.5q29 -18 63 -34.5t71 -31.5z" />
    <glyph glyph-name="quotesingle" unicode="'" horiz-adv-x="139" 
d="M68 739q7 0 13 -0.5t16 -2.5q0 -54 -3.5 -107.5t-12.5 -128.5q-7 -2 -19 -3t-28 0q0 82 -1.5 133.5t-4.5 104.5q6 2 17 3t23 1z" />
    <glyph glyph-name="parenleft" unicode="(" horiz-adv-x="338" 
d="M333 756q-118 -74 -179 -187t-61 -256q0 -138 58.5 -246.5t175.5 -186.5q-15 -17 -27 -26.5t-26 -16.5q-123 89 -186.5 207.5t-63.5 262.5q0 156 65 280.5t191 212.5q13 -6 25.5 -16.5t27.5 -27.5z" />
    <glyph glyph-name="parenright" unicode=")" horiz-adv-x="352" 
d="M1 -119q118 74 181.5 189.5t63.5 252.5t-57 249t-164 185q15 18 26.5 27.5t25.5 15.5q114 -82 175.5 -204.5t61.5 -266.5q0 -152 -67 -278.5t-193 -213.5q-12 6 -25 16.5t-28 27.5z" />
    <glyph glyph-name="asterisk" unicode="*" horiz-adv-x="440" 
d="M241 470q1 -40 3.5 -76t6.5 -79q-8 -2 -20 -4t-21 -2q-4 0 -8 0.5t-15 2.5q-1 27 0.5 60.5t6.5 96.5q-36 -22 -66 -42t-63 -43q-17 22 -20 26.5t-5 8.5t-4.5 10t-4.5 10q29 18 60.5 34.5t79.5 39.5q-34 19 -65.5 34.5t-71.5 33.5q3 11 7.5 21.5t8.5 17.5q3 5 7 10.5
t6 7.5q29 -15 60 -34.5t74 -49.5q-2 55 -4 88t-5 65q8 2 19.5 3.5t21.5 1.5q6 0 13.5 -1t9.5 -1q1 -34 -0.5 -69.5t-6.5 -89.5q34 20 64 40t65 46q10 -11 16 -19.5t9 -14.5q3 -5 5 -11t4 -10q-27 -16 -58.5 -32.5t-82.5 -39.5q37 -20 69 -36t69 -33q-3 -11 -7.5 -21.5
t-8.5 -17.5q-3 -6 -7.5 -12t-5.5 -7q-29 16 -59.5 35.5t-75.5 51.5z" />
    <glyph glyph-name="plus" unicode="+" horiz-adv-x="365" 
d="M211 309q-1 -32 -3 -63.5t-6 -62.5q-13 -2 -26.5 -2t-26.5 2q3 28 5 57.5t3 67.5q-35 1 -67 3.5t-62 6.5q0 14 1.5 27t4.5 26q32 -4 62 -6t61 -3q-1 32 -2.5 62t-4.5 61q12 3 25 3.5t27 -1.5q4 -30 6 -61t3 -63q23 0 52.5 1.5t74.5 5.5q0 -14 -1.5 -27t-4.5 -25
q-29 -4 -59.5 -6t-61.5 -3z" />
    <glyph glyph-name="comma" unicode="," horiz-adv-x="139" 
d="M43 81q20 1 38.5 0t35.5 -4q-2 -74 -17.5 -144.5t-46.5 -154.5q-12 1 -24.5 4t-27.5 7q20 82 30 150t12 142z" />
    <glyph glyph-name="hyphen" unicode="-" horiz-adv-x="282" 
d="M248 251q-67 -8 -126 -6t-92 12q-1 21 0.5 36.5t5.5 31.5q24 -5 59 -8t68 -3q32 0 53.5 1t37.5 4q0 -19 -1.5 -35.5t-4.5 -32.5z" />
    <glyph glyph-name="period" unicode="." horiz-adv-x="167" 
d="M38 76q26 6 49 6.5t46 -3.5q-1 -32 -2.5 -48.5t-4.5 -32.5q-25 -3 -44.5 -3t-40.5 3q0 6 -0.5 12.5t-0.5 18.5q-1 18 -1.5 28t-0.5 19z" />
    <glyph glyph-name="slash" unicode="/" horiz-adv-x="464" 
d="M402 746q15 -5 29 -13t27 -19q-87 -209 -200 -447t-233 -467q-15 4 -29.5 11.5t-28.5 17.5q84 147 196 383.5t239 533.5z" />
    <glyph glyph-name="zero" unicode="0" horiz-adv-x="512" 
d="M38 310q0 170 66 266.5t181 96.5q88 0 138 -76.5t50 -207.5q0 -196 -59 -302.5t-169 -106.5q-93 0 -150 92t-57 238zM395 347q0 138 -31 203.5t-96 65.5q-68 0 -110 -80.5t-42 -214.5q0 -127 38.5 -206t102.5 -79q63 0 100.5 84.5t37.5 226.5z" />
    <glyph glyph-name="one" unicode="1" horiz-adv-x="339" 
d="M224 -36q-6 -3 -14 -4.5t-19 -2.5q-8 -1 -15.5 -1t-15.5 1q3 68 7.5 116.5t11.5 107.5q9 92 26 192t38 190q-38 -31 -82 -62.5t-97 -65.5q-15 13 -24 25.5t-18 30.5q82 45 152.5 96t128.5 107q17 -9 26.5 -16t18.5 -15q-38 -98 -72.5 -295t-51.5 -404z" />
    <glyph glyph-name="two" unicode="2" horiz-adv-x="395" 
d="M377 35q-2 -20 -6 -36.5t-11 -31.5q-113 8 -201 21t-157 32q1 15 3.5 28t6.5 25q151 113 218 207.5t67 196.5q0 50 -22.5 80t-61.5 30q-40 0 -69 -40t-42 -115q-18 0 -36 4t-36 12q20 93 68 143t117 50q72 0 115.5 -47t43.5 -124q0 -98 -72 -201.5t-216 -211.5
q82 -12 147.5 -16.5t143.5 -5.5z" />
    <glyph glyph-name="three" unicode="3" horiz-adv-x="406" 
d="M402 157q0 -95 -51.5 -154.5t-131.5 -59.5q-81 0 -131.5 60.5t-55.5 167.5q15 6 33 9t40 5q0 -88 31 -137.5t84 -49.5q49 0 76.5 36.5t27.5 102.5q0 96 -54.5 145.5t-154.5 42.5q-3 14 -4.5 25t-1.5 23q66 41 114 87t85 102q-95 -8 -162.5 -18.5t-129.5 -26.5
q-4 16 -5 33.5t1 34.5q95 20 187.5 30.5t179.5 11.5q3 -14 4.5 -29.5t0.5 -30.5q-33 -58 -73.5 -102.5t-103.5 -92.5q96 -18 145.5 -73t49.5 -142z" />
    <glyph glyph-name="four" unicode="4" horiz-adv-x="504" 
d="M337 138q-3 -39 -4.5 -83.5t-2.5 -94.5q-13 -1 -21 -1.5t-15 0.5t-13 2t-12 4q-1 43 -1.5 63.5t-0.5 37.5v49t1 30q-64 8 -121 16.5t-112 18.5q-6 10 -10.5 20.5t-7.5 24.5q91 133 146.5 248t106.5 280q17 -2 36.5 -8t40.5 -15q-51 -141 -111 -262.5t-132 -229.5
q45 -10 86 -17.5t81 -12.5q4 56 10 104.5t15 90.5q11 5 21 7t22 2q10 1 21 0t18 -3q-11 -38 -20 -89.5t-16 -119.5q37 -3 76.5 -5.5t86.5 -4.5q-1 -15 -5 -31.5t-10 -30.5q-43 2 -81 4.5t-72 5.5z" />
    <glyph glyph-name="five" unicode="5" horiz-adv-x="408" 
d="M375 188q0 -100 -50 -162.5t-130 -62.5q-84 0 -134 61.5t-56 173.5q7 0 26 -1.5t49 -5.5q0 -85 29 -129.5t84 -44.5q51 0 77.5 40.5t26.5 117.5q0 79 -35.5 124.5t-99.5 45.5q-19 0 -37 -4.5t-34 -12.5q-11 8 -19 16.5t-13 16.5q-2 20 -2.5 37t-0.5 35q0 57 5.5 118
t15.5 113q94 -21 165.5 -29.5t166.5 -10.5q-1 -17 -6 -35.5t-12 -36.5q-83 8 -139 16t-116 21q-9 -57 -12.5 -108t-1.5 -93q15 7 34.5 10.5t38.5 3.5q83 0 131.5 -57.5t48.5 -156.5z" />
    <glyph glyph-name="six" unicode="6" horiz-adv-x="472" 
d="M275 381q76 0 124 -53.5t48 -134.5q0 -107 -55.5 -175t-148.5 -68q-96 0 -150.5 92t-54.5 251q0 186 64.5 292t178.5 106q69 0 109.5 -45.5t53.5 -137.5q-17 -9 -33.5 -14.5t-37.5 -8.5q-8 76 -32 112t-67 36q-70 0 -114 -90.5t-44 -240.5v-11.5v-11.5q28 50 68.5 76
t90.5 26zM124 191q13 -88 46.5 -136.5t81.5 -48.5q50 0 83.5 46.5t33.5 111.5q0 74 -31 117t-84 43q-41 0 -75.5 -35.5t-54.5 -97.5z" />
    <glyph glyph-name="seven" unicode="7" horiz-adv-x="378" 
d="M385 595q-113 -163 -177.5 -293t-126.5 -313q-21 -1 -39 1.5t-37 9.5q64 172 136.5 314t165.5 277q-104 -3 -172.5 1t-145.5 15q-1 17 2 34.5t9 34.5q118 -20 197.5 -26t174.5 -3q6 -15 9 -27t4 -25z" />
    <glyph glyph-name="eight" unicode="8" horiz-adv-x="455" 
d="M422 226q0 -101 -59.5 -166.5t-153.5 -65.5q-76 0 -125 50t-49 126q0 58 26.5 108.5t73.5 79.5q-42 21 -67 64.5t-25 95.5q0 94 54 149.5t144 55.5q73 0 120.5 -45.5t47.5 -116.5q0 -64 -22.5 -111.5t-64.5 -74.5q46 -21 73 -61t27 -88zM226 393q47 0 76 39.5t29 101.5
q0 65 -27 100.5t-75 35.5q-47 0 -77.5 -42t-30.5 -104q0 -58 28.5 -94.5t76.5 -36.5zM220 46q54 0 89 48t35 121q0 56 -30 90.5t-80 34.5t-86 -44.5t-36 -112.5q0 -63 29.5 -100t78.5 -37z" />
    <glyph glyph-name="nine" unicode="9" horiz-adv-x="487" 
d="M123 479q0 -75 31 -117t85 -42q46 0 81.5 39t50.5 107q-11 91 -44.5 139.5t-83.5 48.5q-52 0 -86 -49.5t-34 -125.5zM454 386q0 -177 -75.5 -296.5t-189.5 -119.5q-47 0 -85 20t-71 61q9 17 19.5 31.5t24.5 28.5q21 -41 52 -62t70 -21q72 0 122.5 92t54.5 233
q-29 -44 -68.5 -67t-86.5 -23q-76 0 -126 57t-50 143q0 108 56.5 178t143.5 70q97 0 153 -86.5t56 -238.5z" />
    <glyph glyph-name="colon" unicode=":" horiz-adv-x="168" 
d="M91 547q10 0 20.5 -1.5t20.5 -3.5q0 -36 -1 -52.5t-3 -29.5q-22 -2 -42.5 -2t-45.5 3q0 8 -0.5 17t-1.5 25q-1 15 -1.5 23t-0.5 15q12 3 25.5 4.5t29.5 1.5zM39 79q27 5 50 5.5t46 -1.5q-1 -31 -2 -49t-3 -35q-22 -2 -45 -2t-44 3q0 3 -1 30.5t-1 48.5z" />
    <glyph glyph-name="semicolon" unicode=";" horiz-adv-x="168" 
d="M135 542q0 -36 -1 -52.5t-3 -29.5q-22 -2 -42.5 -2t-45.5 3q0 8 -0.5 17t-1.5 25q-1 15 -1.5 23t-0.5 15q12 3 25.5 4.5t29.5 1.5q10 0 20.5 -1.5t20.5 -3.5zM47 81q20 1 39.5 0t36.5 -4q1 -72 -15.5 -143t-52.5 -155q-14 2 -25.5 4.5t-24.5 6.5q23 94 32.5 159t9.5 132z
" />
    <glyph glyph-name="less" unicode="&#x3c;" horiz-adv-x="364" 
d="M332 215q-1 -12 -5 -23.5t-11 -24.5q-85 32 -157.5 71t-128.5 82l3 39q60 44 130.5 81.5t154.5 71.5q7 -18 11.5 -30t5.5 -18q-73 -31 -130 -61.5t-108 -64.5q44 -30 100.5 -60t134.5 -63z" />
    <glyph glyph-name="equal" unicode="=" horiz-adv-x="365" 
d="M32 358q0 15 1.5 28t4.5 26q74 -9 144.5 -9.5t159.5 7.5q0 -13 -1.5 -26t-4.5 -26q-73 -9 -151.5 -9t-152.5 9zM22 231q0 13 1 25t4 29q74 -9 145 -9.5t160 7.5q0 -13 -1.5 -26t-4.5 -26q-73 -9 -151.5 -9t-152.5 9z" />
    <glyph glyph-name="greater" unicode="&#x3e;" horiz-adv-x="364" 
d="M46 167q-7 18 -11.5 30t-5.5 19q73 31 130 61.5t108 64.5q-42 29 -98.5 59t-136.5 64q1 12 5.5 24t11.5 24q85 -32 157.5 -71t127.5 -82l-3 -39q-59 -43 -129 -81t-156 -73z" />
    <glyph glyph-name="question" unicode="?" horiz-adv-x="383" 
d="M199 208q-8 -2 -19 -2.5t-34 -0.5q-7 77 -10.5 123.5t-4.5 62.5q71 16 107.5 62t36.5 118q0 63 -24.5 101t-65.5 38q-48 0 -74.5 -46.5t-26.5 -129.5q-18 0 -36 3t-33 8q7 109 50.5 163.5t125.5 54.5q72 0 117 -52.5t45 -136.5q0 -75 -40 -130t-112 -80q0 -14 -0.5 -30
t-0.5 -48q0 -31 -0.5 -47t-0.5 -31zM217 29q1 -11 1.5 -17t0.5 -12q-10 -2 -19.5 -3t-20.5 -1q-7 0 -15 1t-21 3q-1 19 -1.5 38t0.5 40q24 1 40 0.5t32 -1.5q1 -10 1.5 -19.5z" />
    <glyph glyph-name="at" unicode="@" horiz-adv-x="881" 
d="M640 -36q-49 -30 -106.5 -45.5t-120.5 -15.5q-167 0 -269 106t-102 280q0 197 111.5 314t301.5 117q169 0 265.5 -100t96.5 -264q0 -119 -55 -195t-138 -76q-48 0 -79.5 25.5t-44.5 75.5q-18 -46 -45.5 -68t-66.5 -22q-60 0 -97 54.5t-37 142.5q0 108 49.5 173.5
t129.5 65.5q12 0 25.5 -2.5t27.5 -6.5v13.5v12.5q19 6 38.5 7t38.5 -3q-6 -82 -8.5 -138.5t-2.5 -104.5q0 -92 17.5 -134t57.5 -42q55 0 90.5 62.5t35.5 161.5q0 140 -83 224.5t-227 84.5q-150 0 -242.5 -99.5t-92.5 -262.5q0 -162 83.5 -255.5t229.5 -93.5q58 0 103 14
t81 43q8 -7 14.5 -15.5t20.5 -33.5zM323 303q0 -72 20 -113t55 -41q33 0 56.5 28.5t36.5 85.5q0 2 -1.5 81t-2.5 131q-11 4 -22 5.5t-24 1.5q-52 0 -85 -49t-33 -130z" />
    <glyph glyph-name="A" unicode="A" horiz-adv-x="615" 
d="M595 -80q-16 -9 -33 -15t-44 -10q-15 103 -30 181t-31 143q-71 1 -139 -3.5t-127 -13.5q-21 -52 -46.5 -107t-56.5 -116q-19 4 -36 12.5t-33 23.5q89 157 145.5 307.5t109.5 382.5q27 -1 45 -3t35 -6q98 -190 151.5 -363t89.5 -413zM316 611q-24 -105 -48.5 -189.5
t-53.5 -160.5q48 7 105 11.5t123 6.5q-25 88 -55 168t-71 164z" />
    <glyph glyph-name="B" unicode="B" horiz-adv-x="574" 
d="M534 259q0 -116 -90.5 -197.5t-220.5 -81.5q-36 0 -73 10t-63 26q-8 167 -11 279.5t-3 242.5v25.5v42.5q-1 36 -1 56v39q41 19 87 29t93 10q110 0 171 -43t61 -120q0 -53 -29 -93t-86 -67q81 -12 123 -52.5t42 -105.5zM404 568q0 56 -39 86.5t-112 30.5q-23 0 -47 -3.5
t-48 -9.5q-5 -57 -7 -118.5t-2 -147.5q132 12 193.5 50.5t61.5 111.5zM155 53q18 -8 38 -12.5t40 -4.5q90 0 155 61t65 143q0 66 -38 98.5t-116 32.5q-34 0 -76 -7.5t-74 -19.5v-42.5v-43.5q0 -60 1.5 -108.5t4.5 -96.5z" />
    <glyph glyph-name="C" unicode="C" horiz-adv-x="547" 
d="M424 222q19 1 34.5 -2t30.5 -11q-6 -120 -61 -182t-154 -62q-109 0 -168.5 82t-59.5 234q0 184 76.5 298t200.5 114q87 0 128 -56.5t38 -171.5q-14 -9 -33.5 -13.5t-44.5 -3.5q7 99 -17 143t-85 44q-75 0 -127 -94t-52 -243q0 -133 40 -204t115 -71q68 0 105 53.5
t34 145.5z" />
    <glyph glyph-name="D" unicode="D" horiz-adv-x="576" 
d="M535 444q0 -152 -105 -276t-282 -179q-7 0 -34 3t-34 5q-9 160 -12.5 277.5t-3.5 233.5q0 41 1 86.5t2 80.5q43 21 89 31.5t99 10.5q137 0 208.5 -70t71.5 -203zM152 643q-5 -86 -7.5 -159.5t-2.5 -254.5q0 -52 0.5 -94.5t2.5 -85.5q152 58 230 158.5t78 238.5
q0 104 -54.5 158.5t-158.5 54.5q-22 0 -43.5 -4t-44.5 -12z" />
    <glyph glyph-name="E" unicode="E" horiz-adv-x="520" 
d="M480 -13q-79 -12 -165.5 -18.5t-188.5 -9.5q-29 192 -47.5 390.5t-20.5 341.5q139 24 223 33t176 11q0 -18 -1.5 -34.5t-4.5 -30.5q-82 -1 -157.5 -7.5t-148.5 -18.5q-2 -60 0 -124t7 -138q96 17 148.5 24.5t104.5 11.5q4 -14 5.5 -29t0.5 -33q-76 -6 -131.5 -12.5
t-123.5 -17.5q7 -82 15.5 -159t19.5 -147q83 2 151.5 10t132.5 22q4 -14 5.5 -33t-0.5 -32z" />
    <glyph glyph-name="F" unicode="F" horiz-adv-x="506" 
d="M175 326q3 -157 3.5 -237.5t-1.5 -160.5q-16 -4 -35.5 -5.5t-37.5 -0.5q4 232 -7.5 429.5t-39.5 369.5q115 9 200 20.5t196 32.5q3 -8 5 -16.5t3 -16.5q1 -7 0.5 -15t-1.5 -21q-119 -20 -184 -28t-127 -13q8 -55 14 -117t9 -132q54 11 109.5 18t114.5 10q4 -18 5.5 -32.5
t1.5 -30.5q-51 -3 -108 -8.5t-121 -14.5v-6t1 -9v-10v-6z" />
    <glyph glyph-name="G" unicode="G" horiz-adv-x="568" 
d="M486 348q-2 -97 11 -186.5t41 -182.5q-12 -3 -28 -5t-33 -3q-14 35 -25 69.5t-20 70.5q-35 -68 -81.5 -100t-108.5 -32q-90 0 -143 86t-53 234q0 189 72 307t190 118q81 0 127 -63t46 -171q-19 -5 -38.5 -8t-41.5 -4q-2 93 -30.5 140.5t-81.5 47.5q-70 0 -115.5 -97
t-45.5 -246q0 -133 34.5 -206.5t96.5 -73.5q53 0 92.5 42t61.5 122q-4 29 -7.5 61.5t-5.5 70.5q18 4 40.5 6.5t45.5 2.5z" />
    <glyph glyph-name="H" unicode="H" horiz-adv-x="603" 
d="M508 732q9 -181 15 -406.5t6 -380.5q-18 0 -41 3t-37 6q0 67 -1.5 170t-3.5 218q-94 -1 -165.5 -5.5t-133.5 -13.5q1 -89 3 -169t6 -141q-14 -4 -34 -5.5t-36 -0.5q-10 170 -15.5 345.5t-5.5 351.5q10 5 23.5 7.5t26.5 2.5q11 0 20.5 -1.5t20.5 -4.5q-5 -55 -7.5 -141
t-1.5 -186q68 12 140.5 18t156.5 7q-4 118 -7.5 198.5t-8.5 130.5q18 5 26.5 6t17.5 1q10 0 19.5 -2.5t16.5 -7.5z" />
    <glyph glyph-name="I" unicode="I" horiz-adv-x="235" 
d="M156 487q0 -224 -1.5 -316.5t-5.5 -190.5q-10 -3 -28 -5t-38 -3q2 199 -2 373t-15 322q12 7 25.5 10t27.5 3q8 0 15.5 -0.5t16.5 -2.5q3 -42 4 -86t1 -104z" />
    <glyph glyph-name="J" unicode="J" horiz-adv-x="458" 
d="M351 59q-20 -72 -58 -109.5t-92 -37.5q-68 0 -111.5 64t-56.5 182q13 9 29 15t40 11q14 -117 36.5 -164.5t64.5 -47.5q48 0 71.5 63.5t23.5 193.5q0 108 -7.5 223t-24.5 256q9 5 22 8.5t28 5.5q9 1 19 1.5t22 -0.5q11 -102 17 -194t6 -171q0 -105 -7 -175.5t-22 -123.5z
" />
    <glyph glyph-name="K" unicode="K" horiz-adv-x="562" 
d="M553 -31q-13 -19 -28 -31.5t-34 -21.5q-70 121 -130 198.5t-148 162.5q-32 -26 -44 -35.5t-23 -17.5q2 -75 7.5 -140t15.5 -146q-15 -3 -35 -5.5t-34 -2.5q-19 141 -26.5 253.5t-7.5 256.5q0 57 2.5 120.5t7.5 134.5q20 5 31.5 7t21.5 2t20 -1.5t21 -4.5
q-13 -83 -19 -168.5t-6 -198.5v-22.5v-22.5q100 89 158.5 168.5t129.5 230.5q16 -7 31.5 -19t30.5 -30q-58 -107 -111 -178.5t-121 -136.5q87 -78 145 -149t145 -203z" />
    <glyph glyph-name="L" unicode="L" horiz-adv-x="480" 
d="M466 -6q3 -17 5 -35.5t2 -30.5q-93 -1 -172 -6.5t-181 -19.5q-27 194 -38.5 390.5t-7.5 370.5q16 6 30 8.5t32 2.5q6 0 13 -0.5t14 -1.5q-6 -57 -8 -123t-1 -162q2 -123 9.5 -220t21.5 -196q71 11 144 17t137 6z" />
    <glyph glyph-name="M" unicode="M" horiz-adv-x="740" 
d="M662 -43q-18 -7 -37 -10t-42 -3q10 162 13.5 323t1.5 366q-62 -102 -110 -212t-89 -242q-11 -4 -25 -5.5t-28 0.5q-40 129 -88.5 237t-112.5 210q-1 -20 -1.5 -41t-0.5 -73q0 -112 12 -239.5t36 -262.5q-15 -4 -35.5 -6.5t-37.5 -2.5q-26 158 -37.5 357t-5.5 372
q22 12 41.5 19.5t36.5 10.5q71 -102 128.5 -221.5t94.5 -241.5q36 113 88.5 226t126.5 237q21 -3 39 -9t33 -13q7 -138 6.5 -336.5t-7.5 -439.5z" />
    <glyph glyph-name="N" unicode="N" horiz-adv-x="630" 
d="M150 331q1 -68 5.5 -152.5t13.5 -210.5q-13 -3 -30 -5t-35 -3q-21 238 -29 398t-8 319q1 0 2 0.5l1 0.5q25 12 43.5 17.5t42.5 9.5q103 -133 179.5 -265.5t142.5 -290.5q2 33 2.5 74.5t0.5 128.5q0 134 -4.5 232.5t-13.5 157.5q25 8 44.5 11t40.5 4q4 -85 5 -127.5
t1 -80.5q0 -157 -5 -275t-16 -250q-15 -3 -30.5 -4.5t-34.5 -2.5q-73 172 -153 312.5t-167 252.5q-1 -53 0.5 -142t1.5 -109z" />
    <glyph glyph-name="O" unicode="O" horiz-adv-x="599" 
d="M326 733q111 0 168.5 -86.5t57.5 -252.5q0 -72 -15.5 -142.5t-44.5 -125.5q-37 -72 -92.5 -109t-125.5 -37q-103 0 -166.5 100t-63.5 259q0 172 79 283t203 111zM282 39q87 0 137.5 94.5t50.5 243.5q0 152 -38 223.5t-119 71.5q-82 0 -134 -89.5t-52 -231.5
q0 -136 41.5 -224t113.5 -88z" />
    <glyph glyph-name="P" unicode="P" horiz-adv-x="550" 
d="M143 232q1 -64 5 -131.5t13 -168.5q-14 -2 -36 -1t-33 4q-14 167 -19.5 290t-5.5 313q0 37 2 89t5 88q52 14 96.5 20.5t85.5 6.5q122 0 188.5 -51.5t66.5 -143.5q0 -104 -90 -181.5t-278 -133.5zM159 674q-8 -85 -12 -164.5t-4 -173.5v-21.5v-21.5q142 38 214 99.5
t72 144.5q0 73 -45 111.5t-130 38.5q-23 0 -46.5 -3t-48.5 -10z" />
    <glyph glyph-name="Q" unicode="Q" horiz-adv-x="592" 
d="M579 -52q-7 -14 -20 -27.5t-30 -25.5q-28 41 -52.5 73t-48.5 59q-34 -33 -75.5 -50t-88.5 -17q-101 0 -162 86.5t-61 230.5q0 174 79.5 285t204.5 111q106 0 163 -82t57 -231q0 -82 -20 -155.5t-57 -129.5q22 -22 47 -50.5t64 -76.5zM123 289q0 -124 39.5 -197t108.5 -73
q33 0 62 14t52 41q-20 20 -41.5 40t-48.5 42q2 3 6.5 9.5t6.5 10.5q5 6 9.5 10.5t8.5 7.5q29 -21 51 -38t41 -33q22 43 33.5 99.5t11.5 120.5q0 134 -37 201.5t-111 67.5q-86 0 -139 -89.5t-53 -233.5z" />
    <glyph glyph-name="R" unicode="R" horiz-adv-x="562" 
d="M542 6q-10 -9 -31 -19.5t-39 -14.5q-57 128 -98.5 203t-91.5 143q-24 -11 -53.5 -20.5t-63.5 -18.5q-3 -80 -7 -150t-10 -134q-15 -2 -34.5 -0.5t-31.5 4.5q5 79 6.5 127.5t1.5 101.5q0 161 -5 255t-19 220q44 31 100.5 49t111.5 18q99 0 156.5 -52t57.5 -139
q0 -74 -37 -131.5t-112 -100.5q48 -57 98 -142.5t101 -198.5zM153 684q7 -89 10 -156t3 -134v-29.5v-29.5q125 31 185 87t60 143q0 71 -36.5 109.5t-104.5 38.5q-30 0 -59.5 -7.5t-57.5 -21.5z" />
    <glyph glyph-name="S" unicode="S" horiz-adv-x="475" 
d="M394 288q20 -30 29.5 -64.5t9.5 -75.5q0 -83 -53 -135.5t-136 -52.5q-100 0 -156.5 73.5t-56.5 191.5q16 8 35 14t37 7q-1 -107 35.5 -168t102.5 -61q50 0 80.5 33.5t30.5 88.5q0 53 -24 94.5t-104 100.5q-48 36 -70 57.5t-37 44.5q-20 30 -30 65t-10 76q0 87 49.5 138.5
t132.5 51.5q76 0 118.5 -43.5t62.5 -147.5q-14 -8 -30.5 -12t-41.5 -5q-9 79 -35 114t-77 35q-47 0 -72 -31t-25 -90q0 -54 24.5 -96.5t104.5 -102.5q48 -36 69.5 -57t36.5 -43z" />
    <glyph glyph-name="T" unicode="T" horiz-adv-x="590" 
d="M362 34q-13 -4 -33 -6.5t-41 -3.5q5 161 -4 344t-31 338q-51 -5 -105.5 -12.5t-117.5 -16.5q-4 17 -6 34t-1 31q150 25 266.5 36t265.5 13q3 -7 4.5 -16t2.5 -20v-9t-2 -24q-60 -1 -113 -3t-105 -6q13 -130 19 -244.5t6 -238.5q0 -43 -1 -91t-4 -105z" />
    <glyph glyph-name="U" unicode="U" horiz-adv-x="547" 
d="M443 706q24 -97 35 -178.5t11 -157.5q0 -227 -62 -338.5t-187 -111.5q-94 0 -140 87t-46 265q0 92 15 193t36 163q8 3 21 4.5t24 1.5q9 0 17 -1t15 -3q-22 -92 -33 -177t-11 -159q0 -165 27 -238.5t89 -73.5q73 0 112.5 89t39.5 250q0 97 -11 183.5t-37 186.5
q18 6 39.5 9.5t45.5 5.5z" />
    <glyph glyph-name="V" unicode="V" horiz-adv-x="559" 
d="M521 747q-26 -237 -77 -417.5t-162 -416.5q-14 -4 -29 -6t-34 -2q-72 167 -121 342.5t-76 364.5q20 9 39 14.5t41 7.5q20 -166 59.5 -326t98.5 -310q82 198 124 369.5t62 393.5q20 0 37.5 -3.5t37.5 -10.5z" />
    <glyph glyph-name="W" unicode="W" horiz-adv-x="746" 
d="M364 336q-23 -101 -53 -194.5t-73 -194.5q-14 -5 -29 -7.5t-29 -3.5q-75 230 -110 383.5t-54 336.5q22 7 41.5 11t41.5 5q9 -144 36.5 -287t82.5 -331q54 156 79.5 260t38.5 219q18 4 38.5 7t38.5 4q7 -132 26.5 -243t56.5 -238q66 170 103.5 322t55.5 325
q20 -1 38.5 -6.5t37.5 -16.5q-31 -206 -80 -369.5t-133 -345.5q-13 -3 -26.5 -5t-35.5 -4q-42 136 -62 218t-30 155z" />
    <glyph glyph-name="X" unicode="X" horiz-adv-x="642" 
d="M576 12q-12 -12 -27 -22.5t-31 -17.5q-50 116 -93 205t-83 162q-80 -99 -147 -174.5t-136 -145.5q-13 9 -25 20t-18 22q92 99 161 179.5t129 159.5q-51 85 -108.5 161t-132.5 156q19 17 38 29.5t39 19.5q70 -86 122 -159t95 -145q51 71 94 140t82 140q15 -8 30.5 -21.5
t27.5 -30.5q-43 -70 -91.5 -141t-107.5 -148q42 -74 84 -164.5t98 -224.5z" />
    <glyph glyph-name="Y" unicode="Y" horiz-adv-x="513" 
d="M479 684q-77 -299 -148 -464.5t-172 -302.5q-18 5 -35 12t-29 16q44 62 79.5 122t63.5 121q-78 107 -130 226t-94 290q20 11 40.5 17t43.5 7q25 -132 67 -243.5t107 -220.5q40 96 69.5 206t51.5 245q24 -5 45 -13t41 -18z" />
    <glyph glyph-name="Z" unicode="Z" horiz-adv-x="585" 
d="M523 46q-1 -21 -5.5 -40.5t-13.5 -39.5q-117 1 -243.5 11t-236.5 28q-1 16 0.5 33t4.5 31q152 159 260.5 294.5t174.5 251.5q-103 10 -193 21.5t-180 27.5q1 21 6 39t16 35q91 -19 185.5 -35t260.5 -40q-1 -11 -4.5 -31.5t-5.5 -25.5q-80 -125 -188.5 -258t-258.5 -293
q113 -11 218.5 -13.5t202.5 4.5z" />
    <glyph glyph-name="bracketleft" unicode="[" horiz-adv-x="355" 
d="M338 -72q3 -11 4.5 -27t1.5 -31q-48 -7 -103 -10t-115 -2q-33 217 -49.5 440t-16.5 455q55 13 109.5 21.5t110.5 11.5q1 -16 0.5 -30.5t-1.5 -27.5q-48 -2 -81.5 -5t-60.5 -7q-8 -205 2.5 -386t42.5 -416q36 0 78 4t78 10z" />
    <glyph glyph-name="backslash" unicode="\" horiz-adv-x="464" 
d="M63 747q-15 -5 -29 -13t-27 -19q87 -209 200 -447t233 -467q15 4 29.5 11.5t28.5 17.5q-84 147 -196 383.5t-239 533.5z" />
    <glyph glyph-name="bracketright" unicode="]" horiz-adv-x="331" 
d="M234 804q23 -135 26.5 -379t-13.5 -511q-53 -11 -106 -18.5t-112 -10.5q-1 10 -0.5 23t1.5 34q53 3 89 6.5t62 7.5q16 207 13 406t-26 386q-31 0 -70 -3.5t-82 -10.5q-2 11 -3.5 27.5t-1.5 29.5q47 7 103 10.5t120 2.5z" />
    <glyph glyph-name="asciicircum" unicode="^" horiz-adv-x="395" 
d="M370 217q-28 -11 -34.5 -13t-13.5 -3q-29 68 -59.5 125.5t-67.5 112.5q-30 -43 -59.5 -99.5t-63.5 -136.5q-12 1 -23.5 5t-24.5 12q33 86 72 158t82 127l39 -3q44 -60 81.5 -130.5t71.5 -154.5z" />
    <glyph glyph-name="underscore" unicode="_" horiz-adv-x="385" 
d="M385 -101q-90 -10 -180.5 -7.5t-173.5 16.5q1 16 2.5 29.5t3.5 27.5q47 -8 102 -12t111 -4q34 0 69.5 1.5t72.5 4.5q0 -11 -2 -25.5t-5 -30.5z" />
    <glyph glyph-name="grave" unicode="`" horiz-adv-x="260" 
d="M144 750q4 -40 13.5 -81.5t26.5 -88.5q-18 -4 -29.5 -5.5t-22.5 -2.5q-28 48 -43.5 90t-20.5 83q14 5 36 6.5t40 -1.5z" />
    <glyph glyph-name="a" unicode="a" horiz-adv-x="452" 
d="M395 341q0 -66 -18 -175t-43 -200q-15 0 -32 3t-33 8q1 4 2 9.5t4 14.5q3 16 5 23.5t3 13.5q-21 -15 -47.5 -23t-56.5 -8q-68 0 -110 36.5t-42 96.5q0 65 55 99t162 34q16 0 31 -0.5t40 -1.5q1 10 1 22v38q0 80 -19.5 116t-64.5 36q-46 0 -77 -40.5t-33 -102.5
q-28 4 -45 13.5t-26 25.5q12 66 66.5 112t124.5 46q76 0 114.5 -49.5t38.5 -146.5zM106 138q0 -37 24 -58.5t63 -21.5q28 0 53.5 8.5t47.5 25.5q8 41 12.5 73t6.5 64q-103 6 -155 -16.5t-52 -74.5z" />
    <glyph glyph-name="b" unicode="b" horiz-adv-x="448" 
d="M408 300q0 -152 -62.5 -243t-164.5 -91q-35 0 -64 11t-55 34q-3 55 -5 131t-2 177q0 110 5 219.5t13 174.5q11 4 24.5 6t30.5 2q8 0 15 -1t21 -4q-9 -55 -17 -125.5t-14 -154.5q25 38 58 56.5t75 18.5q69 0 105.5 -54t36.5 -157zM127 44q12 -11 27 -16t32 -5q68 0 105 74
t37 207q0 75 -22 112.5t-66 37.5q-32 0 -62.5 -32.5t-49.5 -88.5q-1 -32 -2 -63t-1 -60q0 -80 0.5 -111t1.5 -55z" />
    <glyph glyph-name="c" unicode="c" horiz-adv-x="424" 
d="M387 368q-16 -8 -35 -11.5t-41 -3.5q0 67 -18.5 101t-54.5 34q-55 0 -95 -86.5t-40 -197.5q0 -81 27.5 -128t77.5 -47q38 0 70.5 31.5t57.5 90.5q15 -5 27 -13t21 -19q-16 -60 -69.5 -102t-119.5 -42q-81 0 -124.5 58.5t-43.5 164.5q0 147 60 245t152 98q70 0 109 -46
t39 -127z" />
    <glyph glyph-name="d" unicode="d" horiz-adv-x="461" 
d="M393 -33q-12 -4 -28.5 -6.5t-28.5 -2.5q-3 32 -5 64.5t-3 64.5q-19 -60 -50 -88.5t-78 -28.5q-77 0 -122 72t-45 191q0 131 59.5 209.5t158.5 78.5q16 0 33 -2t31 -6q-1 94 -1.5 133t-0.5 70q9 5 23 8t27 3q8 0 17 -1.5t20 -3.5q-5 -62 -7.5 -177.5t-2.5 -422.5
q0 -45 0.5 -78.5t2.5 -76.5zM109 244q0 -103 27 -159.5t75 -56.5q44 0 72.5 49.5t38.5 145.5q-2 56 -3.5 116t-2.5 121q-12 4 -26 5.5t-30 1.5q-68 0 -109.5 -59.5t-41.5 -163.5z" />
    <glyph glyph-name="e" unicode="e" horiz-adv-x="435" 
d="M119 313q29 -10 62.5 -15.5t70.5 -5.5q10 0 23.5 1t19.5 3q8 29 11.5 53.5t3.5 44.5q0 44 -14.5 63t-46.5 19q-42 0 -77 -45t-53 -118zM342 170q16 -3 32.5 -12t28.5 -21q-19 -57 -77.5 -102.5t-121.5 -45.5q-81 0 -127.5 63t-46.5 169q0 119 66.5 214t158.5 95
q59 0 93.5 -37.5t34.5 -101.5q0 -34 -6.5 -68.5t-17.5 -65.5q-20 -7 -48.5 -10.5t-70.5 -3.5q-32 0 -65.5 5.5t-64.5 16.5q-2 -12 -2.5 -23.5t-0.5 -22.5q0 -79 27.5 -127.5t73.5 -48.5q40 0 80 37.5t54 89.5z" />
    <glyph glyph-name="f" unicode="f" horiz-adv-x="381" 
d="M165 381q3 -107 15 -208.5t31 -178.5q-24 -8 -43.5 -11.5t-35.5 -3.5q-13 59 -25.5 184t-13.5 227q-23 4 -38.5 7.5t-24.5 7.5q0 14 2 27t6 17q10 -2 22 -3.5t34 -3.5q4 145 40.5 215t108.5 70q53 0 83.5 -35t30.5 -91q0 -16 -3.5 -33.5t-8.5 -27.5q-16 0 -31.5 3
t-30.5 8q4 13 6.5 27.5t2.5 28.5q0 30 -13.5 47.5t-35.5 17.5q-38 0 -58.5 -58.5t-20.5 -165.5v-5.5v-5.5q31 -1 48 -1.5t32 -0.5q24 0 43 1.5t32 4.5q0 -13 -2 -30t-4 -28q-10 -3 -27.5 -4t-43.5 -1q-20 0 -39.5 1t-37.5 2z" />
    <glyph glyph-name="g" unicode="g" horiz-adv-x="452" 
d="M123 257q0 -91 26 -143t69 -52q33 0 56.5 33.5t40.5 104.5q-2 75 -10.5 137.5t-24.5 116.5q-9 3 -19.5 4.5t-21.5 1.5q-58 0 -87 -50.5t-29 -152.5zM393 169q0 -202 -53 -309t-146 -107q-64 0 -106 43t-53 117q15 11 33.5 19t37.5 12q10 -71 32 -103t61 -32q50 0 80 70.5
t36 205.5q-20 -41 -46.5 -61t-61.5 -20q-76 0 -120.5 67.5t-44.5 182.5q0 122 54.5 192.5t146.5 70.5q29 0 59.5 -7t56.5 -20q15 -65 24.5 -154.5t9.5 -166.5z" />
    <glyph glyph-name="h" unicode="h" horiz-adv-x="467" 
d="M416 326q0 -81 -24.5 -189.5t-50.5 -168.5q-17 2 -33.5 7t-31.5 13q30 81 46.5 170t16.5 167t-15.5 109.5t-54.5 31.5q-41 0 -81 -45.5t-62 -122.5v-3q0 -56 5 -139t10 -121q-11 -3 -31 -5.5t-38 -2.5q-8 105 -12 197.5t-4 170.5q0 81 6 187.5t14 158.5q13 7 27 10.5
t28 3.5q10 0 23 -3.5t17 -4.5q-16 -76 -27 -164.5t-15 -176.5q31 58 71 89t83 31q70 0 101.5 -47.5t31.5 -152.5z" />
    <glyph glyph-name="i" unicode="i" horiz-adv-x="206" 
d="M152 741q14 -1 24.5 -3.5t19.5 -7.5q-10 -22 -20.5 -52.5t-16.5 -59.5q-11 -2 -28 -2.5t-35 0.5q-2 9 -2.5 16.5t-0.5 15.5q0 21 4.5 45t12.5 41q11 5 20 6.5t22 0.5zM75 498q12 7 24.5 10.5t26.5 3.5q8 0 14.5 -1t13.5 -3q-20 -105 -28 -246t0 -263q-7 -4 -18 -6t-22 -2
q-5 0 -9.5 0.5t-10.5 1.5q-17 127 -14.5 262.5t23.5 242.5z" />
    <glyph glyph-name="j" unicode="j" horiz-adv-x="229" 
d="M128 738q-9 -23 -17 -54.5t-12 -60.5q-10 -3 -25.5 -4.5t-37.5 -2.5q-4 13 -5.5 25t-1.5 22q-2 21 0 39.5t7 35.5q10 5 21 7.5t25 2.5q16 -1 26 -3t20 -7zM164 196q0 -189 -43.5 -289.5t-124.5 -100.5q-42 0 -75.5 22t-57.5 65q7 16 18 29.5t23 22.5q18 -38 38.5 -56
t46.5 -18q48 0 73 71.5t25 208.5q0 71 -11 151t-45 226q19 7 42 9t49 0q23 -119 32.5 -197t9.5 -144z" />
    <glyph glyph-name="k" unicode="k" horiz-adv-x="447" 
d="M123 236q0 -74 4 -142t13 -136q-17 -4 -36 -6t-33 -2q-12 119 -16 195t-4 159q0 110 7.5 222t21.5 208q22 2 45 0t38 -7q-17 -106 -27 -209.5t-12 -205.5q71 62 120.5 119.5t106.5 146.5q15 -7 28.5 -18.5t23.5 -24.5q-51 -77 -96.5 -128t-110.5 -105q45 -66 96 -114.5
t135 -105.5q-17 -25 -28.5 -37t-24.5 -19q-64 50 -112 101.5t-112 137.5q-7 -5 -13.5 -10.5t-13.5 -10.5v-4v-4z" />
    <glyph glyph-name="l" unicode="l" horiz-adv-x="202" 
d="M140 -53q-10 -3 -31.5 -5.5t-36.5 -2.5q-16 223 -18.5 409.5t8.5 381.5q10 5 22.5 8.5t24.5 3.5q10 0 19.5 -1.5t20.5 -4.5q-16 -155 -18.5 -366.5t9.5 -422.5z" />
    <glyph glyph-name="m" unicode="m" horiz-adv-x="707" 
d="M126 167q0 -58 2 -110.5t5 -75.5q-13 -4 -31 -7t-35 -3q-7 118 -13 281t-6 270q10 5 24 8t29 3t23.5 -1t16.5 -3q-1 -10 -3.5 -39.5t-5.5 -78.5q31 48 67.5 72t78.5 24q36 0 59.5 -17t36.5 -52q35 62 74.5 93t85.5 31q59 0 86 -45t27 -142q0 -88 -16.5 -199t-40.5 -198
q-18 1 -38.5 4.5t-34.5 8.5q27 108 40.5 203.5t13.5 183.5q0 63 -14.5 90.5t-47.5 27.5t-65 -33t-56 -92q1 -17 1.5 -28.5t0.5 -21.5q0 -71 -12 -161t-27 -149q-15 1 -34.5 4.5t-35.5 8.5q19 101 26.5 170t7.5 128q0 64 -14.5 91.5t-47.5 27.5q-35 0 -68.5 -31t-55.5 -85
q-1 -40 -2 -81.5t-1 -76.5z" />
    <glyph glyph-name="n" unicode="n" horiz-adv-x="461" 
d="M126 167q0 -47 2 -106.5t5 -86.5q-13 -4 -31 -7t-35 -3q-7 105 -12 272t-5 283q10 5 24 8t29 3q10 0 19.5 -1t19.5 -3q-2 -18 -4.5 -57.5t-3.5 -51.5q33 55 70 82t78 27q62 0 90.5 -45.5t28.5 -142.5q0 -78 -12.5 -175t-26.5 -152q-16 1 -35.5 4.5t-35.5 8.5
q18 98 26 174t8 143q0 63 -15.5 91t-50.5 28t-69.5 -35t-59.5 -96q-2 -72 -3 -105t-1 -57z" />
    <glyph glyph-name="o" unicode="o" horiz-adv-x="449" 
d="M30 242q0 130 59.5 212t153.5 82q77 0 122 -58.5t45 -157.5q0 -145 -56.5 -237.5t-149.5 -92.5q-80 0 -127 69.5t-47 182.5zM330 278q0 102 -26 152t-79 50q-48 0 -83.5 -66t-35.5 -162q0 -88 30 -147.5t81 -59.5q45 0 79 68.5t34 164.5z" />
    <glyph glyph-name="p" unicode="p" horiz-adv-x="453" 
d="M135 86q12 -12 26 -18t30 -6q58 0 101 83.5t43 206.5q0 63 -21 99t-57 36q-42 0 -74 -39t-51 -115q-1 -12 -1 -27v-45q0 -37 1 -77t3 -98zM139 17q4 -58 10.5 -113t16.5 -114q-14 -5 -32.5 -7.5t-34.5 -2.5q-17 128 -28 284t-11 284q0 59 2 106t7 93q13 7 28.5 10.5
t32.5 3.5q5 0 12 -1t17 -3q-7 -29 -11.5 -56t-7.5 -53q27 52 64.5 80t82.5 28q58 0 93 -54t35 -144q0 -149 -65 -248.5t-159 -99.5q-13 0 -26 1.5t-26 5.5z" />
    <glyph glyph-name="q" unicode="q" horiz-adv-x="490" 
d="M382 -234q-7 -3 -19 -5t-23 -2q-7 0 -12 1t-11 3q-3 20 -5.5 107.5t-3.5 171.5q-21 -46 -49.5 -69t-64.5 -23q-70 0 -112.5 68.5t-42.5 177.5q0 144 64 230t173 86q14 0 32.5 -3t33.5 -8q1 5 4.5 23.5t6.5 28.5q14 6 25.5 8.5t25.5 2.5q9 0 20 -1.5t19 -4.5
q-38 -130 -54 -342t-7 -450zM115 201q0 -87 25 -139.5t65 -52.5q39 0 63 31.5t41 101.5q1 69 8 150t17 154q-14 6 -29 8.5t-35 2.5q-69 0 -112 -68t-43 -188z" />
    <glyph glyph-name="r" unicode="r" horiz-adv-x="359" 
d="M152 -2q-8 -3 -19 -5t-22 -2q-8 -1 -14.5 0t-12.5 3q-25 127 -33.5 266t-1.5 280q7 3 17 4.5t30 1.5q10 0 19.5 -1.5t19.5 -4.5q-6 -43 -9 -73t-4 -57q23 78 61 123t79 45q40 0 59 -29.5t19 -90.5q0 -12 -1 -26t-2 -30q-12 -3 -28.5 -4.5t-35.5 -0.5q2 15 3 28.5t1 26.5
q0 32 -8 47.5t-24 15.5q-34 0 -68 -71.5t-54 -185.5q3 -57 10 -121.5t19 -138.5z" />
    <glyph glyph-name="s" unicode="s" horiz-adv-x="374" 
d="M222 288q72 -52 94.5 -88.5t22.5 -80.5q0 -69 -44 -114t-112 -45q-71 0 -115.5 51t-44.5 135q15 5 31.5 7.5t32.5 1.5q-2 -67 23.5 -105t73.5 -38q36 0 57.5 24.5t21.5 66.5q0 34 -19 63.5t-82 75.5q-74 54 -97 92.5t-23 85.5q0 63 38 100.5t103 37.5q62 0 97.5 -36
t49.5 -115q-15 -7 -30.5 -10.5t-32.5 -5.5q-8 59 -28.5 86t-56.5 27q-30 0 -47.5 -20t-17.5 -54q0 -35 20 -65t85 -77z" />
    <glyph glyph-name="t" unicode="t" horiz-adv-x="371" 
d="M272 207q16 -2 31.5 -6.5t26.5 -11.5q-2 -84 -33.5 -131.5t-85.5 -47.5q-63 0 -95 71.5t-32 211.5q0 46 3 92t9 94q-19 1 -37.5 4t-37.5 7q1 14 4 27t8 24q19 -4 36 -7t34 -4q4 26 10.5 56.5t17.5 75.5q21 -1 41.5 -4.5t39.5 -9.5q-10 -33 -18 -64t-13 -60q40 -1 78 0.5
t74 4.5q0 -10 -2.5 -22.5t-6.5 -26.5q-37 -4 -75.5 -5.5t-76.5 -0.5q-7 -47 -11 -96t-4 -96q0 -106 15.5 -161.5t44.5 -55.5q27 0 40.5 34.5t14.5 107.5z" />
    <glyph glyph-name="u" unicode="u" horiz-adv-x="410" 
d="M187 -10q-73 0 -110.5 71t-37.5 209q0 70 11.5 140.5t28.5 101.5q9 3 18 4.5t18 1.5t16.5 -1.5t14.5 -5.5q-15 -48 -23 -110t-8 -134q0 -97 22.5 -159t60.5 -62q47 0 71.5 72t24.5 202q0 40 -4 83.5t-8 60.5q15 7 37 11t42 4q5 -23 7.5 -55t2.5 -65q0 -179 -46.5 -274
t-137.5 -95z" />
    <glyph glyph-name="v" unicode="v" horiz-adv-x="437" 
d="M406 511q-36 -150 -75 -255t-109 -242q-7 -3 -19.5 -4t-40.5 -1q-28 149 -67 282t-90 254q17 10 38 15.5t44 7.5q36 -100 64 -207t57 -255q49 113 82 223t46 205q17 -2 35.5 -8t34.5 -15z" />
    <glyph glyph-name="w" unicode="w" horiz-adv-x="660" 
d="M453 -25q-12 -3 -29.5 -6t-30.5 -4q-16 111 -35 199t-45 172q-23 -88 -48.5 -159t-63.5 -158q-12 -4 -30.5 -7t-34.5 -4q-50 133 -79 256.5t-44 267.5q17 7 36 10.5t40 4.5q12 -137 32.5 -243t54.5 -212q37 88 62 175.5t42 193.5q21 5 36.5 7.5t29.5 1.5q30 -81 54 -184
t40 -216q49 118 80.5 225.5t43.5 200.5q16 -2 32.5 -7.5t37.5 -17.5q-38 -157 -76.5 -261.5t-104.5 -234.5z" />
    <glyph glyph-name="x" unicode="x" horiz-adv-x="483" 
d="M450 7q-13 -10 -29 -19.5t-29 -14.5q-33 72 -67 136.5t-69 122.5q-47 -57 -99.5 -113t-119.5 -121q-12 8 -22 19t-17 23q58 55 114.5 117.5t109.5 129.5q-39 61 -78.5 116t-80.5 104q20 15 40.5 27t40.5 19q39 -57 71 -107.5t60 -98.5q31 44 63.5 92.5t67.5 105.5
q10 -7 19 -15.5t34 -40.5q-40 -57 -77 -106t-73 -94q41 -73 75 -142t66 -140z" />
    <glyph glyph-name="y" unicode="y" horiz-adv-x="445" 
d="M386 194q0 -201 -50.5 -308t-139.5 -107q-60 0 -99 42t-52 118q17 11 34.5 19t36.5 12q11 -73 30.5 -104.5t54.5 -31.5q45 0 72.5 67t33.5 195q-24 -39 -54 -58.5t-65 -19.5q-66 0 -107.5 63t-41.5 166q0 68 9.5 127.5t40.5 156.5q17 -1 36.5 -4.5t34.5 -8.5
q-25 -93 -34 -149t-9 -120q0 -74 25 -120t67 -46q30 0 55 27t45 83q-1 90 -10.5 164t-30.5 140q15 12 38.5 17t45.5 1q15 -62 24.5 -151.5t9.5 -169.5z" />
    <glyph glyph-name="z" unicode="z" horiz-adv-x="441" 
d="M385 49q-1 -16 -5 -32.5t-12 -34.5q-105 1 -188.5 10t-163.5 29q-1 15 0 28t3 24q85 114 159 201.5t155 169.5q-57 11 -111 17.5t-156 14.5q2 22 5 35t10 30q96 -8 168.5 -21t161.5 -40q0 -13 -2.5 -27.5t-6.5 -25.5q-93 -96 -165.5 -180.5t-149.5 -187.5
q85 -11 152.5 -13t145.5 3z" />
    <glyph glyph-name="braceleft" unicode="{" horiz-adv-x="295" 
d="M257 -152q-17 -8 -32.5 -11t-39.5 -3q-54 0 -88 36.5t-34 93.5q0 33 9.5 62.5t34.5 70.5q30 47 40 72t10 46q0 31 -19.5 51.5t-48.5 20.5q-10 0 -20.5 -1t-23.5 -4q-5 21 -5.5 46t3.5 43q10 -3 19.5 -4t22.5 -1q31 0 49 19.5t18 53.5q0 18 -7 36t-43 75q-26 42 -36 71.5
t-10 62.5q0 57 34.5 93.5t88.5 36.5q22 0 38.5 -3.5t31.5 -10.5q2 -12 -1.5 -25.5t-10.5 -26.5q-12 6 -22 8.5t-24 2.5q-29 0 -46.5 -21t-17.5 -57q0 -24 8.5 -48t34.5 -68q29 -45 37.5 -71t8.5 -52q0 -40 -21.5 -70.5t-59.5 -43.5q40 -11 62.5 -41.5t22.5 -73.5
q0 -26 -8.5 -52t-35.5 -73q-27 -45 -35 -70t-8 -50q0 -36 17 -57t47 -21q14 0 24 2t23 8q6 -12 9.5 -25.5t3.5 -26.5z" />
    <glyph glyph-name="bar" unicode="|" horiz-adv-x="265" 
d="M172 -163q-11 -3 -28.5 -5.5t-28.5 -1.5q-11 179 -16 408t-4 475q15 8 35.5 11t40.5 1q-9 -163 -8 -430.5t9 -457.5z" />
    <glyph glyph-name="braceright" unicode="}" horiz-adv-x="313" 
d="M194 98q24 -40 33.5 -69.5t8.5 -63.5q-1 -56 -37 -92t-91 -35q-22 1 -36.5 3.5t-26.5 8.5q-1 14 1.5 27.5t9.5 25.5q14 -6 24 -8.5t22 -2.5q29 -1 46.5 20t17.5 56q1 24 -7 48.5t-34 69.5t-34 70t-7 51q1 42 23 72t61 42q-41 12 -63 43t-20 76q0 26 9 51.5t38 72.5
q28 45 36.5 70.5t9.5 50.5q1 35 -16 56.5t-46 22.5q-15 0 -24.5 -2t-20.5 -8q-5 11 -7.5 24t-1.5 29q14 7 29 9.5t36 1.5q55 -1 89 -37.5t33 -92.5q-1 -34 -11.5 -62.5t-37.5 -70.5q-32 -50 -42 -75t-10 -46q0 -32 18.5 -52t46.5 -20q18 0 26.5 0.5t16.5 2.5q4 -22 4 -47.5
t-5 -41.5q-13 4 -21.5 5t-18.5 1q-30 1 -48 -18.5t-19 -52.5q-1 -19 5.5 -37t40.5 -76z" />
    <glyph glyph-name="asciitilde" unicode="~" horiz-adv-x="354" 
d="M185 349q25 -10 36 -13t20 -3q21 0 32 11.5t9 32.5q12 1 22 -1t23 -7q4 -38 -18 -62.5t-60 -24.5q-16 0 -34 4t-50 17q-24 10 -34 12.5t-18 2.5q-22 0 -31.5 -10t-7.5 -32q-8 -1 -18 1t-24 6q-4 38 17 62t59 24q14 0 30 -4t47 -16z" />
    <glyph glyph-name="uni00A0" unicode="&#xa0;" horiz-adv-x="220" 
 />
    <glyph glyph-name="exclamdown" unicode="&#xa1;" horiz-adv-x="217" 
d="M98 555q8 0 16 -1t21 -3q2 -21 2 -40.5t-2 -37.5q-21 -1 -37.5 -1t-34.5 1q-1 8 -1.5 16t-0.5 23q-1 15 -1.5 23t-1.5 16q10 2 19.5 3t20.5 1zM134 341q7 -121 10.5 -225t3.5 -231v-37t-1 -22q-15 -6 -27 -9t-25 -3q-11 0 -19 1t-15 3q12 116 15.5 249.5t-0.5 274.5
q4 2 9.5 2.5t13.5 0.5q7 0 14 -1z" />
    <glyph glyph-name="cent" unicode="&#xa2;" horiz-adv-x="428" 
d="M398 192q-15 -57 -71 -101.5t-121 -44.5q-15 0 -28.5 2t-27.5 6q-9 -26 -19.5 -52t-23.5 -51q-17 1 -32.5 5.5t-27.5 12.5q18 32 31 59t23 55q-31 28 -47.5 76t-16.5 112q0 147 61 244.5t155 97.5q18 0 34 -3t29 -9q9 30 18 53t19 41q12 0 26 -4.5t31 -14.5
q-20 -38 -31 -62t-19 -46q18 -21 27.5 -53t9.5 -74q-15 -8 -34 -12t-42 -4q0 68 -18.5 102t-54.5 34q-55 0 -95 -86.5t-40 -198.5q0 -82 27.5 -128.5t77.5 -46.5q37 0 69.5 31t58.5 92q15 -2 31 -12t21 -20z" />
    <glyph glyph-name="sterling" unicode="&#xa3;" horiz-adv-x="429" 
d="M192 3q-31 4 -45 5t-26 1q-18 0 -37 -4.5t-45 -15.5q-7 10 -11 21t-5 25q20 10 42.5 16.5t45.5 8.5q28 20 41 45t13 56q0 21 -5 38.5t-16 37.5q-38 -1 -67.5 -0.5t-51.5 1.5q-3 27 -2.5 36t2.5 16q16 -2 37 -3t47 -1q-39 53 -55 97.5t-16 90.5q0 86 52.5 142.5
t134.5 56.5q84 0 128 -61t42 -178q-17 -3 -35 -2.5t-38 5.5q4 91 -20.5 136t-77.5 45q-50 0 -79 -39t-29 -106q0 -26 4.5 -50.5t13.5 -47.5q5 -11 11 -23t38 -64q56 4 102 9t83 11q1 -4 1 -9v-14q-1 -14 -2.5 -20l-2.5 -10q-35 -5 -74.5 -9t-80.5 -6q7 -16 10 -33t3 -34
q0 -33 -13.5 -62t-42.5 -55q27 -4 46 -5t39 -1q37 0 77 5.5t80 15.5q8 -19 10.5 -36t-0.5 -36q-54 -6 -103.5 -6t-122.5 10z" />
    <glyph glyph-name="currency" unicode="&#xa4;" horiz-adv-x="565" 
d="M392 372q0 83 -25.5 126.5t-74.5 43.5q-54 0 -87 -53t-33 -139q0 -78 30.5 -129t76.5 -51q48 0 80.5 59.5t32.5 142.5zM406 194q-25 -36 -60 -54.5t-77 -18.5q-33 0 -61.5 12.5t-50.5 37.5q-21 -29 -45 -56.5t-49 -50.5q-13 5 -26.5 15t-23.5 22q35 31 62 60t50 62
q-11 25 -16.5 55t-5.5 61q0 51 11 93.5t33 75.5q-26 23 -50.5 50.5t-44.5 55.5q6 13 16.5 25.5t24.5 21.5q29 -42 48.5 -65.5t42.5 -45.5q25 20 54.5 30.5t63.5 10.5q32 0 59.5 -11t48.5 -33q24 33 46 59t44 46q11 -4 23 -13t24 -24q-29 -26 -54.5 -53.5t-50.5 -61.5
q9 -21 14 -46t5 -53q0 -44 -7 -84.5t-21 -74.5q31 -28 57.5 -56t47.5 -56q-6 -11 -16.5 -21.5t-26.5 -20.5q-32 45 -49.5 65t-39.5 41z" />
    <glyph glyph-name="yen" unicode="&#xa5;" horiz-adv-x="477" 
d="M252 -41q-14 -3 -31 -4.5t-33 -1.5q4 59 6 107t3 91q-43 1 -78 3t-68 5q0 18 1 31.5t4 22.5q37 -4 71.5 -6t69.5 -3q0 7 -0.5 14.5t-0.5 23.5q0 15 -0.5 22.5t-0.5 14.5q0 1 -0.5 2.5t-1.5 2.5q-35 0 -69.5 1.5t-69.5 5.5q0 18 1 31.5t4 22.5q36 -4 63 -5.5t51 -2.5
q-30 76 -65.5 145.5t-86.5 152.5q6 7 13.5 12.5t16.5 9.5q6 3 14 6t19 7q51 -92 83.5 -165t65.5 -170q54 90 89.5 168t67.5 177q14 -1 26.5 -7t32.5 -21q-26 -80 -61 -151.5t-92 -163.5q26 1 56.5 3.5t75.5 7.5q1 -5 0.5 -14t-0.5 -11q-1 -7 -3 -13.5t-5 -13.5
q-43 -5 -80.5 -8t-73.5 -4q1 -19 1 -39t-1 -40q34 1 72 3.5t84 7.5v-15t-1 -10t-2.5 -12t-4.5 -16q-51 -5 -85.5 -7t-63.5 -3q-2 -60 -5 -105.5t-8 -88.5z" />
    <glyph glyph-name="brokenbar" unicode="&#xa6;" horiz-adv-x="269" 
d="M170 725q-4 -75 -6 -165t-2 -184q-14 -3 -30.5 -4.5t-35.5 -0.5q-2 76 -2.5 159.5t0.5 182.5q15 8 35.5 11t40.5 1zM171 -163q-11 -3 -28.5 -5.5t-28.5 -1.5q-5 76 -8.5 168t-6.5 223q15 2 31 2t32 -3q1 -98 3 -199t6 -184z" />
    <glyph glyph-name="section" unicode="&#xa7;" horiz-adv-x="368" 
d="M175 352q-37 -9 -57 -31.5t-20 -56.5q0 -33 20.5 -60.5t68.5 -59.5q36 9 55.5 31.5t19.5 56.5q0 33 -20 60t-67 60zM323 -44q0 -58 -40 -98.5t-99 -40.5q-64 0 -100.5 36.5t-51.5 113.5q13 8 28 12t29 4q9 -59 32 -87.5t61 -28.5q31 0 50 21.5t19 56.5q0 41 -23 73
t-80 70q-67 45 -92 82t-25 82q0 44 25 78.5t72 53.5q-42 33 -61 68.5t-19 80.5q0 61 40.5 102.5t100.5 41.5q63 0 99 -35.5t49 -112.5q-12 -7 -26 -10.5t-32 -4.5q-8 59 -29 85.5t-58 26.5q-34 0 -53 -21t-19 -60q0 -42 21.5 -73t73.5 -65q66 -44 90.5 -81t24.5 -83
q0 -44 -24.5 -78t-71.5 -54q47 -36 68 -72.5t21 -82.5z" />
    <glyph glyph-name="dieresis" unicode="&#xa8;" horiz-adv-x="260" 
d="M79 745q14 -1 24.5 -3.5t19.5 -7.5q-10 -22 -20.5 -52.5t-16.5 -59.5q-9 -1 -25 -1.5t-38 0.5q-2 8 -2.5 15.5t-0.5 15.5q0 21 4.5 45.5t12.5 40.5q11 5 20 6.5t22 0.5zM205 745q14 -1 24.5 -3.5t19.5 -7.5q-10 -22 -20.5 -52.5t-16.5 -59.5q-9 -1 -25 -1.5t-38 0.5
q-2 8 -2.5 15.5t-0.5 15.5q0 21 4.5 45.5t12.5 40.5q11 5 20 6.5t22 0.5z" />
    <glyph glyph-name="copyright" unicode="&#xa9;" horiz-adv-x="747" 
d="M400 699q144 0 224.5 -96t80.5 -262q0 -169 -90.5 -265.5t-248.5 -96.5q-146 0 -235 93t-89 246q0 172 98.5 276.5t259.5 104.5zM374 31q127 0 196 81.5t69 230.5q0 142 -66 222.5t-185 80.5q-117 0 -198.5 -91.5t-81.5 -225.5q0 -138 71.5 -218t194.5 -80zM448 284
q16 1 29.5 -1.5t22.5 -7.5q-4 -64 -37.5 -98t-93.5 -34q-62 0 -96.5 43.5t-34.5 123.5q0 98 46 162t119 64q48 0 73 -30.5t26 -90.5q-12 -7 -25.5 -10t-36.5 -3q2 47 -10 69t-39 22q-34 0 -58 -48t-24 -120q0 -67 19 -102.5t55 -35.5q33 0 50.5 26t14.5 71z" />
    <glyph glyph-name="ordfeminine" unicode="&#xaa;" horiz-adv-x="255" 
d="M230 628q0 -35 -10 -94.5t-24 -111.5q-11 0 -24.5 2t-27.5 5q2 8 3.5 15.5t2.5 14.5q-11 -7 -25 -10.5t-30 -3.5q-40 0 -64.5 20.5t-24.5 54.5q0 36 30.5 54.5t90.5 18.5h26.5t12.5 -1v9.5v9.5q0 47 -9 67t-30 20t-35 -20.5t-15 -51.5q-21 1 -34.5 8t-20.5 19
q9 36 39.5 59.5t71.5 23.5q48 0 72.5 -27.5t24.5 -80.5zM71 517q0 -18 11 -28t30 -10q12 0 23 3.5t21 10.5q3 13 5 27.5t4 41.5q-47 2 -70.5 -9.5t-23.5 -35.5z" />
    <glyph glyph-name="guillemotleft" unicode="&#xab;" horiz-adv-x="471" 
d="M444 111q-14 -21 -24.5 -31t-24.5 -17q-59 45 -102.5 94t-75.5 107q47 29 91 74.5t82 103.5q20 -13 31.5 -23t19.5 -22q-37 -48 -73.5 -83t-76.5 -62q29 -38 67.5 -73.5t85.5 -67.5zM235 111q-12 -18 -23 -29t-25 -19q-59 45 -102.5 94t-75.5 107q46 29 89.5 74t83.5 104
q20 -13 31.5 -23.5t18.5 -21.5q-35 -45 -71 -80.5t-78 -64.5q28 -38 66 -73.5t86 -67.5z" />
    <glyph glyph-name="logicalnot" unicode="&#xac;" horiz-adv-x="364" 
d="M335 399q4 -40 3 -85t-7 -95q-13 0 -25 1t-29 4q5 30 6.5 57t0.5 61q-63 -5 -129.5 -4t-129.5 9q0 14 1.5 26.5t4.5 27.5q74 -9 144 -9.5t160 7.5z" />
    <glyph glyph-name="uni00AD" unicode="&#xad;" horiz-adv-x="0" 
 />
    <glyph glyph-name="registered" unicode="&#xae;" horiz-adv-x="747" 
d="M400 699q144 0 224.5 -96t80.5 -262q0 -169 -90.5 -265.5t-248.5 -96.5q-146 0 -235 93t-89 246q0 172 98.5 276.5t259.5 104.5zM108 329q0 -138 71.5 -218t194.5 -80q127 0 196 81.5t69 230.5q0 142 -66 222.5t-185 80.5q-117 0 -198.5 -91.5t-81.5 -225.5zM530 152
q-9 -9 -25 -17t-34 -13q-30 69 -51.5 108.5t-46.5 74.5l-28.5 -9t-18.5 -6q-1 -38 -3 -76t-6 -75q-14 -1 -29 0t-26 4q2 29 2.5 52.5t0.5 49.5q0 83 -3.5 142.5t-11.5 130.5q25 18 58 28.5t66 10.5q59 0 93.5 -29t34.5 -77q0 -38 -19.5 -68t-59.5 -54q27 -31 53.5 -75
t53.5 -102zM322 507q3 -53 4 -87t1 -65v-12v-12q56 14 82.5 41t26.5 70q0 36 -18 55.5t-50 19.5q-11 0 -23 -2.5t-23 -7.5z" />
    <glyph glyph-name="macron" unicode="&#xaf;" horiz-adv-x="260" 
d="M227 637q-62 -7 -112 -5t-83 13q-1 12 0 28.5t3 27.5q49 -9 97.5 -10.5t95.5 4.5q1 -13 1 -26.5t-2 -31.5z" />
    <glyph glyph-name="degree" unicode="&#xb0;" horiz-adv-x="245" 
d="M10 629q0 51 32.5 81.5t88.5 30.5q48 0 76 -25.5t28 -67.5q0 -59 -31.5 -93t-86.5 -34q-48 0 -77.5 30t-29.5 78zM179 639q0 29 -14 45t-39 16q-28 0 -45.5 -20t-17.5 -52q0 -29 15.5 -46t41.5 -17q25 0 42 20.5t17 53.5z" />
    <glyph glyph-name="plusminus" unicode="&#xb1;" horiz-adv-x="364" 
d="M208 317q-1 -32 -3 -63.5t-6 -62.5q-13 -2 -26.5 -2t-26.5 2q3 28 5 57.5t3 67.5q-35 1 -67 3.5t-62 6.5q0 14 1.5 27t4.5 26q32 -4 62 -6t61 -3q-1 32 -2.5 62t-4.5 61q12 3 25 3.5t27 -1.5q4 -30 6 -61t3 -63q23 0 52.5 1.5t74.5 5.5q0 -14 -1.5 -27t-4.5 -25
q-29 -4 -59.5 -6t-61.5 -3zM21 107q0 13 1 25t4 29q74 -9 144.5 -9.5t159.5 7.5q0 -16 -1 -28.5t-4 -23.5q-73 -9 -151.5 -9t-152.5 9z" />
    <glyph glyph-name="twosuperior" unicode="&#xb2;" horiz-adv-x="275" 
d="M262 346q-1 -14 -4 -27.5t-9 -28.5q-80 4 -143.5 13t-106.5 22q0 14 1.5 23.5t4.5 17.5q102 72 146 128t44 116q0 29 -13 46t-36 17q-25 0 -42.5 -23.5t-26.5 -70.5q-19 0 -34 3t-29 9q14 60 48.5 91.5t85.5 31.5q52 0 84 -31t32 -81q0 -58 -47.5 -120.5t-138.5 -125.5
q49 -5 90.5 -7.5t93.5 -2.5z" />
    <glyph glyph-name="threesuperior" unicode="&#xb3;" horiz-adv-x="291" 
d="M285 410q0 -61 -37.5 -99.5t-95.5 -38.5q-56 0 -91.5 37.5t-38.5 103.5q13 6 29 8.5t35 2.5q0 -52 18.5 -81t50.5 -29q29 0 45 21t16 59q0 57 -34 86.5t-96 24.5q-4 17 -5 24.5t-1 13.5q42 24 73.5 50.5t54.5 58.5q-55 -4 -101 -10.5t-90 -16.5q-3 11 -4.5 24.5
t-0.5 28.5q59 13 125.5 20.5t130.5 8.5q3 -10 5 -23.5t2 -28.5q-23 -35 -49.5 -61.5t-64.5 -53.5q60 -12 92 -45.5t32 -84.5z" />
    <glyph glyph-name="acute" unicode="&#xb4;" horiz-adv-x="260" 
d="M182 744q-5 -43 -21 -85.5t-43 -87.5q-12 0 -24 2t-28 6q17 46 26.5 87.5t13.5 81.5q18 2 39 1t37 -5z" />
    <glyph glyph-name="uni00B5" unicode="&#xb5;" horiz-adv-x="443" 
d="M92 45q4 -66 12 -129t18 -111q-7 -2 -14.5 -2.5t-21.5 -0.5q-13 0 -25.5 2.5t-21.5 7.5q-2 163 -1.5 238.5t3.5 147.5q3 77 15 165t26 149q15 -1 35.5 -4.5t35.5 -8.5q-18 -98 -26 -174t-8 -143q0 -64 15.5 -91.5t50.5 -27.5q36 0 71 37t60 102q3 107 0.5 196t-9.5 152
q12 4 32 6.5t37 2.5q7 -100 12.5 -267.5t5.5 -288.5q-10 -4 -25 -6.5t-28 -2.5q-7 0 -13.5 0.5t-21.5 2.5q2 19 3.5 45.5t3.5 71.5q-32 -57 -68.5 -86t-76.5 -29q-26 0 -45 11.5t-31 34.5z" />
    <glyph glyph-name="paragraph" unicode="&#xb6;" horiz-adv-x="644" 
d="M570 717q8 -282 2 -507t-28 -485q-14 -3 -28.5 -4t-28.5 0q25 391 27 553.5t-9 402.5q-9 3 -20 6t-26 7q9 -296 3 -491t-29 -474q-13 -3 -28.5 -3.5t-28.5 0.5q15 243 19 343t4 185q-170 52 -250.5 128.5t-80.5 185.5q0 92 69.5 145.5t191.5 53.5q61 0 113 -9.5
t128 -36.5z" />
    <glyph glyph-name="periodcentered" unicode="&#xb7;" horiz-adv-x="167" 
d="M38 280q26 6 49 6.5t46 -3.5q-1 -32 -2.5 -48.5t-4.5 -32.5q-25 -3 -44.5 -3t-40.5 3q0 6 -0.5 12.5t-0.5 18.5q-1 18 -1.5 28t-0.5 19z" />
    <glyph glyph-name="cedilla" unicode="&#xb8;" horiz-adv-x="261" 
d="M229 -130q0 -43 -29.5 -69t-78.5 -26q-38 0 -64.5 18.5t-39.5 54.5q15 10 24 14.5t18 8.5q8 -23 24 -36.5t36 -13.5q23 0 35.5 11.5t12.5 32.5q0 18 -12.5 30t-31.5 12q-10 0 -18.5 -2.5t-17.5 -7.5q-8 6 -15.5 13.5t-10.5 12.5q13 21 21 42.5t11 43.5l48 -9
q-2 -14 -5.5 -27.5t-10.5 -27.5q9 1 13 1.5t8 0.5q38 0 60.5 -21t22.5 -56z" />
    <glyph glyph-name="onesuperior" unicode="&#xb9;" horiz-adv-x="240" 
d="M156 277q-14 -3 -20 -4t-12 -1q-8 -1 -14 -0.5t-11 1.5q1 29 3.5 54.5t7.5 65.5q5 57 14.5 120t21.5 119q-22 -16 -48.5 -33.5t-56.5 -35.5q-15 13 -22.5 23.5t-13.5 23.5q53 26 101.5 57.5t90.5 67.5q14 -6 23 -11.5t17 -13.5q-25 -61 -48 -184.5t-33 -248.5z" />
    <glyph glyph-name="ordmasculine" unicode="&#xba;" horiz-adv-x="243" 
d="M7 569q0 72 36.5 117.5t94.5 45.5q46 0 72 -30.5t26 -84.5q0 -79 -35 -130.5t-94 -51.5q-46 0 -73 37t-27 97zM170 591q0 51 -11.5 75.5t-34.5 24.5t-38 -32.5t-15 -81.5q0 -44 13 -73t36 -29q21 0 35.5 34.5t14.5 81.5z" />
    <glyph glyph-name="guillemotright" unicode="&#xbb;" horiz-adv-x="471" 
d="M461 264q-31 -57 -74 -106t-103 -95q-15 8 -26 18.5t-23 29.5q47 32 85.5 67.5t67.5 73.5q-40 27 -76.5 62t-73.5 83q8 12 20 22.5t32 23.5q38 -58 81.5 -103.5t89.5 -75.5zM253 264q-32 -58 -75.5 -107t-102.5 -94q-14 8 -25 18.5t-24 29.5q48 32 86.5 67.5t66.5 73.5
q-43 30 -79.5 65.5t-70.5 79.5q8 12 20 22.5t32 23.5q39 -59 82 -104t90 -75z" />
    <glyph glyph-name="onequarter" unicode="&#xbc;" horiz-adv-x="701" 
d="M160 301q-14 -3 -20 -4t-12 -1q-8 -1 -14 -0.5t-11 1.5q1 29 3.5 54.5t7.5 65.5q5 57 14.5 120t21.5 119q-22 -16 -48.5 -33.5t-56.5 -35.5q-15 13 -22.5 23.5t-13.5 23.5q53 26 101.5 57.5t90.5 67.5q14 -6 23 -11.5t17 -13.5q-25 -61 -48 -184.5t-33 -248.5zM445 781
q17 -5 32 -13t28 -19q-78 -194 -161 -369.5t-209 -409.5q-7 2 -13.5 4.5t-13.5 7.5q-5 3 -13 8.5t-11 7.5q110 211 191.5 387.5t169.5 395.5zM585 90q-2 -26 -3.5 -52.5t-2.5 -52.5q-7 -2 -15.5 -2.5t-18.5 -0.5q-7 0 -12 0.5t-9 2.5q-1 11 -1.5 24t-0.5 38v30.5t1 18.5
q-48 5 -89 10.5t-74 10.5q-4 7 -6.5 14t-5.5 19q61 87 96.5 158.5t67.5 172.5q10 0 21 -2t47 -14q-32 -85 -69.5 -158.5t-84.5 -141.5q30 -6 54 -10t46 -7q2 28 6 57t10 56q7 3 16.5 5t23.5 3q3 0 11 -0.5t21 -2.5q-7 -23 -13 -54.5t-11 -70.5q41 -4 61.5 -5t38.5 -2
q-1 -14 -4.5 -27.5t-8.5 -22.5q-21 1 -44.5 2.5t-47.5 3.5z" />
    <glyph glyph-name="onehalf" unicode="&#xbd;" horiz-adv-x="675" 
d="M160 301q-14 -3 -20 -4t-12 -1q-8 -1 -14 -0.5t-11 1.5q1 29 3.5 54.5t7.5 65.5q5 57 14.5 120t21.5 119q-22 -16 -48.5 -33.5t-56.5 -35.5q-15 13 -22.5 23.5t-13.5 23.5q53 26 101.5 57.5t90.5 67.5q14 -6 23 -11.5t17 -13.5q-25 -61 -48 -184.5t-33 -248.5zM438 782
q17 -5 32 -13t28 -19q-78 -194 -161 -369.5t-209 -409.5q-7 2 -13.5 4.5t-13.5 7.5q-5 3 -13 8.5t-11 7.5q110 211 191.5 387.5t169.5 395.5zM634 55q-1 -14 -4 -27.5t-9 -28.5q-80 4 -143.5 13t-106.5 22q0 14 1.5 23.5t4.5 17.5q102 72 146 128t44 116q0 29 -13 46t-36 17
q-25 0 -42.5 -23.5t-26.5 -70.5q-19 0 -34 3t-29 9q14 60 48.5 91.5t85.5 31.5q52 0 84 -31t32 -81q0 -58 -47.5 -120.5t-138.5 -125.5q49 -5 90.5 -7.5t93.5 -2.5z" />
    <glyph glyph-name="threequarters" unicode="&#xbe;" horiz-adv-x="751" 
d="M524 781q17 -5 32 -13t28 -19q-78 -194 -161 -369.5t-209 -409.5q-7 2 -13.5 4.5t-13.5 7.5q-5 3 -13 8.5t-11 7.5q110 211 191.5 387.5t169.5 395.5zM299 461q0 -61 -37.5 -99.5t-95.5 -38.5q-56 0 -91.5 37.5t-38.5 103.5q13 6 29 8.5t35 2.5q0 -52 18.5 -81t50.5 -29
q29 0 45 21t16 59q0 57 -34 86.5t-96 24.5q-4 17 -5 24.5t-1 13.5q42 24 73.5 50.5t54.5 58.5q-55 -4 -101 -10.5t-90 -16.5q-3 11 -4.5 24.5t-0.5 28.5q59 13 125.5 20.5t130.5 8.5q3 -10 5 -23.5t2 -28.5q-23 -35 -49.5 -61.5t-64.5 -53.5q60 -12 92 -45.5t32 -84.5z
M643 91q-2 -26 -3.5 -52.5t-2.5 -52.5q-7 -2 -15.5 -2.5t-18.5 -0.5q-7 0 -12 0.5t-9 2.5q-1 11 -1.5 24t-0.5 38v30.5t1 18.5q-48 5 -89 10.5t-74 10.5q-4 7 -6.5 14t-5.5 19q61 87 96.5 158.5t67.5 172.5q10 0 21 -2t47 -14q-32 -85 -69.5 -158.5t-84.5 -141.5
q30 -6 54 -10t46 -7q2 28 6 57t10 56q7 3 16.5 5t23.5 3q3 0 11 -0.5t21 -2.5q-7 -23 -13 -54.5t-11 -70.5q41 -4 61.5 -5t38.5 -2q-1 -14 -4.5 -27.5t-8.5 -22.5q-21 1 -44.5 2.5t-47.5 3.5z" />
    <glyph glyph-name="questiondown" unicode="&#xbf;" horiz-adv-x="368" 
d="M165 522l-1.5 18t-0.5 12q10 2 19.5 3t20.5 1q9 0 18 -1t18 -4q1 -19 1.5 -38t-0.5 -40q-24 -1 -40 -0.5t-32 1.5q-1 10 -1.5 19.5zM368 6q-6 -108 -50.5 -162.5t-126.5 -54.5q-72 0 -117 52.5t-45 136.5q0 75 40.5 130t112.5 79v92t1 64q11 2 25 3t28 0q7 -77 11 -123.5
t4 -61.5q-71 -17 -107.5 -63t-36.5 -117q0 -63 24.5 -101t65.5 -38q48 0 74.5 46.5t26.5 128.5q18 0 36 -3t34 -8z" />
    <glyph glyph-name="Agrave" unicode="&#xc0;" horiz-adv-x="615" 
d="M595 -80q-16 -9 -33 -15t-44 -10q-15 103 -30 181t-31 143q-71 1 -139 -3.5t-127 -13.5q-21 -52 -46.5 -107t-56.5 -116q-19 4 -36 12.5t-33 23.5q89 157 145.5 307.5t109.5 382.5q27 -1 45 -3t35 -6q98 -190 151.5 -363t89.5 -413zM316 611q-24 -105 -48.5 -189.5
t-53.5 -160.5q48 7 105 11.5t123 6.5q-25 88 -55 168t-71 164zM299 925q4 -40 13.5 -81.5t26.5 -88.5q-18 -4 -29.5 -5.5t-22.5 -2.5q-28 48 -43.5 90t-20.5 83q14 5 36 6.5t40 -1.5z" />
    <glyph glyph-name="Aacute" unicode="&#xc1;" horiz-adv-x="615" 
d="M595 -80q-16 -9 -33 -15t-44 -10q-15 103 -30 181t-31 143q-71 1 -139 -3.5t-127 -13.5q-21 -52 -46.5 -107t-56.5 -116q-19 4 -36 12.5t-33 23.5q89 157 145.5 307.5t109.5 382.5q27 -1 45 -3t35 -6q98 -190 151.5 -363t89.5 -413zM316 611q-24 -105 -48.5 -189.5
t-53.5 -160.5q48 7 105 11.5t123 6.5q-25 88 -55 168t-71 164zM405 920q-5 -43 -21 -85.5t-43 -87.5q-12 0 -24 2t-28 6q17 46 26.5 87.5t13.5 81.5q18 2 39 1t37 -5z" />
    <glyph glyph-name="Acircumflex" unicode="&#xc2;" horiz-adv-x="615" 
d="M595 -80q-16 -9 -33 -15t-44 -10q-15 103 -30 181t-31 143q-71 1 -139 -3.5t-127 -13.5q-21 -52 -46.5 -107t-56.5 -116q-19 4 -36 12.5t-33 23.5q89 157 145.5 307.5t109.5 382.5q27 -1 45 -3t35 -6q98 -190 151.5 -363t89.5 -413zM316 611q-24 -105 -48.5 -189.5
t-53.5 -160.5q48 7 105 11.5t123 6.5q-25 88 -55 168t-71 164zM447 770q-12 -12 -21 -18t-20 -11q-31 23 -51 42.5t-37 43.5q-16 -24 -36.5 -44t-51.5 -43q-11 5 -20.5 12t-19.5 17q40 36 61 63.5t38 64.5q5 1 13 2t16 1q5 0 13 -0.5t16 -1.5q14 -33 34.5 -60t65.5 -68z" />
    <glyph glyph-name="Atilde" unicode="&#xc3;" horiz-adv-x="615" 
d="M595 -80q-16 -9 -33 -15t-44 -10q-15 103 -30 181t-31 143q-71 1 -139 -3.5t-127 -13.5q-21 -52 -46.5 -107t-56.5 -116q-19 4 -36 12.5t-33 23.5q89 157 145.5 307.5t109.5 382.5q27 -1 45 -3t35 -6q98 -190 151.5 -363t89.5 -413zM316 611q-24 -105 -48.5 -189.5
t-53.5 -160.5q48 7 105 11.5t123 6.5q-25 88 -55 168t-71 164zM319 816q16 -9 24 -11.5t15 -2.5q15 0 20 9t4 29q13 1 23.5 -1t22.5 -8q3 -41 -13 -62.5t-49 -21.5q-13 0 -26 4t-33 16q-15 9 -22 11.5t-13 2.5q-13 0 -18.5 -9t-4.5 -27q-11 -1 -23.5 1t-22.5 6q-3 39 13 61
t48 22q12 0 23.5 -3.5t31.5 -15.5z" />
    <glyph glyph-name="Adieresis" unicode="&#xc4;" horiz-adv-x="615" 
d="M595 -80q-16 -9 -33 -15t-44 -10q-15 103 -30 181t-31 143q-71 1 -139 -3.5t-127 -13.5q-21 -52 -46.5 -107t-56.5 -116q-19 4 -36 12.5t-33 23.5q89 157 145.5 307.5t109.5 382.5q27 -1 45 -3t35 -6q98 -190 151.5 -363t89.5 -413zM316 611q-24 -105 -48.5 -189.5
t-53.5 -160.5q48 7 105 11.5t123 6.5q-25 88 -55 168t-71 164zM268 873q14 -1 24.5 -3.5t19.5 -7.5q-10 -22 -20.5 -52.5t-16.5 -59.5q-9 -1 -25 -1.5t-38 0.5q-2 8 -2.5 15.5t-0.5 15.5q0 21 4.5 45.5t12.5 40.5q11 5 20 6.5t22 0.5zM394 873q14 -1 24.5 -3.5t19.5 -7.5
q-10 -22 -20.5 -52.5t-16.5 -59.5q-9 -1 -25 -1.5t-38 0.5q-2 8 -2.5 15.5t-0.5 15.5q0 21 4.5 45.5t12.5 40.5q11 5 20 6.5t22 0.5z" />
    <glyph glyph-name="Aring" unicode="&#xc5;" horiz-adv-x="615" 
d="M595 -80q-16 -9 -33 -15t-44 -10q-15 103 -30 181t-31 143q-71 1 -139 -3.5t-127 -13.5q-21 -52 -46.5 -107t-56.5 -116q-19 4 -36 12.5t-33 23.5q89 157 145.5 307.5t109.5 382.5q27 -1 45 -3t35 -6q98 -190 151.5 -363t89.5 -413zM316 611q-24 -105 -48.5 -189.5
t-53.5 -160.5q48 7 105 11.5t123 6.5q-25 88 -55 168t-71 164zM227 831q0 46 29 73t78 27q40 0 63.5 -21.5t23.5 -58.5q0 -50 -28 -79t-76 -29q-39 0 -64.5 25t-25.5 63zM364 844q0 25 -10 39t-27 14q-20 0 -32.5 -18t-12.5 -48q0 -23 11.5 -37t28.5 -14q19 0 30.5 17.5
t11.5 46.5z" />
    <glyph glyph-name="AE" unicode="&#xc6;" horiz-adv-x="820" 
d="M780 -16q-86 -12 -174 -19t-180 -9q-8 54 -15.5 113t-15.5 129q-51 -1 -102 -6t-96 -13q-23 -49 -50 -100t-58 -105q-21 5 -37.5 14.5t-30.5 23.5q99 161 162 313t121 374q12 0 25.5 -2t41.5 -8q128 23 210 31.5t175 10.5q1 -17 -0.5 -33t-4.5 -32q-81 0 -156 -6
t-151 -19q-1 -70 1 -133.5t6 -128.5q102 18 152.5 25t101.5 11q4 -18 5.5 -33t0.5 -30q-68 -4 -122.5 -10.5t-132.5 -19.5q5 -66 14 -145t21 -161q83 3 152 11t132 21q3 -12 4.5 -30.5t0.5 -33.5zM361 636q-29 -109 -62.5 -205.5t-74.5 -190.5q37 6 78 10t87 6
q-11 107 -18 204t-10 176z" />
    <glyph glyph-name="Ccedilla" unicode="&#xc7;" horiz-adv-x="547" 
d="M424 222q19 1 34.5 -2t30.5 -11q-6 -120 -61 -182t-154 -62q-109 0 -168.5 82t-59.5 234q0 184 76.5 298t200.5 114q87 0 128 -56.5t38 -171.5q-14 -9 -33.5 -13.5t-44.5 -3.5q7 99 -17 143t-85 44q-75 0 -127 -94t-52 -243q0 -133 40 -204t115 -71q68 0 105 53.5
t34 145.5zM379 -154q0 -43 -29.5 -69t-78.5 -26q-38 0 -64.5 18.5t-39.5 54.5q15 10 24 14.5t18 8.5q8 -23 24 -36.5t36 -13.5q23 0 35.5 11.5t12.5 32.5q0 18 -12.5 30t-31.5 12q-10 0 -18.5 -2.5t-17.5 -7.5q-8 6 -15.5 13.5t-10.5 12.5q13 21 21 42.5t11 43.5l48 -9
q-2 -14 -5.5 -27.5t-10.5 -27.5q9 1 13 1.5t8 0.5q38 0 60.5 -21t22.5 -56z" />
    <glyph glyph-name="Egrave" unicode="&#xc8;" horiz-adv-x="520" 
d="M480 -13q-79 -12 -165.5 -18.5t-188.5 -9.5q-29 192 -47.5 390.5t-20.5 341.5q139 24 223 33t176 11q0 -18 -1.5 -34.5t-4.5 -30.5q-82 -1 -157.5 -7.5t-148.5 -18.5q-2 -60 0 -124t7 -138q96 17 148.5 24.5t104.5 11.5q4 -14 5.5 -29t0.5 -33q-76 -6 -131.5 -12.5
t-123.5 -17.5q7 -82 15.5 -159t19.5 -147q83 2 151.5 10t132.5 22q4 -14 5.5 -33t-0.5 -32zM256 934q4 -40 13.5 -81.5t26.5 -88.5q-18 -4 -29.5 -5.5t-22.5 -2.5q-28 48 -43.5 90t-20.5 83q14 5 36 6.5t40 -1.5z" />
    <glyph glyph-name="Eacute" unicode="&#xc9;" horiz-adv-x="520" 
d="M480 -13q-79 -12 -165.5 -18.5t-188.5 -9.5q-29 192 -47.5 390.5t-20.5 341.5q139 24 223 33t176 11q0 -18 -1.5 -34.5t-4.5 -30.5q-82 -1 -157.5 -7.5t-148.5 -18.5q-2 -60 0 -124t7 -138q96 17 148.5 24.5t104.5 11.5q4 -14 5.5 -29t0.5 -33q-76 -6 -131.5 -12.5
t-123.5 -17.5q7 -82 15.5 -159t19.5 -147q83 2 151.5 10t132.5 22q4 -14 5.5 -33t-0.5 -32zM314 932q-5 -43 -21 -85.5t-43 -87.5q-12 0 -24 2t-28 6q17 46 26.5 87.5t13.5 81.5q18 2 39 1t37 -5z" />
    <glyph glyph-name="Ecircumflex" unicode="&#xca;" horiz-adv-x="520" 
d="M480 -13q-79 -12 -165.5 -18.5t-188.5 -9.5q-29 192 -47.5 390.5t-20.5 341.5q139 24 223 33t176 11q0 -18 -1.5 -34.5t-4.5 -30.5q-82 -1 -157.5 -7.5t-148.5 -18.5q-2 -60 0 -124t7 -138q96 17 148.5 24.5t104.5 11.5q4 -14 5.5 -29t0.5 -33q-76 -6 -131.5 -12.5
t-123.5 -17.5q7 -82 15.5 -159t19.5 -147q83 2 151.5 10t132.5 22q4 -14 5.5 -33t-0.5 -32zM386 793q-12 -12 -21 -18t-20 -11q-31 23 -51 42.5t-37 43.5q-16 -24 -36.5 -44t-51.5 -43q-11 5 -20.5 12t-19.5 17q40 36 61 63.5t38 64.5q5 1 13 2t16 1q5 0 13 -0.5t16 -1.5
q14 -33 34.5 -60t65.5 -68z" />
    <glyph glyph-name="Edieresis" unicode="&#xcb;" horiz-adv-x="520" 
d="M480 -13q-79 -12 -165.5 -18.5t-188.5 -9.5q-29 192 -47.5 390.5t-20.5 341.5q139 24 223 33t176 11q0 -18 -1.5 -34.5t-4.5 -30.5q-82 -1 -157.5 -7.5t-148.5 -18.5q-2 -60 0 -124t7 -138q96 17 148.5 24.5t104.5 11.5q4 -14 5.5 -29t0.5 -33q-76 -6 -131.5 -12.5
t-123.5 -17.5q7 -82 15.5 -159t19.5 -147q83 2 151.5 10t132.5 22q4 -14 5.5 -33t-0.5 -32zM208 896q14 -1 24.5 -3.5t19.5 -7.5q-10 -22 -20.5 -52.5t-16.5 -59.5q-9 -1 -25 -1.5t-38 0.5q-2 8 -2.5 15.5t-0.5 15.5q0 21 4.5 45.5t12.5 40.5q11 5 20 6.5t22 0.5zM334 896
q14 -1 24.5 -3.5t19.5 -7.5q-10 -22 -20.5 -52.5t-16.5 -59.5q-9 -1 -25 -1.5t-38 0.5q-2 8 -2.5 15.5t-0.5 15.5q0 21 4.5 45.5t12.5 40.5q11 5 20 6.5t22 0.5z" />
    <glyph glyph-name="Igrave" unicode="&#xcc;" horiz-adv-x="235" 
d="M156 487q0 -224 -1.5 -316.5t-5.5 -190.5q-10 -3 -28 -5t-38 -3q2 199 -2 373t-15 322q12 7 25.5 10t27.5 3q8 0 15.5 -0.5t16.5 -2.5q3 -42 4 -86t1 -104zM88 914q4 -40 13.5 -81.5t26.5 -88.5q-18 -4 -29.5 -5.5t-22.5 -2.5q-28 48 -43.5 90t-20.5 83q14 5 36 6.5
t40 -1.5z" />
    <glyph glyph-name="Iacute" unicode="&#xcd;" horiz-adv-x="235" 
d="M156 487q0 -224 -1.5 -316.5t-5.5 -190.5q-10 -3 -28 -5t-38 -3q2 199 -2 373t-15 322q12 7 25.5 10t27.5 3q8 0 15.5 -0.5t16.5 -2.5q3 -42 4 -86t1 -104zM185 912q-5 -43 -21 -85.5t-43 -87.5q-12 0 -24 2t-28 6q17 46 26.5 87.5t13.5 81.5q18 2 39 1t37 -5z" />
    <glyph glyph-name="Icircumflex" unicode="&#xce;" horiz-adv-x="235" 
d="M156 487q0 -224 -1.5 -316.5t-5.5 -190.5q-10 -3 -28 -5t-38 -3q2 199 -2 373t-15 322q12 7 25.5 10t27.5 3q8 0 15.5 -0.5t16.5 -2.5q3 -42 4 -86t1 -104zM229 758q-12 -12 -21 -18t-20 -11q-31 23 -51 42.5t-37 43.5q-16 -24 -36.5 -44t-51.5 -43q-11 5 -20.5 12
t-19.5 17q40 36 61 63.5t38 64.5q5 1 13 2t16 1q5 0 13 -0.5t16 -1.5q14 -33 34.5 -60t65.5 -68z" />
    <glyph glyph-name="Idieresis" unicode="&#xcf;" horiz-adv-x="235" 
d="M156 487q0 -224 -1.5 -316.5t-5.5 -190.5q-10 -3 -28 -5t-38 -3q2 199 -2 373t-15 322q12 7 25.5 10t27.5 3q8 0 15.5 -0.5t16.5 -2.5q3 -42 4 -86t1 -104zM59 879q14 -1 24.5 -3.5t19.5 -7.5q-10 -22 -20.5 -52.5t-16.5 -59.5q-9 -1 -25 -1.5t-38 0.5q-2 8 -2.5 15.5
t-0.5 15.5q0 21 4.5 45.5t12.5 40.5q11 5 20 6.5t22 0.5zM185 879q14 -1 24.5 -3.5t19.5 -7.5q-10 -22 -20.5 -52.5t-16.5 -59.5q-9 -1 -25 -1.5t-38 0.5q-2 8 -2.5 15.5t-0.5 15.5q0 21 4.5 45.5t12.5 40.5q11 5 20 6.5t22 0.5z" />
    <glyph glyph-name="Eth" unicode="&#xd0;" horiz-adv-x="576" 
d="M142 345v-58v-58q0 -52 0.5 -94.5t2.5 -85.5q152 58 230 158.5t78 238.5q0 104 -54.5 158.5t-158.5 54.5q-23 0 -45 -4t-43 -11q-5 -76 -7 -134.5t-3 -113.5q36 2 73 5.5t79 10.5q1 -14 0.5 -27t-2.5 -25q-39 -7 -76.5 -10.5t-73.5 -4.5zM535 444q0 -152 -105 -276
t-282 -179q-7 0 -34 3t-34 5q-6 121 -9.5 200.5t-4.5 146.5q-23 1 -46 2.5t-45 3.5q-1 19 -0.5 31.5t2.5 21.5q24 -2 45.5 -3.5t42.5 -2.5q-1 20 -1 42.5v68.5q0 41 1 86.5t2 80.5q44 21 89 31.5t86 10.5q145 0 219 -69t74 -204z" />
    <glyph glyph-name="Ntilde" unicode="&#xd1;" horiz-adv-x="630" 
d="M150 331q1 -68 5.5 -152.5t13.5 -210.5q-13 -3 -30 -5t-35 -3q-21 238 -29 398t-8 319q1 0 2 0.5l1 0.5q25 12 43.5 17.5t42.5 9.5q103 -133 179.5 -265.5t142.5 -290.5q2 33 2.5 74.5t0.5 128.5q0 134 -4.5 232.5t-13.5 157.5q25 8 44.5 11t40.5 4q4 -85 5 -127.5
t1 -80.5q0 -157 -5 -275t-16 -250q-15 -3 -30.5 -4.5t-34.5 -2.5q-73 172 -153 312.5t-167 252.5q-1 -53 0.5 -142t1.5 -109zM301 852q16 -9 24 -11.5t15 -2.5q15 0 20 9t4 29q13 1 23.5 -1t22.5 -8q3 -41 -13 -62.5t-49 -21.5q-13 0 -26 4t-33 16q-15 9 -22 11.5t-13 2.5
q-13 0 -18.5 -9t-4.5 -27q-11 -1 -23.5 1t-22.5 6q-3 39 13 61t48 22q12 0 23.5 -3.5t31.5 -15.5z" />
    <glyph glyph-name="Ograve" unicode="&#xd2;" horiz-adv-x="599" 
d="M326 733q111 0 168.5 -86.5t57.5 -252.5q0 -72 -15.5 -142.5t-44.5 -125.5q-37 -72 -92.5 -109t-125.5 -37q-103 0 -166.5 100t-63.5 259q0 172 79 283t203 111zM282 39q87 0 137.5 94.5t50.5 243.5q0 152 -38 223.5t-119 71.5q-82 0 -134 -89.5t-52 -231.5
q0 -136 41.5 -224t113.5 -88zM307 947q4 -40 13.5 -81.5t26.5 -88.5q-18 -4 -29.5 -5.5t-22.5 -2.5q-28 48 -43.5 90t-20.5 83q14 5 36 6.5t40 -1.5z" />
    <glyph glyph-name="Oacute" unicode="&#xd3;" horiz-adv-x="599" 
d="M326 733q111 0 168.5 -86.5t57.5 -252.5q0 -72 -15.5 -142.5t-44.5 -125.5q-37 -72 -92.5 -109t-125.5 -37q-103 0 -166.5 100t-63.5 259q0 172 79 283t203 111zM282 39q87 0 137.5 94.5t50.5 243.5q0 152 -38 223.5t-119 71.5q-82 0 -134 -89.5t-52 -231.5
q0 -136 41.5 -224t113.5 -88zM378 938q-5 -43 -21 -85.5t-43 -87.5q-12 0 -24 2t-28 6q17 46 26.5 87.5t13.5 81.5q18 2 39 1t37 -5z" />
    <glyph glyph-name="Ocircumflex" unicode="&#xd4;" horiz-adv-x="599" 
d="M326 733q111 0 168.5 -86.5t57.5 -252.5q0 -72 -15.5 -142.5t-44.5 -125.5q-37 -72 -92.5 -109t-125.5 -37q-103 0 -166.5 100t-63.5 259q0 172 79 283t203 111zM282 39q87 0 137.5 94.5t50.5 243.5q0 152 -38 223.5t-119 71.5q-82 0 -134 -89.5t-52 -231.5
q0 -136 41.5 -224t113.5 -88zM446 791q-12 -12 -21 -18t-20 -11q-31 23 -51 42.5t-37 43.5q-16 -24 -36.5 -44t-51.5 -43q-11 5 -20.5 12t-19.5 17q40 36 61 63.5t38 64.5q5 1 13 2t16 1q5 0 13 -0.5t16 -1.5q14 -33 34.5 -60t65.5 -68z" />
    <glyph glyph-name="Otilde" unicode="&#xd5;" horiz-adv-x="599" 
d="M326 733q111 0 168.5 -86.5t57.5 -252.5q0 -72 -15.5 -142.5t-44.5 -125.5q-37 -72 -92.5 -109t-125.5 -37q-103 0 -166.5 100t-63.5 259q0 172 79 283t203 111zM282 39q87 0 137.5 94.5t50.5 243.5q0 152 -38 223.5t-119 71.5q-82 0 -134 -89.5t-52 -231.5
q0 -136 41.5 -224t113.5 -88zM324 855q16 -9 24 -11.5t15 -2.5q15 0 20 9t4 29q13 1 23.5 -1t22.5 -8q3 -41 -13 -62.5t-49 -21.5q-13 0 -26 4t-33 16q-15 9 -22 11.5t-13 2.5q-13 0 -18.5 -9t-4.5 -27q-11 -1 -23.5 1t-22.5 6q-3 39 13 61t48 22q12 0 23.5 -3.5t31.5 -15.5
z" />
    <glyph glyph-name="Odieresis" unicode="&#xd6;" horiz-adv-x="599" 
d="M326 733q111 0 168.5 -86.5t57.5 -252.5q0 -72 -15.5 -142.5t-44.5 -125.5q-37 -72 -92.5 -109t-125.5 -37q-103 0 -166.5 100t-63.5 259q0 172 79 283t203 111zM282 39q87 0 137.5 94.5t50.5 243.5q0 152 -38 223.5t-119 71.5q-82 0 -134 -89.5t-52 -231.5
q0 -136 41.5 -224t113.5 -88zM267 909q14 -1 24.5 -3.5t19.5 -7.5q-10 -22 -20.5 -52.5t-16.5 -59.5q-9 -1 -25 -1.5t-38 0.5q-2 8 -2.5 15.5t-0.5 15.5q0 21 4.5 45.5t12.5 40.5q11 5 20 6.5t22 0.5zM393 909q14 -1 24.5 -3.5t19.5 -7.5q-10 -22 -20.5 -52.5t-16.5 -59.5
q-9 -1 -25 -1.5t-38 0.5q-2 8 -2.5 15.5t-0.5 15.5q0 21 4.5 45.5t12.5 40.5q11 5 20 6.5t22 0.5z" />
    <glyph glyph-name="multiply" unicode="&#xd7;" horiz-adv-x="365" 
d="M315 214q-9 -10 -18.5 -18.5t-22.5 -17.5q-23 29 -44.5 54t-43.5 48q-20 -21 -55 -59.5t-36 -39.5q-10 7 -19 16.5t-17 20.5q31 35 51 58t38 42q-21 21 -45 43t-53 46q6 7 14 14l24 21q26 -20 50.5 -41t47.5 -43q23 24 46.5 46t45.5 42q11 -8 19.5 -18t16.5 -23
q-21 -18 -43.5 -39.5t-46.5 -46.5q27 -29 49.5 -55t41.5 -50z" />
    <glyph glyph-name="Oslash" unicode="&#xd8;" horiz-adv-x="586" 
d="M307 672q-82 0 -134 -89.5t-52 -231.5q0 -60 9.5 -115.5t27.5 -97.5q53 97 110.5 215t133.5 281q-19 19 -42 28.5t-53 9.5zM193 79q18 -20 38.5 -30t44.5 -10q87 0 137 94.5t50 243.5q0 61 -6 108t-18 82q-51 -109 -109.5 -225t-136.5 -263zM485 126q-37 -72 -92.5 -109
t-125.5 -37q-30 0 -57 9t-51 27q-8 -16 -18.5 -35l-31.5 -57q-19 6 -31.5 13t-24.5 19q19 30 34 56t28 49q-37 49 -57 121t-20 157q0 172 79 283t202 111q33 0 61.5 -8t52.5 -24q7 16 16 35t26 57q14 -6 27 -13.5t25 -18.5q-28 -62 -34.5 -77t-12.5 -28q32 -43 48.5 -108.5
t16.5 -153.5q0 -72 -15.5 -142.5t-44.5 -125.5z" />
    <glyph glyph-name="Ugrave" unicode="&#xd9;" horiz-adv-x="547" 
d="M443 706q24 -97 35 -178.5t11 -157.5q0 -227 -62 -338.5t-187 -111.5q-94 0 -140 87t-46 265q0 92 15 193t36 163q8 3 21 4.5t24 1.5q9 0 17 -1t15 -3q-22 -92 -33 -177t-11 -159q0 -165 27 -238.5t89 -73.5q73 0 112.5 89t39.5 250q0 97 -11 183.5t-37 186.5
q18 6 39.5 9.5t45.5 5.5zM242 869q4 -40 13.5 -81.5t26.5 -88.5q-18 -4 -29.5 -5.5t-22.5 -2.5q-28 48 -43.5 90t-20.5 83q14 5 36 6.5t40 -1.5z" />
    <glyph glyph-name="Uacute" unicode="&#xda;" horiz-adv-x="547" 
d="M443 706q24 -97 35 -178.5t11 -157.5q0 -227 -62 -338.5t-187 -111.5q-94 0 -140 87t-46 265q0 92 15 193t36 163q8 3 21 4.5t24 1.5q9 0 17 -1t15 -3q-22 -92 -33 -177t-11 -159q0 -165 27 -238.5t89 -73.5q73 0 112.5 89t39.5 250q0 97 -11 183.5t-37 186.5
q18 6 39.5 9.5t45.5 5.5zM333 862q-5 -43 -21 -85.5t-43 -87.5q-12 0 -24 2t-28 6q17 46 26.5 87.5t13.5 81.5q18 2 39 1t37 -5z" />
    <glyph glyph-name="Ucircumflex" unicode="&#xdb;" horiz-adv-x="547" 
d="M443 706q24 -97 35 -178.5t11 -157.5q0 -227 -62 -338.5t-187 -111.5q-94 0 -140 87t-46 265q0 92 15 193t36 163q8 3 21 4.5t24 1.5q9 0 17 -1t15 -3q-22 -92 -33 -177t-11 -159q0 -165 27 -238.5t89 -73.5q73 0 112.5 89t39.5 250q0 97 -11 183.5t-37 186.5
q18 6 39.5 9.5t45.5 5.5zM386 760q-12 -12 -21 -18t-20 -11q-31 23 -51 42.5t-37 43.5q-16 -24 -36.5 -44t-51.5 -43q-11 5 -20.5 12t-19.5 17q40 36 61 63.5t38 64.5q5 1 13 2t16 1q5 0 13 -0.5t16 -1.5q14 -33 34.5 -60t65.5 -68z" />
    <glyph glyph-name="Udieresis" unicode="&#xdc;" horiz-adv-x="547" 
d="M443 706q24 -97 35 -178.5t11 -157.5q0 -227 -62 -338.5t-187 -111.5q-94 0 -140 87t-46 265q0 92 15 193t36 163q8 3 21 4.5t24 1.5q9 0 17 -1t15 -3q-22 -92 -33 -177t-11 -159q0 -165 27 -238.5t89 -73.5q73 0 112.5 89t39.5 250q0 97 -11 183.5t-37 186.5
q18 6 39.5 9.5t45.5 5.5zM218 862q14 -1 24.5 -3.5t19.5 -7.5q-10 -22 -20.5 -52.5t-16.5 -59.5q-9 -1 -25 -1.5t-38 0.5q-2 8 -2.5 15.5t-0.5 15.5q0 21 4.5 45.5t12.5 40.5q11 5 20 6.5t22 0.5zM344 862q14 -1 24.5 -3.5t19.5 -7.5q-10 -22 -20.5 -52.5t-16.5 -59.5
q-9 -1 -25 -1.5t-38 0.5q-2 8 -2.5 15.5t-0.5 15.5q0 21 4.5 45.5t12.5 40.5q11 5 20 6.5t22 0.5z" />
    <glyph glyph-name="Yacute" unicode="&#xdd;" horiz-adv-x="513" 
d="M479 684q-77 -299 -148 -464.5t-172 -302.5q-18 5 -35 12t-29 16q44 62 79.5 122t63.5 121q-78 107 -130 226t-94 290q20 11 40.5 17t43.5 7q25 -132 67 -243.5t107 -220.5q40 96 69.5 206t51.5 245q24 -5 45 -13t41 -18zM320 895q-5 -43 -21 -85.5t-43 -87.5
q-12 0 -24 2t-28 6q17 46 26.5 87.5t13.5 81.5q18 2 39 1t37 -5z" />
    <glyph glyph-name="Thorn" unicode="&#xde;" horiz-adv-x="537" 
d="M143 95q5 -77 7 -106.5t4 -56.5q-17 -2 -36.5 -1t-31.5 4q-14 167 -19.5 290t-5.5 313q0 37 2 90t5 88q22 2 44.5 -0.5t42.5 -10.5q-1 -14 -2.5 -30t-7.5 -81q31 5 57.5 7.5t51.5 2.5q122 0 188.5 -51.5t66.5 -143.5q0 -104 -89.5 -180.5t-276.5 -133.5zM141 533
q-3 -45 -4 -92.5t-1 -104.5q0 -54 1 -97.5t3 -84.5q143 38 215 100t72 145q0 73 -45 111.5t-130 38.5q-30 0 -57.5 -4t-53.5 -12z" />
    <glyph glyph-name="germandbls" unicode="&#xdf;" horiz-adv-x="570" 
d="M547 119q0 -71 -40 -115t-107 -44q-70 0 -113.5 51t-44.5 135q15 5 31.5 7.5t31.5 1.5q-2 -68 23.5 -105.5t72.5 -37.5q35 0 54 24t19 67q0 34 -19.5 61t-84.5 66q-69 43 -90.5 74t-21.5 70q0 33 12 61t41 59q24 26 32 46.5t8 52.5q0 35 -20 57t-53 22q-58 0 -89.5 -57
t-31.5 -167q0 -121 12.5 -242t34.5 -212q-24 -8 -43.5 -11.5t-35.5 -3.5q-13 60 -25.5 184t-13.5 226q-19 3 -35.5 7.5t-27.5 8.5q0 12 2.5 26t5.5 18q10 -2 22 -3.5t34 -3.5q6 141 54 213t136 72q60 0 97 -38t37 -97q0 -26 -10.5 -49t-36.5 -49q-23 -24 -32 -45t-9 -47
q0 -32 19.5 -58.5t83.5 -65.5q74 -45 97.5 -79.5t23.5 -79.5z" />
    <glyph glyph-name="agrave" unicode="&#xe0;" horiz-adv-x="452" 
d="M395 341q0 -66 -18 -175t-43 -200q-15 0 -32 3t-33 8q1 4 2 9.5t4 14.5q3 16 5 23.5t3 13.5q-21 -15 -47.5 -23t-56.5 -8q-68 0 -110 36.5t-42 96.5q0 65 55 99t162 34q16 0 31 -0.5t40 -1.5q1 10 1 22v38q0 80 -19.5 116t-64.5 36q-46 0 -77 -40.5t-33 -102.5
q-28 4 -45 13.5t-26 25.5q12 66 66.5 112t124.5 46q76 0 114.5 -49.5t38.5 -146.5zM106 138q0 -37 24 -58.5t63 -21.5q28 0 53.5 8.5t47.5 25.5q8 41 12.5 73t6.5 64q-103 6 -155 -16.5t-52 -74.5zM251 751q4 -40 13.5 -81.5t26.5 -88.5q-18 -4 -29.5 -5.5t-22.5 -2.5
q-28 48 -43.5 90t-20.5 83q14 5 36 6.5t40 -1.5z" />
    <glyph glyph-name="aacute" unicode="&#xe1;" horiz-adv-x="452" 
d="M395 341q0 -66 -18 -175t-43 -200q-15 0 -32 3t-33 8q1 4 2 9.5t4 14.5q3 16 5 23.5t3 13.5q-21 -15 -47.5 -23t-56.5 -8q-68 0 -110 36.5t-42 96.5q0 65 55 99t162 34q16 0 31 -0.5t40 -1.5q1 10 1 22v38q0 80 -19.5 116t-64.5 36q-46 0 -77 -40.5t-33 -102.5
q-28 4 -45 13.5t-26 25.5q12 66 66.5 112t124.5 46q76 0 114.5 -49.5t38.5 -146.5zM106 138q0 -37 24 -58.5t63 -21.5q28 0 53.5 8.5t47.5 25.5q8 41 12.5 73t6.5 64q-103 6 -155 -16.5t-52 -74.5zM328 746q-5 -43 -21 -85.5t-43 -87.5q-12 0 -24 2t-28 6q17 46 26.5 87.5
t13.5 81.5q18 2 39 1t37 -5z" />
    <glyph glyph-name="acircumflex" unicode="&#xe2;" horiz-adv-x="452" 
d="M395 341q0 -66 -18 -175t-43 -200q-15 0 -32 3t-33 8q1 4 2 9.5t4 14.5q3 16 5 23.5t3 13.5q-21 -15 -47.5 -23t-56.5 -8q-68 0 -110 36.5t-42 96.5q0 65 55 99t162 34q16 0 31 -0.5t40 -1.5q1 10 1 22v38q0 80 -19.5 116t-64.5 36q-46 0 -77 -40.5t-33 -102.5
q-28 4 -45 13.5t-26 25.5q12 66 66.5 112t124.5 46q76 0 114.5 -49.5t38.5 -146.5zM106 138q0 -37 24 -58.5t63 -21.5q28 0 53.5 8.5t47.5 25.5q8 41 12.5 73t6.5 64q-103 6 -155 -16.5t-52 -74.5zM378 597q-12 -12 -21 -18t-20 -11q-31 23 -51 42.5t-37 43.5
q-16 -24 -36.5 -44t-51.5 -43q-11 5 -20.5 12t-19.5 17q40 36 61 63.5t38 64.5q5 1 13 2t16 1q5 0 13 -0.5t16 -1.5q14 -33 34.5 -60t65.5 -68z" />
    <glyph glyph-name="atilde" unicode="&#xe3;" horiz-adv-x="452" 
d="M395 341q0 -66 -18 -175t-43 -200q-15 0 -32 3t-33 8q1 4 2 9.5t4 14.5q3 16 5 23.5t3 13.5q-21 -15 -47.5 -23t-56.5 -8q-68 0 -110 36.5t-42 96.5q0 65 55 99t162 34q16 0 31 -0.5t40 -1.5q1 10 1 22v38q0 80 -19.5 116t-64.5 36q-46 0 -77 -40.5t-33 -102.5
q-28 4 -45 13.5t-26 25.5q12 66 66.5 112t124.5 46q76 0 114.5 -49.5t38.5 -146.5zM106 138q0 -37 24 -58.5t63 -21.5q28 0 53.5 8.5t47.5 25.5q8 41 12.5 73t6.5 64q-103 6 -155 -16.5t-52 -74.5zM249 664q16 -9 24 -11.5t15 -2.5q15 0 20 9t4 29q13 1 23.5 -1t22.5 -8
q3 -41 -13 -62.5t-49 -21.5q-13 0 -26 4t-33 16q-15 9 -22 11.5t-13 2.5q-13 0 -18.5 -9t-4.5 -27q-11 -1 -23.5 1t-22.5 6q-3 39 13 61t48 22q12 0 23.5 -3.5t31.5 -15.5z" />
    <glyph glyph-name="adieresis" unicode="&#xe4;" horiz-adv-x="452" 
d="M395 341q0 -66 -18 -175t-43 -200q-15 0 -32 3t-33 8q1 4 2 9.5t4 14.5q3 16 5 23.5t3 13.5q-21 -15 -47.5 -23t-56.5 -8q-68 0 -110 36.5t-42 96.5q0 65 55 99t162 34q16 0 31 -0.5t40 -1.5q1 10 1 22v38q0 80 -19.5 116t-64.5 36q-46 0 -77 -40.5t-33 -102.5
q-28 4 -45 13.5t-26 25.5q12 66 66.5 112t124.5 46q76 0 114.5 -49.5t38.5 -146.5zM106 138q0 -37 24 -58.5t63 -21.5q28 0 53.5 8.5t47.5 25.5q8 41 12.5 73t6.5 64q-103 6 -155 -16.5t-52 -74.5zM214 710q14 -1 24.5 -3.5t19.5 -7.5q-10 -22 -20.5 -52.5t-16.5 -59.5
q-9 -1 -25 -1.5t-38 0.5q-2 8 -2.5 15.5t-0.5 15.5q0 21 4.5 45.5t12.5 40.5q11 5 20 6.5t22 0.5zM340 710q14 -1 24.5 -3.5t19.5 -7.5q-10 -22 -20.5 -52.5t-16.5 -59.5q-9 -1 -25 -1.5t-38 0.5q-2 8 -2.5 15.5t-0.5 15.5q0 21 4.5 45.5t12.5 40.5q11 5 20 6.5t22 0.5z" />
    <glyph glyph-name="aring" unicode="&#xe5;" horiz-adv-x="452" 
d="M395 341q0 -66 -18 -175t-43 -200q-15 0 -32 3t-33 8q1 4 2 9.5t4 14.5q3 16 5 23.5t3 13.5q-21 -15 -47.5 -23t-56.5 -8q-68 0 -110 36.5t-42 96.5q0 65 55 99t162 34q16 0 31 -0.5t40 -1.5q1 10 1 22v38q0 80 -19.5 116t-64.5 36q-46 0 -77 -40.5t-33 -102.5
q-28 4 -45 13.5t-26 25.5q12 66 66.5 112t124.5 46q76 0 114.5 -49.5t38.5 -146.5zM106 138q0 -37 24 -58.5t63 -21.5q28 0 53.5 8.5t47.5 25.5q8 41 12.5 73t6.5 64q-103 6 -155 -16.5t-52 -74.5zM156 663q0 46 29 73t78 27q40 0 63.5 -21.5t23.5 -58.5q0 -50 -28 -79
t-76 -29q-39 0 -64.5 25t-25.5 63zM293 676q0 25 -10 39t-27 14q-20 0 -32.5 -18t-12.5 -48q0 -23 11.5 -37t28.5 -14q19 0 30.5 17.5t11.5 46.5z" />
    <glyph glyph-name="ae" unicode="&#xe6;" horiz-adv-x="717" 
d="M401 308q29 -10 63 -15.5t70 -5.5q10 0 23.5 1t20.5 3q7 26 10.5 51.5t3.5 46.5q0 44 -14.5 62.5t-46.5 18.5q-41 0 -76.5 -45t-53.5 -117zM624 165q16 -3 32.5 -12t28.5 -21q-19 -58 -77.5 -103t-121.5 -45q-49 0 -85.5 25t-59.5 72q-34 -40 -75.5 -59.5t-94.5 -19.5
q-66 0 -105 35t-39 94q0 66 56 101.5t161 35.5q17 0 32.5 -0.5t39.5 -1.5q1 20 0.5 43.5t-0.5 25.5q0 75 -19.5 109t-64.5 34q-46 0 -77 -40.5t-33 -102.5q-27 4 -44.5 13t-26.5 25q12 66 67 112.5t124 46.5q50 0 85 -29t50 -84q34 52 75.5 79t86.5 27q58 0 92 -38t34 -101
q0 -35 -6.5 -70t-17.5 -64q-21 -8 -50.5 -11.5t-68.5 -3.5q-33 0 -66.5 6t-63.5 17q-2 -12 -2.5 -23.5t-0.5 -22.5q0 -79 27.5 -127.5t74.5 -48.5q40 0 79.5 37.5t53.5 89.5zM106 129q0 -36 20.5 -56t58.5 -20q40 0 77 16t66 46q-7 24 -10.5 49.5t-3.5 52.5v3.5v3.5
q-102 7 -155 -17.5t-53 -77.5z" />
    <glyph glyph-name="ccedilla" unicode="&#xe7;" horiz-adv-x="424" 
d="M312 -134q0 -44 -30.5 -69.5t-81.5 -25.5q-38 0 -64 18.5t-39 55.5q20 12 24.5 14.5t18.5 8.5q8 -23 23 -36.5t35 -13.5q22 0 34.5 12t12.5 32q0 17 -12.5 28.5t-32.5 11.5q-8 0 -16.5 -2t-17.5 -7q-8 6 -15.5 13.5t-10.5 12.5q9 15 15.5 29.5t10.5 29.5q-67 10 -103 68
t-36 154q0 147 60 245t152 98q70 0 109 -46t39 -127q-17 -8 -36 -12t-40 -4q0 68 -18.5 102t-54.5 34q-55 0 -95 -86.5t-40 -198.5q0 -81 27.5 -128t77.5 -47q38 0 70.5 31.5t57.5 91.5q15 -5 27 -13.5t21 -19.5q-15 -54 -62 -95t-105 -48q-3 -10 -6 -18.5t-7 -16.5
q9 1 13 1.5t8 0.5q39 0 63 -21.5t24 -56.5z" />
    <glyph glyph-name="egrave" unicode="&#xe8;" horiz-adv-x="435" 
d="M119 313q29 -10 62.5 -15.5t70.5 -5.5q10 0 23.5 1t19.5 3q8 29 11.5 53.5t3.5 44.5q0 44 -14.5 63t-46.5 19q-42 0 -77 -45t-53 -118zM342 170q16 -3 32.5 -12t28.5 -21q-19 -57 -77.5 -102.5t-121.5 -45.5q-81 0 -127.5 63t-46.5 169q0 119 66.5 214t158.5 95
q59 0 93.5 -37.5t34.5 -101.5q0 -34 -6.5 -68.5t-17.5 -65.5q-20 -7 -48.5 -10.5t-70.5 -3.5q-32 0 -65.5 5.5t-64.5 16.5q-2 -12 -2.5 -23.5t-0.5 -22.5q0 -79 27.5 -127.5t73.5 -48.5q40 0 80 37.5t54 89.5zM263 750q4 -40 13.5 -81.5t26.5 -88.5q-18 -4 -29.5 -5.5
t-22.5 -2.5q-28 48 -43.5 90t-20.5 83q14 5 36 6.5t40 -1.5z" />
    <glyph glyph-name="eacute" unicode="&#xe9;" horiz-adv-x="435" 
d="M119 313q29 -10 62.5 -15.5t70.5 -5.5q10 0 23.5 1t19.5 3q8 29 11.5 53.5t3.5 44.5q0 44 -14.5 63t-46.5 19q-42 0 -77 -45t-53 -118zM342 170q16 -3 32.5 -12t28.5 -21q-19 -57 -77.5 -102.5t-121.5 -45.5q-81 0 -127.5 63t-46.5 169q0 119 66.5 214t158.5 95
q59 0 93.5 -37.5t34.5 -101.5q0 -34 -6.5 -68.5t-17.5 -65.5q-20 -7 -48.5 -10.5t-70.5 -3.5q-32 0 -65.5 5.5t-64.5 16.5q-2 -12 -2.5 -23.5t-0.5 -22.5q0 -79 27.5 -127.5t73.5 -48.5q40 0 80 37.5t54 89.5zM358 744q-5 -43 -21 -85.5t-43 -87.5q-12 0 -24 2t-28 6
q17 46 26.5 87.5t13.5 81.5q18 2 39 1t37 -5z" />
    <glyph glyph-name="ecircumflex" unicode="&#xea;" horiz-adv-x="435" 
d="M119 313q29 -10 62.5 -15.5t70.5 -5.5q10 0 23.5 1t19.5 3q8 29 11.5 53.5t3.5 44.5q0 44 -14.5 63t-46.5 19q-42 0 -77 -45t-53 -118zM342 170q16 -3 32.5 -12t28.5 -21q-19 -57 -77.5 -102.5t-121.5 -45.5q-81 0 -127.5 63t-46.5 169q0 119 66.5 214t158.5 95
q59 0 93.5 -37.5t34.5 -101.5q0 -34 -6.5 -68.5t-17.5 -65.5q-20 -7 -48.5 -10.5t-70.5 -3.5q-32 0 -65.5 5.5t-64.5 16.5q-2 -12 -2.5 -23.5t-0.5 -22.5q0 -79 27.5 -127.5t73.5 -48.5q40 0 80 37.5t54 89.5zM404 597q-12 -12 -21 -18t-20 -11q-31 23 -51 42.5t-37 43.5
q-16 -24 -36.5 -44t-51.5 -43q-11 5 -20.5 12t-19.5 17q40 36 61 63.5t38 64.5q5 1 13 2t16 1q5 0 13 -0.5t16 -1.5q14 -33 34.5 -60t65.5 -68z" />
    <glyph glyph-name="edieresis" unicode="&#xeb;" horiz-adv-x="435" 
d="M119 313q29 -10 62.5 -15.5t70.5 -5.5q10 0 23.5 1t19.5 3q8 29 11.5 53.5t3.5 44.5q0 44 -14.5 63t-46.5 19q-42 0 -77 -45t-53 -118zM342 170q16 -3 32.5 -12t28.5 -21q-19 -57 -77.5 -102.5t-121.5 -45.5q-81 0 -127.5 63t-46.5 169q0 119 66.5 214t158.5 95
q59 0 93.5 -37.5t34.5 -101.5q0 -34 -6.5 -68.5t-17.5 -65.5q-20 -7 -48.5 -10.5t-70.5 -3.5q-32 0 -65.5 5.5t-64.5 16.5q-2 -12 -2.5 -23.5t-0.5 -22.5q0 -79 27.5 -127.5t73.5 -48.5q40 0 80 37.5t54 89.5zM241 700q14 -1 24.5 -3.5t19.5 -7.5q-10 -22 -20.5 -52.5
t-16.5 -59.5q-9 -1 -25 -1.5t-38 0.5q-2 8 -2.5 15.5t-0.5 15.5q0 21 4.5 45.5t12.5 40.5q11 5 20 6.5t22 0.5zM367 700q14 -1 24.5 -3.5t19.5 -7.5q-10 -22 -20.5 -52.5t-16.5 -59.5q-9 -1 -25 -1.5t-38 0.5q-2 8 -2.5 15.5t-0.5 15.5q0 21 4.5 45.5t12.5 40.5q11 5 20 6.5
t22 0.5z" />
    <glyph glyph-name="igrave" unicode="&#xec;" horiz-adv-x="206" 
d="M76 498q12 7 24.5 10.5t26.5 3.5q8 0 14.5 -1t13.5 -3q-20 -105 -28 -246t0 -263q-7 -4 -18 -6t-22 -2q-5 0 -9.5 0.5t-10.5 1.5q-17 119 -14 259t23 246zM109 724q4 -40 13.5 -81.5t26.5 -88.5q-18 -4 -29.5 -5.5t-22.5 -2.5q-28 48 -43.5 90t-20.5 83q14 5 36 6.5
t40 -1.5z" />
    <glyph glyph-name="iacute" unicode="&#xed;" horiz-adv-x="206" 
d="M76 498q12 7 24.5 10.5t26.5 3.5q8 0 14.5 -1t13.5 -3q-20 -105 -28 -246t0 -263q-7 -4 -18 -6t-22 -2q-5 0 -9.5 0.5t-10.5 1.5q-17 119 -14 259t23 246zM209 719q-5 -43 -21 -85.5t-43 -87.5q-12 0 -24 2t-28 6q17 46 26.5 87.5t13.5 81.5q18 2 39 1t37 -5z" />
    <glyph glyph-name="icircumflex" unicode="&#xee;" horiz-adv-x="206" 
d="M76 498q12 7 24.5 10.5t26.5 3.5q8 0 14.5 -1t13.5 -3q-20 -105 -28 -246t0 -263q-7 -4 -18 -6t-22 -2q-5 0 -9.5 0.5t-10.5 1.5q-17 119 -14 259t23 246zM257 579q-12 -12 -21 -18t-20 -11q-31 23 -51 42.5t-37 43.5q-16 -24 -36.5 -44t-51.5 -43q-11 5 -20.5 12
t-19.5 17q40 36 61 63.5t38 64.5q5 1 13 2t16 1q5 0 13 -0.5t16 -1.5q14 -33 34.5 -60t65.5 -68z" />
    <glyph glyph-name="idieresis" unicode="&#xef;" horiz-adv-x="206" 
d="M76 498q12 7 24.5 10.5t26.5 3.5q8 0 14.5 -1t13.5 -3q-20 -105 -28 -246t0 -263q-7 -4 -18 -6t-22 -2q-5 0 -9.5 0.5t-10.5 1.5q-17 119 -14 259t23 246zM89 694q14 -1 24.5 -3.5t19.5 -7.5q-10 -22 -20.5 -52.5t-16.5 -59.5q-9 -1 -25 -1.5t-38 0.5q-2 8 -2.5 15.5
t-0.5 15.5q0 21 4.5 45.5t12.5 40.5q11 5 20 6.5t22 0.5zM215 694q14 -1 24.5 -3.5t19.5 -7.5q-10 -22 -20.5 -52.5t-16.5 -59.5q-9 -1 -25 -1.5t-38 0.5q-2 8 -2.5 15.5t-0.5 15.5q0 21 4.5 45.5t12.5 40.5q11 5 20 6.5t22 0.5z" />
    <glyph glyph-name="eth" unicode="&#xf0;" horiz-adv-x="461" 
d="M393 -33q-12 -4 -28.5 -6.5t-28.5 -2.5q-3 32 -5 64.5t-3 64.5q-19 -60 -50 -88.5t-78 -28.5q-77 0 -122 72t-45 191q0 131 59.5 209.5t158.5 78.5q16 0 33 -2t31 -6q-1 11 -1 24v39q-29 -1 -62.5 0.5t-77.5 5.5q0 25 0.5 35.5t1.5 17.5q35 -4 68.5 -5.5t68.5 -1.5v44v44
q9 5 23 8t27 3q8 0 17 -1.5t20 -3.5q-2 -23 -3 -46t-2 -45q21 1 45 4t62 9q1 -10 0.5 -23.5t-2.5 -28.5q-24 -4 -50.5 -7t-56.5 -6q-1 -53 -2 -120.5t-1 -336.5q0 -45 0.5 -78.5t2.5 -76.5zM109 244q0 -103 27 -159.5t75 -56.5q43 0 72 50t39 145q-2 56 -3.5 116t-2.5 121
q-12 4 -26 5.5t-30 1.5q-68 0 -109.5 -59.5t-41.5 -163.5z" />
    <glyph glyph-name="ntilde" unicode="&#xf1;" horiz-adv-x="461" 
d="M126 167q0 -47 2 -106.5t5 -86.5q-13 -4 -31 -7t-35 -3q-7 105 -12 272t-5 283q10 5 24 8t29 3q10 0 19.5 -1t19.5 -3q-2 -18 -4.5 -57.5t-3.5 -51.5q33 55 70 82t78 27q62 0 90.5 -45.5t28.5 -142.5q0 -78 -12.5 -175t-26.5 -152q-16 1 -35.5 4.5t-35.5 8.5
q18 98 26 174t8 143q0 63 -15.5 91t-50.5 28t-69.5 -35t-59.5 -96q-2 -72 -3 -105t-1 -57zM246 661q16 -9 24 -11.5t15 -2.5q15 0 20 9t4 29q13 1 23.5 -1t22.5 -8q3 -41 -13 -62.5t-49 -21.5q-13 0 -26 4t-33 16q-15 9 -22 11.5t-13 2.5q-13 0 -18.5 -9t-4.5 -27
q-11 -1 -23.5 1t-22.5 6q-3 39 13 61t48 22q12 0 23.5 -3.5t31.5 -15.5z" />
    <glyph glyph-name="ograve" unicode="&#xf2;" horiz-adv-x="449" 
d="M30 242q0 130 59.5 212t153.5 82q77 0 122 -58.5t45 -157.5q0 -145 -56.5 -237.5t-149.5 -92.5q-80 0 -127 69.5t-47 182.5zM330 278q0 102 -26 152t-79 50q-48 0 -83.5 -66t-35.5 -162q0 -88 30 -147.5t81 -59.5q45 0 79 68.5t34 164.5zM233 745q4 -40 13.5 -81.5
t26.5 -88.5q-18 -4 -29.5 -5.5t-22.5 -2.5q-28 48 -43.5 90t-20.5 83q14 5 36 6.5t40 -1.5z" />
    <glyph glyph-name="oacute" unicode="&#xf3;" horiz-adv-x="449" 
d="M30 242q0 130 59.5 212t153.5 82q77 0 122 -58.5t45 -157.5q0 -145 -56.5 -237.5t-149.5 -92.5q-80 0 -127 69.5t-47 182.5zM330 278q0 102 -26 152t-79 50q-48 0 -83.5 -66t-35.5 -162q0 -88 30 -147.5t81 -59.5q45 0 79 68.5t34 164.5zM313 739q-5 -43 -21 -85.5
t-43 -87.5q-12 0 -24 2t-28 6q17 46 26.5 87.5t13.5 81.5q18 2 39 1t37 -5z" />
    <glyph glyph-name="ocircumflex" unicode="&#xf4;" horiz-adv-x="449" 
d="M30 242q0 130 59.5 212t153.5 82q77 0 122 -58.5t45 -157.5q0 -145 -56.5 -237.5t-149.5 -92.5q-80 0 -127 69.5t-47 182.5zM330 278q0 102 -26 152t-79 50q-48 0 -83.5 -66t-35.5 -162q0 -88 30 -147.5t81 -59.5q45 0 79 68.5t34 164.5zM371 608q-12 -12 -21 -18
t-20 -11q-31 23 -51 42.5t-37 43.5q-16 -24 -36.5 -44t-51.5 -43q-11 5 -20.5 12t-19.5 17q40 36 61 63.5t38 64.5q5 1 13 2t16 1q5 0 13 -0.5t16 -1.5q14 -33 34.5 -60t65.5 -68z" />
    <glyph glyph-name="otilde" unicode="&#xf5;" horiz-adv-x="449" 
d="M30 242q0 130 59.5 212t153.5 82q77 0 122 -58.5t45 -157.5q0 -145 -56.5 -237.5t-149.5 -92.5q-80 0 -127 69.5t-47 182.5zM330 278q0 102 -26 152t-79 50q-48 0 -83.5 -66t-35.5 -162q0 -88 30 -147.5t81 -59.5q45 0 79 68.5t34 164.5zM254 660q16 -9 24 -11.5t15 -2.5
q15 0 20 9t4 29q13 1 23.5 -1t22.5 -8q3 -41 -13 -62.5t-49 -21.5q-13 0 -26 4t-33 16q-15 9 -22 11.5t-13 2.5q-13 0 -18.5 -9t-4.5 -27q-11 -1 -23.5 1t-22.5 6q-3 39 13 61t48 22q12 0 23.5 -3.5t31.5 -15.5z" />
    <glyph glyph-name="odieresis" unicode="&#xf6;" horiz-adv-x="449" 
d="M30 242q0 130 59.5 212t153.5 82q77 0 122 -58.5t45 -157.5q0 -145 -56.5 -237.5t-149.5 -92.5q-80 0 -127 69.5t-47 182.5zM330 278q0 102 -26 152t-79 50q-48 0 -83.5 -66t-35.5 -162q0 -88 30 -147.5t81 -59.5q45 0 79 68.5t34 164.5zM206 723q14 -1 24.5 -3.5
t19.5 -7.5q-10 -22 -20.5 -52.5t-16.5 -59.5q-9 -1 -25 -1.5t-38 0.5q-2 8 -2.5 15.5t-0.5 15.5q0 21 4.5 45.5t12.5 40.5q11 5 20 6.5t22 0.5zM332 723q14 -1 24.5 -3.5t19.5 -7.5q-10 -22 -20.5 -52.5t-16.5 -59.5q-9 -1 -25 -1.5t-38 0.5q-2 8 -2.5 15.5t-0.5 15.5
q0 21 4.5 45.5t12.5 40.5q11 5 20 6.5t22 0.5z" />
    <glyph glyph-name="divide" unicode="&#xf7;" horiz-adv-x="365" 
d="M246 480q-1 -33 -2.5 -50t-4.5 -32q-25 -3 -44.5 -3t-40.5 3q0 1 -2 29.5t-2 49.5q25 5 48.5 6t47.5 -3zM27 295q0 15 1.5 28t4.5 26q70 -8 140 -8.5t164 6.5q0 -13 -1.5 -26t-4.5 -26q-73 -9 -151.5 -9t-152.5 9zM243 234q-1 -32 -2.5 -49t-4.5 -33q-25 -3 -44.5 -3
t-40.5 3q0 1 -2 29.5t-2 49.5q24 5 48 6t48 -3z" />
    <glyph glyph-name="oslash" unicode="&#xf8;" horiz-adv-x="449" 
d="M225 480q-48 0 -83.5 -66t-35.5 -162q0 -30 4 -59t12 -54q43 83 81.5 162t76.5 160q-11 9 -25 14t-30 5zM158 72q13 -14 27.5 -20.5t31.5 -6.5q45 0 79 68.5t34 164.5q0 38 -3 67t-10 51q-38 -84 -77.5 -164.5t-81.5 -159.5zM410 320q0 -145 -56.5 -237.5t-149.5 -92.5
q-22 0 -41.5 5.5t-36.5 16.5q-4 -7 -8.5 -15t-13.5 -25l-13.5 -24t-8.5 -15q-14 4 -26.5 11t-26.5 18l6.5 13t11.5 20l19.5 37.5t12.5 23.5q-24 35 -36.5 83t-12.5 103q0 130 59.5 212t153.5 82q17 0 33.5 -3t32.5 -10q3 6 6 13t10 22q7 17 11 25.5t7 15.5q13 -6 24 -12.5
t25 -18.5q-3 -7 -6.5 -15.5t-10.5 -24.5q-8 -17 -11.5 -25.5t-6.5 -15.5q26 -29 39.5 -71.5t13.5 -95.5z" />
    <glyph glyph-name="ugrave" unicode="&#xf9;" horiz-adv-x="410" 
d="M187 -10q-73 0 -110.5 71t-37.5 209q0 70 11.5 140.5t28.5 101.5q9 3 18 4.5t18 1.5t16.5 -1.5t14.5 -5.5q-15 -48 -23 -110t-8 -134q0 -97 22.5 -159t60.5 -62q47 0 71.5 72t24.5 202q0 40 -4 83.5t-8 60.5q15 7 37 11t42 4q5 -23 7.5 -55t2.5 -65q0 -179 -46.5 -274
t-137.5 -95zM212 701q4 -40 13.5 -81.5t26.5 -88.5q-18 -4 -29.5 -5.5t-22.5 -2.5q-28 48 -43.5 90t-20.5 83q14 5 36 6.5t40 -1.5z" />
    <glyph glyph-name="uacute" unicode="&#xfa;" horiz-adv-x="410" 
d="M187 -10q-73 0 -110.5 71t-37.5 209q0 70 11.5 140.5t28.5 101.5q9 3 18 4.5t18 1.5t16.5 -1.5t14.5 -5.5q-15 -48 -23 -110t-8 -134q0 -97 22.5 -159t60.5 -62q47 0 71.5 72t24.5 202q0 40 -4 83.5t-8 60.5q15 7 37 11t42 4q5 -23 7.5 -55t2.5 -65q0 -179 -46.5 -274
t-137.5 -95zM301 682q-5 -43 -21 -85.5t-43 -87.5q-12 0 -24 2t-28 6q17 46 26.5 87.5t13.5 81.5q18 2 39 1t37 -5z" />
    <glyph glyph-name="ucircumflex" unicode="&#xfb;" horiz-adv-x="410" 
d="M187 -10q-73 0 -110.5 71t-37.5 209q0 70 11.5 140.5t28.5 101.5q9 3 18 4.5t18 1.5t16.5 -1.5t14.5 -5.5q-15 -48 -23 -110t-8 -134q0 -97 22.5 -159t60.5 -62q47 0 71.5 72t24.5 202q0 40 -4 83.5t-8 60.5q15 7 37 11t42 4q5 -23 7.5 -55t2.5 -65q0 -179 -46.5 -274
t-137.5 -95zM347 578q-12 -12 -21 -18t-20 -11q-31 23 -51 42.5t-37 43.5q-16 -24 -36.5 -44t-51.5 -43q-11 5 -20.5 12t-19.5 17q40 36 61 63.5t38 64.5q5 1 13 2t16 1q5 0 13 -0.5t16 -1.5q14 -33 34.5 -60t65.5 -68z" />
    <glyph glyph-name="udieresis" unicode="&#xfc;" horiz-adv-x="410" 
d="M187 -10q-73 0 -110.5 71t-37.5 209q0 70 11.5 140.5t28.5 101.5q9 3 18 4.5t18 1.5t16.5 -1.5t14.5 -5.5q-15 -48 -23 -110t-8 -134q0 -97 22.5 -159t60.5 -62q47 0 71.5 72t24.5 202q0 40 -4 83.5t-8 60.5q15 7 37 11t42 4q5 -23 7.5 -55t2.5 -65q0 -179 -46.5 -274
t-137.5 -95zM187 680q14 -1 24.5 -3.5t19.5 -7.5q-10 -22 -20.5 -52.5t-16.5 -59.5q-9 -1 -25 -1.5t-38 0.5q-2 8 -2.5 15.5t-0.5 15.5q0 21 4.5 45.5t12.5 40.5q11 5 20 6.5t22 0.5zM313 680q14 -1 24.5 -3.5t19.5 -7.5q-10 -22 -20.5 -52.5t-16.5 -59.5q-9 -1 -25 -1.5
t-38 0.5q-2 8 -2.5 15.5t-0.5 15.5q0 21 4.5 45.5t12.5 40.5q11 5 20 6.5t22 0.5z" />
    <glyph glyph-name="yacute" unicode="&#xfd;" horiz-adv-x="438" 
d="M386 194q0 -201 -50.5 -308t-139.5 -107q-60 0 -99 42t-52 118q17 11 34.5 19t36.5 12q11 -73 30.5 -104.5t54.5 -31.5q45 0 72.5 67t33.5 195q-24 -39 -54 -58.5t-65 -19.5q-66 0 -107.5 63t-41.5 166q0 68 9.5 127.5t40.5 156.5q17 -1 36.5 -4.5t34.5 -8.5
q-25 -93 -34 -149t-9 -120q0 -74 25 -120t67 -46q30 0 55 27t45 83q-1 90 -10.5 164t-30.5 140q15 12 38.5 17t45.5 1q15 -62 24.5 -151.5t9.5 -169.5zM308 699q-5 -43 -21 -85.5t-43 -87.5q-12 0 -24 2t-28 6q17 46 26.5 87.5t13.5 81.5q18 2 39 1t37 -5z" />
    <glyph glyph-name="thorn" unicode="&#xfe;" horiz-adv-x="445" 
d="M136 83q11 -11 24.5 -16t28.5 -5q59 0 101.5 83t42.5 207q0 63 -21 99t-57 36q-42 0 -74 -39.5t-51 -114.5q0 -63 1.5 -126.5t4.5 -123.5zM141 16q4 -62 10 -119.5t13 -106.5q-15 -5 -33 -7.5t-35 -2.5q-33 263 -39 523.5t21 428.5q13 8 26.5 12t28.5 4q9 0 16.5 -1
t17.5 -4q-14 -56 -23 -133.5t-12 -172.5q27 58 66.5 88.5t87.5 30.5q58 0 92.5 -54t34.5 -144q0 -149 -65 -248.5t-159 -99.5q-14 0 -26 1.5t-22 4.5z" />
    <glyph glyph-name="ydieresis" unicode="&#xff;" horiz-adv-x="438" 
d="M386 194q0 -201 -50.5 -308t-139.5 -107q-60 0 -99 42t-52 118q17 11 34.5 19t36.5 12q11 -73 30.5 -104.5t54.5 -31.5q45 0 72.5 67t33.5 195q-24 -39 -54 -58.5t-65 -19.5q-66 0 -107.5 63t-41.5 166q0 68 9.5 127.5t40.5 156.5q17 -1 36.5 -4.5t34.5 -8.5
q-25 -93 -34 -149t-9 -120q0 -74 25 -120t67 -46q30 0 55 27t45 83q-1 90 -10.5 164t-30.5 140q15 12 38.5 17t45.5 1q15 -62 24.5 -151.5t9.5 -169.5zM185 677q14 -1 24.5 -3.5t19.5 -7.5q-10 -22 -20.5 -52.5t-16.5 -59.5q-9 -1 -25 -1.5t-38 0.5q-2 8 -2.5 15.5
t-0.5 15.5q0 21 4.5 45.5t12.5 40.5q11 5 20 6.5t22 0.5zM311 677q14 -1 24.5 -3.5t19.5 -7.5q-10 -22 -20.5 -52.5t-16.5 -59.5q-9 -1 -25 -1.5t-38 0.5q-2 8 -2.5 15.5t-0.5 15.5q0 21 4.5 45.5t12.5 40.5q11 5 20 6.5t22 0.5z" />
    <glyph glyph-name="Amacron" unicode="&#x100;" horiz-adv-x="615" 
d="M595 -80q-16 -9 -33 -15t-44 -10q-15 103 -30 181t-31 143q-71 1 -139 -3.5t-127 -13.5q-21 -52 -46.5 -107t-56.5 -116q-19 4 -36 12.5t-33 23.5q89 157 145.5 307.5t109.5 382.5q27 -1 45 -3t35 -6q98 -190 151.5 -363t89.5 -413zM316 611q-24 -105 -48.5 -189.5
t-53.5 -160.5q48 7 105 11.5t123 6.5q-25 88 -55 168t-71 164zM410 765q-62 -7 -112 -5t-83 13q-1 12 0 28.5t3 27.5q49 -9 97.5 -10.5t95.5 4.5q1 -13 1 -26.5t-2 -31.5z" />
    <glyph glyph-name="amacron" unicode="&#x101;" horiz-adv-x="452" 
d="M395 341q0 -66 -18 -175t-43 -200q-15 0 -32 3t-33 8q1 4 2 9.5t4 14.5q3 16 5 23.5t3 13.5q-21 -15 -47.5 -23t-56.5 -8q-68 0 -110 36.5t-42 96.5q0 65 55 99t162 34q16 0 31 -0.5t40 -1.5q1 10 1 22v38q0 80 -19.5 116t-64.5 36q-46 0 -77 -40.5t-33 -102.5
q-28 4 -45 13.5t-26 25.5q12 66 66.5 112t124.5 46q76 0 114.5 -49.5t38.5 -146.5zM106 138q0 -37 24 -58.5t63 -21.5q28 0 53.5 8.5t47.5 25.5q8 41 12.5 73t6.5 64q-103 6 -155 -16.5t-52 -74.5zM348 590q-62 -7 -112 -5t-83 13q-1 12 0 28.5t3 27.5q49 -9 97.5 -10.5
t95.5 4.5q1 -13 1 -26.5t-2 -31.5z" />
    <glyph glyph-name="Abreve" unicode="&#x102;" horiz-adv-x="615" 
d="M595 -80q-16 -9 -33 -15t-44 -10q-15 103 -30 181t-31 143q-71 1 -139 -3.5t-127 -13.5q-21 -52 -46.5 -107t-56.5 -116q-19 4 -36 12.5t-33 23.5q89 157 145.5 307.5t109.5 382.5q27 -1 45 -3t35 -6q98 -190 151.5 -363t89.5 -413zM316 611q-24 -105 -48.5 -189.5
t-53.5 -160.5q48 7 105 11.5t123 6.5q-25 88 -55 168t-71 164zM223 802q-10 15 -14.5 32t-3.5 39q12 4 26 6t28 1q-4 -38 9.5 -54t48.5 -16q34 0 47 18.5t4 53.5q11 3 25.5 3t28.5 -2q2 -26 -1.5 -46.5t-12.5 -36.5q-12 -20 -35 -30t-57 -10q-30 0 -53.5 10.5t-39.5 31.5z
" />
    <glyph glyph-name="abreve" unicode="&#x103;" horiz-adv-x="452" 
d="M395 341q0 -66 -18 -175t-43 -200q-15 0 -32 3t-33 8q1 4 2 9.5t4 14.5q3 16 5 23.5t3 13.5q-21 -15 -47.5 -23t-56.5 -8q-68 0 -110 36.5t-42 96.5q0 65 55 99t162 34q16 0 31 -0.5t40 -1.5q1 10 1 22v38q0 80 -19.5 116t-64.5 36q-46 0 -77 -40.5t-33 -102.5
q-28 4 -45 13.5t-26 25.5q12 66 66.5 112t124.5 46q76 0 114.5 -49.5t38.5 -146.5zM106 138q0 -37 24 -58.5t63 -21.5q28 0 53.5 8.5t47.5 25.5q8 41 12.5 73t6.5 64q-103 6 -155 -16.5t-52 -74.5zM163 616q-10 15 -14.5 32t-3.5 39q12 4 26 6t28 1q-4 -38 9.5 -54t48.5 -16
q34 0 47 18.5t4 53.5q11 3 25.5 3t28.5 -2q2 -26 -1.5 -46.5t-12.5 -36.5q-12 -20 -35 -30t-57 -10q-30 0 -53.5 10.5t-39.5 31.5z" />
    <glyph glyph-name="Aogonek" unicode="&#x104;" horiz-adv-x="615" 
d="M635 -232q-20 -30 -44.5 -44t-55.5 -14q-37 0 -59 20.5t-22 54.5q0 30 15.5 58.5t47.5 55.5q-14 98 -29 176t-31 144q-71 1 -139 -3.5t-127 -13.5q-21 -52 -46.5 -107t-56.5 -116q-19 4 -36 12.5t-33 23.5q89 157 145.5 307.5t109.5 382.5q27 -1 45 -3t35 -6
q98 -190 151.5 -363t89.5 -413q-6 -4 -9 -5.5t-6 -2.5q-33 -30 -48 -56.5t-15 -54.5q0 -19 8.5 -28.5t25.5 -9.5q18 0 32 10.5t27 33.5q8 -7 14 -16t11 -23zM316 611q-24 -105 -48.5 -189.5t-53.5 -160.5q48 7 105 11.5t123 6.5q-25 88 -55 168t-71 164z" />
    <glyph glyph-name="aogonek" unicode="&#x105;" horiz-adv-x="450" 
d="M106 138q0 -37 24 -58.5t63 -21.5q28 0 53.5 8.5t47.5 25.5q8 41 12.5 73t6.5 64q-103 6 -155 -16.5t-52 -74.5zM335 -134q8 -7 14 -16t11 -23q-19 -30 -43.5 -44t-56.5 -14q-37 0 -59 20.5t-22 54.5q0 36 22 69t68 65q1 5 2.5 11.5t4.5 18.5q3 13 4.5 19t2.5 11
q-21 -15 -47.5 -23t-56.5 -8q-68 0 -110 36.5t-42 96.5q0 65 55 99t162 34q16 0 31 -0.5t40 -1.5q1 10 1 22v38q0 80 -19.5 116t-64.5 36q-46 0 -77 -40.5t-33 -102.5q-28 4 -45 13.5t-26 25.5q12 66 66.5 112t124.5 46q76 0 114.5 -49.5t38.5 -146.5q0 -66 -18 -175
t-43 -200q-8 0 -16 1l-16 2q-31 -30 -45.5 -56t-14.5 -53q0 -18 9 -28t25 -10q18 0 32 10.5t27 33.5z" />
    <glyph glyph-name="Cacute" unicode="&#x106;" horiz-adv-x="547" 
d="M424 222q19 1 34.5 -2t30.5 -11q-6 -120 -61 -182t-154 -62q-109 0 -168.5 82t-59.5 234q0 184 76.5 298t200.5 114q87 0 128 -56.5t38 -171.5q-14 -9 -33.5 -13.5t-44.5 -3.5q7 99 -17 143t-85 44q-75 0 -127 -94t-52 -243q0 -133 40 -204t115 -71q68 0 105 53.5
t34 145.5zM406 924q-5 -43 -21 -85.5t-43 -87.5q-12 0 -24 2t-28 6q17 46 26.5 87.5t13.5 81.5q18 2 39 1t37 -5z" />
    <glyph glyph-name="cacute" unicode="&#x107;" horiz-adv-x="424" 
d="M387 368q-16 -8 -35 -11.5t-41 -3.5q0 67 -18.5 101t-54.5 34q-55 0 -95 -86.5t-40 -197.5q0 -81 27.5 -128t77.5 -47q38 0 70.5 31.5t57.5 90.5q15 -5 27 -13t21 -19q-16 -60 -69.5 -102t-119.5 -42q-81 0 -124.5 58.5t-43.5 164.5q0 147 60 245t152 98q70 0 109 -46
t39 -127zM338 736q-5 -43 -21 -85.5t-43 -87.5q-12 0 -24 2t-28 6q17 46 26.5 87.5t13.5 81.5q18 2 39 1t37 -5z" />
    <glyph glyph-name="Ccaron" unicode="&#x10c;" horiz-adv-x="547" 
d="M424 222q19 1 34.5 -2t30.5 -11q-6 -120 -61 -182t-154 -62q-109 0 -168.5 82t-59.5 234q0 184 76.5 298t200.5 114q87 0 128 -56.5t38 -171.5q-14 -9 -33.5 -13.5t-44.5 -3.5q7 99 -17 143t-85 44q-75 0 -127 -94t-52 -243q0 -133 40 -204t115 -71q68 0 105 53.5
t34 145.5zM191 867q12 12 21 18t20 11q31 -23 51 -42.5t37 -43.5q16 24 36.5 44t51.5 43q11 -5 20.5 -12t19.5 -17q-40 -36 -61 -63.5t-38 -64.5q-5 -1 -13 -2t-16 -1q-5 0 -13 0.5t-16 1.5q-14 33 -34.5 60t-65.5 68z" />
    <glyph glyph-name="ccaron" unicode="&#x10d;" horiz-adv-x="424" 
d="M387 368q-16 -8 -35 -11.5t-41 -3.5q0 67 -18.5 101t-54.5 34q-55 0 -95 -86.5t-40 -197.5q0 -81 27.5 -128t77.5 -47q38 0 70.5 31.5t57.5 90.5q15 -5 27 -13t21 -19q-16 -60 -69.5 -102t-119.5 -42q-81 0 -124.5 58.5t-43.5 164.5q0 147 60 245t152 98q70 0 109 -46
t39 -127zM123 696q12 12 21 18t20 11q31 -23 51 -42.5t37 -43.5q16 24 36.5 44t51.5 43q11 -5 20.5 -12t19.5 -17q-40 -36 -61 -63.5t-38 -64.5q-5 -1 -13 -2t-16 -1q-5 0 -13 0.5t-16 1.5q-14 33 -34.5 60t-65.5 68z" />
    <glyph glyph-name="Dcaron" unicode="&#x10e;" horiz-adv-x="576" 
d="M535 444q0 -152 -105 -276t-282 -179q-7 0 -34 3t-34 5q-9 160 -12.5 277.5t-3.5 233.5q0 41 1 86.5t2 80.5q43 21 89 31.5t99 10.5q137 0 208.5 -70t71.5 -203zM152 643q-5 -86 -7.5 -159.5t-2.5 -254.5q0 -52 0.5 -94.5t2.5 -85.5q152 58 230 158.5t78 238.5
q0 104 -54.5 158.5t-158.5 54.5q-22 0 -43.5 -4t-44.5 -12zM132 888q12 12 21 18t20 11q31 -23 51 -42.5t37 -43.5q16 24 36.5 44t51.5 43q11 -5 20.5 -12t19.5 -17q-40 -36 -61 -63.5t-38 -64.5q-5 -1 -13 -2t-16 -1q-5 0 -13 0.5t-16 1.5q-14 33 -34.5 60t-65.5 68z" />
    <glyph glyph-name="dcaron" unicode="&#x10f;" horiz-adv-x="461" 
d="M393 -33q-12 -4 -28.5 -6.5t-28.5 -2.5q-3 32 -5 64.5t-3 64.5q-19 -60 -50 -88.5t-78 -28.5q-77 0 -122 72t-45 191q0 131 59.5 209.5t158.5 78.5q16 0 33 -2t31 -6q-1 94 -1.5 133t-0.5 70q9 5 23 8t27 3q8 0 17 -1.5t20 -3.5q-5 -62 -7.5 -177.5t-2.5 -422.5
q0 -45 0.5 -78.5t2.5 -76.5zM109 244q0 -103 27 -159.5t75 -56.5q44 0 72.5 49.5t38.5 145.5q-2 56 -3.5 116t-2.5 121q-12 4 -26 5.5t-30 1.5q-68 0 -109.5 -59.5t-41.5 -163.5zM545 676q-7 -66 -20.5 -115.5t-37.5 -97.5q-14 1 -26.5 3t-27.5 6q16 53 24.5 103t9.5 106
q19 2 40.5 0.5t37.5 -5.5z" />
    <glyph glyph-name="Dcroat" unicode="&#x110;" horiz-adv-x="576" 
d="M142 345v-58v-58q0 -52 0.5 -94.5t2.5 -85.5q152 58 230 158.5t78 238.5q0 104 -54.5 158.5t-158.5 54.5q-23 0 -45 -4t-43 -11q-5 -76 -7 -134.5t-3 -113.5q36 2 73 5.5t79 10.5q1 -14 0.5 -27t-2.5 -25q-39 -7 -76.5 -10.5t-73.5 -4.5zM535 444q0 -152 -105 -276
t-282 -179q-7 0 -34 3t-34 5q-6 121 -9.5 200.5t-4.5 146.5q-23 1 -46 2.5t-45 3.5q-1 19 -0.5 31.5t2.5 21.5q24 -2 45.5 -3.5t42.5 -2.5q-1 20 -1 42.5v68.5q0 41 1 86.5t2 80.5q44 21 89 31.5t86 10.5q145 0 219 -69t74 -204z" />
    <glyph glyph-name="dcroat" unicode="&#x111;" horiz-adv-x="461" 
d="M393 -33q-12 -4 -28.5 -6.5t-28.5 -2.5q-3 32 -5 64.5t-3 64.5q-19 -60 -50 -88.5t-78 -28.5q-77 0 -122 72t-45 191q0 131 59.5 209.5t158.5 78.5q16 0 33 -2t31 -6q-1 11 -1 24v39q-29 -1 -62.5 0.5t-77.5 5.5q0 25 0.5 35.5t1.5 17.5q35 -4 68.5 -5.5t68.5 -1.5v44v44
q9 5 23 8t27 3q8 0 17 -1.5t20 -3.5q-2 -23 -3 -46t-2 -45q21 1 45 4t62 9q1 -10 0.5 -23.5t-2.5 -28.5q-24 -4 -50.5 -7t-56.5 -6q-1 -53 -2 -120.5t-1 -336.5q0 -45 0.5 -78.5t2.5 -76.5zM109 244q0 -103 27 -159.5t75 -56.5q43 0 72 50t39 145q-2 56 -3.5 116t-2.5 121
q-12 4 -26 5.5t-30 1.5q-68 0 -109.5 -59.5t-41.5 -163.5z" />
    <glyph glyph-name="Emacron" unicode="&#x112;" horiz-adv-x="520" 
d="M480 -13q-79 -12 -165.5 -18.5t-188.5 -9.5q-29 192 -47.5 390.5t-20.5 341.5q139 24 223 33t176 11q0 -18 -1.5 -34.5t-4.5 -30.5q-82 -1 -157.5 -7.5t-148.5 -18.5q-2 -60 0 -124t7 -138q96 17 148.5 24.5t104.5 11.5q4 -14 5.5 -29t0.5 -33q-76 -6 -131.5 -12.5
t-123.5 -17.5q7 -82 15.5 -159t19.5 -147q83 2 151.5 10t132.5 22q4 -14 5.5 -33t-0.5 -32zM349 787q-62 -7 -112 -5t-83 13q-1 12 0 28.5t3 27.5q49 -9 97.5 -10.5t95.5 4.5q1 -13 1 -26.5t-2 -31.5z" />
    <glyph glyph-name="emacron" unicode="&#x113;" horiz-adv-x="435" 
d="M119 313q29 -10 62.5 -15.5t70.5 -5.5q10 0 23.5 1t19.5 3q8 29 11.5 53.5t3.5 44.5q0 44 -14.5 63t-46.5 19q-42 0 -77 -45t-53 -118zM342 170q16 -3 32.5 -12t28.5 -21q-19 -57 -77.5 -102.5t-121.5 -45.5q-81 0 -127.5 63t-46.5 169q0 119 66.5 214t158.5 95
q59 0 93.5 -37.5t34.5 -101.5q0 -34 -6.5 -68.5t-17.5 -65.5q-20 -7 -48.5 -10.5t-70.5 -3.5q-32 0 -65.5 5.5t-64.5 16.5q-2 -12 -2.5 -23.5t-0.5 -22.5q0 -79 27.5 -127.5t73.5 -48.5q40 0 80 37.5t54 89.5zM368 582q-62 -7 -112 -5t-83 13q-1 12 0 28.5t3 27.5
q49 -9 97.5 -10.5t95.5 4.5q1 -13 1 -26.5t-2 -31.5z" />
    <glyph glyph-name="Edotaccent" unicode="&#x116;" horiz-adv-x="520" 
d="M480 -13q-79 -12 -165.5 -18.5t-188.5 -9.5q-29 192 -47.5 390.5t-20.5 341.5q139 24 223 33t176 11q0 -18 -1.5 -34.5t-4.5 -30.5q-82 -1 -157.5 -7.5t-148.5 -18.5q-2 -60 0 -124t7 -138q96 17 148.5 24.5t104.5 11.5q4 -14 5.5 -29t0.5 -33q-76 -6 -131.5 -12.5
t-123.5 -17.5q7 -82 15.5 -159t19.5 -147q83 2 151.5 10t132.5 22q4 -14 5.5 -33t-0.5 -32zM281 901q14 -1 24.5 -3.5t19.5 -7.5q-10 -22 -20.5 -52.5t-16.5 -59.5q-9 -1 -25 -1.5t-38 0.5q-2 8 -2.5 15.5t-0.5 15.5q0 21 4.5 45.5t12.5 40.5q11 5 20 6.5t22 0.5z" />
    <glyph glyph-name="edotaccent" unicode="&#x117;" horiz-adv-x="435" 
d="M119 313q29 -10 62.5 -15.5t70.5 -5.5q10 0 23.5 1t19.5 3q8 29 11.5 53.5t3.5 44.5q0 44 -14.5 63t-46.5 19q-42 0 -77 -45t-53 -118zM342 170q16 -3 32.5 -12t28.5 -21q-19 -57 -77.5 -102.5t-121.5 -45.5q-81 0 -127.5 63t-46.5 169q0 119 66.5 214t158.5 95
q59 0 93.5 -37.5t34.5 -101.5q0 -34 -6.5 -68.5t-17.5 -65.5q-20 -7 -48.5 -10.5t-70.5 -3.5q-32 0 -65.5 5.5t-64.5 16.5q-2 -12 -2.5 -23.5t-0.5 -22.5q0 -79 27.5 -127.5t73.5 -48.5q40 0 80 37.5t54 89.5zM305 682q14 -1 24.5 -3.5t19.5 -7.5q-10 -22 -20.5 -52.5
t-16.5 -59.5q-9 -1 -25 -1.5t-38 0.5q-2 8 -2.5 15.5t-0.5 15.5q0 21 4.5 45.5t12.5 40.5q11 5 20 6.5t22 0.5z" />
    <glyph glyph-name="Eogonek" unicode="&#x118;" horiz-adv-x="520" 
d="M532 -161q-20 -30 -44.5 -43.5t-56.5 -13.5q-37 0 -59 20.5t-22 54.5q0 33 19 63.5t57 59.5q-64 -8 -135.5 -13t-164.5 -8q-29 192 -47.5 390.5t-20.5 341.5q139 24 223 33t176 11q0 -18 -1.5 -34.5t-4.5 -30.5q-82 -1 -157.5 -7.5t-148.5 -18.5q-2 -60 0 -124t7 -138
q96 17 148.5 24.5t104.5 11.5q4 -14 5.5 -29t0.5 -33q-76 -6 -131.5 -12.5t-123.5 -17.5q7 -82 15.5 -159t19.5 -147q83 2 151.5 10t132.5 22q4 -14 5.5 -33t-0.5 -32q-34 -31 -50 -58.5t-16 -55.5q0 -19 8.5 -28.5t25.5 -9.5q19 0 33 10.5t26 33.5q9 -8 15 -17.5t10 -22.5z
" />
    <glyph glyph-name="eogonek" unicode="&#x119;" horiz-adv-x="435" 
d="M119 308q29 -10 62.5 -15.5t70.5 -5.5q10 0 23.5 1t19.5 3q8 29 11.5 53.5t3.5 44.5q0 44 -14.5 62.5t-46.5 18.5q-42 0 -77 -45t-53 -117zM361 -76q8 -7 14 -16t11 -23q-18 -27 -42.5 -41t-55.5 -14q-38 0 -60.5 21.5t-22.5 57.5q0 21 7.5 39.5t23.5 37.5
q-15 -1 -21 -1.5t-11 -0.5q-81 0 -127.5 63t-46.5 169q0 118 66.5 213.5t158.5 95.5q59 0 93.5 -38t34.5 -101q0 -35 -6.5 -70t-17.5 -64q-21 -8 -50.5 -11.5t-68.5 -3.5q-33 0 -66.5 6t-63.5 17q-2 -12 -2.5 -23.5t-0.5 -22.5q0 -79 27.5 -127.5t73.5 -48.5q40 0 80 37.5
t54 89.5q16 -3 32.5 -12t28.5 -21q-14 -35 -32.5 -59.5t-48.5 -47.5q-26 -18 -40 -45t-14 -55q0 -20 9.5 -32.5t24.5 -12.5q19 0 33 10.5t26 33.5z" />
    <glyph glyph-name="Ecaron" unicode="&#x11a;" horiz-adv-x="520" 
d="M480 -13q-79 -12 -165.5 -18.5t-188.5 -9.5q-29 192 -47.5 390.5t-20.5 341.5q139 24 223 33t176 11q0 -18 -1.5 -34.5t-4.5 -30.5q-82 -1 -157.5 -7.5t-148.5 -18.5q-2 -60 0 -124t7 -138q96 17 148.5 24.5t104.5 11.5q4 -14 5.5 -29t0.5 -33q-76 -6 -131.5 -12.5
t-123.5 -17.5q7 -82 15.5 -159t19.5 -147q83 2 151.5 10t132.5 22q4 -14 5.5 -33t-0.5 -32zM128 904q12 12 21 18t20 11q31 -23 51 -42.5t37 -43.5q16 24 36.5 44t51.5 43q11 -5 20.5 -12t19.5 -17q-40 -36 -61 -63.5t-38 -64.5q-5 -1 -13 -2t-16 -1q-5 0 -13 0.5t-16 1.5
q-14 33 -34.5 60t-65.5 68z" />
    <glyph glyph-name="ecaron" unicode="&#x11b;" horiz-adv-x="435" 
d="M119 313q29 -10 62.5 -15.5t70.5 -5.5q10 0 23.5 1t19.5 3q8 29 11.5 53.5t3.5 44.5q0 44 -14.5 63t-46.5 19q-42 0 -77 -45t-53 -118zM342 170q16 -3 32.5 -12t28.5 -21q-19 -57 -77.5 -102.5t-121.5 -45.5q-81 0 -127.5 63t-46.5 169q0 119 66.5 214t158.5 95
q59 0 93.5 -37.5t34.5 -101.5q0 -34 -6.5 -68.5t-17.5 -65.5q-20 -7 -48.5 -10.5t-70.5 -3.5q-32 0 -65.5 5.5t-64.5 16.5q-2 -12 -2.5 -23.5t-0.5 -22.5q0 -79 27.5 -127.5t73.5 -48.5q40 0 80 37.5t54 89.5zM141 694q12 12 21 18t20 11q31 -23 51 -42.5t37 -43.5
q16 24 36.5 44t51.5 43q11 -5 20.5 -12t19.5 -17q-40 -36 -61 -63.5t-38 -64.5q-5 -1 -13 -2t-16 -1q-5 0 -13 0.5t-16 1.5q-14 33 -34.5 60t-65.5 68z" />
    <glyph glyph-name="Gbreve" unicode="&#x11e;" horiz-adv-x="568" 
d="M486 348q-2 -97 11 -186.5t41 -182.5q-12 -3 -28 -5t-33 -3q-14 35 -25 69.5t-20 70.5q-35 -68 -81.5 -100t-108.5 -32q-90 0 -143 86t-53 234q0 189 72 307t190 118q81 0 127 -63t46 -171q-19 -5 -38.5 -8t-41.5 -4q-2 93 -30.5 140.5t-81.5 47.5q-70 0 -115.5 -97
t-45.5 -246q0 -133 34.5 -206.5t96.5 -73.5q53 0 92.5 42t61.5 122q-4 29 -7.5 61.5t-5.5 70.5q18 4 40.5 6.5t45.5 2.5zM198 807q-10 15 -14.5 32t-3.5 39q12 4 26 6t28 1q-4 -38 9.5 -54t48.5 -16q34 0 47 18.5t4 53.5q11 3 25.5 3t28.5 -2q2 -26 -1.5 -46.5t-12.5 -36.5
q-12 -20 -35 -30t-57 -10q-30 0 -53.5 10.5t-39.5 31.5z" />
    <glyph glyph-name="gbreve" unicode="&#x11f;" horiz-adv-x="452" 
d="M123 257q0 -91 26 -143t69 -52q33 0 56.5 33.5t40.5 104.5q-2 75 -10.5 137.5t-24.5 116.5q-9 3 -19.5 4.5t-21.5 1.5q-58 0 -87 -50.5t-29 -152.5zM393 169q0 -202 -53 -309t-146 -107q-64 0 -106 43t-53 117q15 11 33.5 19t37.5 12q10 -71 32 -103t61 -32q50 0 80 70.5
t36 205.5q-20 -41 -46.5 -61t-61.5 -20q-76 0 -120.5 67.5t-44.5 182.5q0 122 54.5 192.5t146.5 70.5q29 0 59.5 -7t56.5 -20q15 -65 24.5 -154.5t9.5 -166.5zM123 590q-10 15 -14.5 32t-3.5 39q12 4 26 6t28 1q-4 -38 9.5 -54t48.5 -16q34 0 47 18.5t4 53.5q11 3 25.5 3
t28.5 -2q2 -26 -1.5 -46.5t-12.5 -36.5q-12 -20 -35 -30t-57 -10q-30 0 -53.5 10.5t-39.5 31.5z" />
    <glyph glyph-name="uni0122" unicode="&#x122;" horiz-adv-x="568" 
d="M486 348q-2 -97 11 -186.5t41 -182.5q-12 -3 -28 -5t-33 -3q-14 35 -25 69.5t-20 70.5q-35 -68 -81.5 -100t-108.5 -32q-90 0 -143 86t-53 234q0 189 72 307t190 118q81 0 127 -63t46 -171q-19 -5 -38.5 -8t-41.5 -4q-2 93 -30.5 140.5t-81.5 47.5q-70 0 -115.5 -97
t-45.5 -246q0 -133 34.5 -206.5t96.5 -73.5q53 0 92.5 42t61.5 122q-4 29 -7.5 61.5t-5.5 70.5q18 4 40.5 6.5t45.5 2.5zM234 -64q18 4 32.5 5t31.5 -1q2 -46 -7 -95t-30 -98q-15 1 -27 3t-23 7q14 48 19.5 90.5t3.5 88.5z" />
    <glyph glyph-name="uni0123" unicode="&#x123;" horiz-adv-x="452" 
d="M123 257q0 -91 26 -143t69 -52q33 0 56.5 33.5t40.5 104.5q-2 75 -10.5 137.5t-24.5 116.5q-9 3 -19.5 4.5t-21.5 1.5q-58 0 -87 -50.5t-29 -152.5zM393 169q0 -202 -53 -309t-146 -107q-64 0 -106 43t-53 117q15 11 33.5 19t37.5 12q10 -71 32 -103t61 -32q50 0 80 70.5
t36 205.5q-20 -41 -46.5 -61t-61.5 -20q-76 0 -120.5 67.5t-44.5 182.5q0 122 54.5 192.5t146.5 70.5q29 0 59.5 -7t56.5 -20q15 -65 24.5 -154.5t9.5 -166.5zM249 581q-18 -3 -34.5 -3.5t-32.5 0.5q-2 46 7.5 96.5t30.5 99.5q15 -1 27.5 -3.5t23.5 -6.5q-14 -49 -19 -93
t-3 -90z" />
    <glyph glyph-name="Imacron" unicode="&#x12a;" horiz-adv-x="235" 
d="M156 487q0 -224 -1.5 -316.5t-5.5 -190.5q-10 -3 -28 -5t-38 -3q2 199 -2 373t-15 322q12 7 25.5 10t27.5 3q8 0 15.5 -0.5t16.5 -2.5q3 -42 4 -86t1 -104zM204 777q-62 -7 -112 -5t-83 13q-1 12 0 28.5t3 27.5q49 -9 97.5 -10.5t95.5 4.5q1 -13 1 -26.5t-2 -31.5z" />
    <glyph glyph-name="imacron" unicode="&#x12b;" horiz-adv-x="206" 
d="M76 498q12 7 24.5 10.5t26.5 3.5q8 0 14.5 -1t13.5 -3q-20 -105 -28 -246t0 -263q-7 -4 -18 -6t-22 -2q-5 0 -9.5 0.5t-10.5 1.5q-17 119 -14 259t23 246zM246 583q-62 -7 -112 -5t-83 13q-1 12 0 28.5t3 27.5q49 -9 97.5 -10.5t95.5 4.5q1 -13 1 -26.5t-2 -31.5z" />
    <glyph glyph-name="Iogonek" unicode="&#x12e;" horiz-adv-x="235" 
d="M196 -169q-20 -30 -44 -43.5t-56 -13.5q-37 0 -59 20.5t-22 54.5q0 33 19 63.5t57 59.5h-4h-4q2 199 -2 373t-15 322q12 7 25.5 10t27.5 3q8 0 15.5 -0.5t16.5 -2.5q3 -42 4 -86t1 -104q0 -224 -1.5 -316.5t-5.5 -190.5q-1 0 -2.5 -0.5t-2.5 -0.5q-34 -31 -50 -58.5
t-16 -55.5q0 -19 8.5 -28.5t25.5 -9.5q19 0 33 10.5t26 33.5q9 -7 14.5 -16.5t10.5 -23.5z" />
    <glyph glyph-name="iogonek" unicode="&#x12f;" horiz-adv-x="206" 
d="M194 730q-10 -22 -20.5 -52.5t-16.5 -59.5q-11 -2 -28 -2.5t-35 0.5q-2 9 -2.5 16.5t-0.5 15.5q0 21 4.5 45t12.5 41q11 5 20 6.5t22 0.5q14 -1 24.5 -3.5t19.5 -7.5zM169 -151q-20 -30 -44 -43.5t-56 -13.5q-36 0 -58 20.5t-22 53.5q0 35 19.5 66t59.5 60l-4 1
q-17 127 -14.5 262.5t23.5 242.5q12 7 24.5 10.5t26.5 3.5q8 0 14.5 -1t13.5 -3q-20 -105 -28 -246t0 -263q-1 -1 -2.5 -1.5t-5.5 -1.5q-34 -32 -49.5 -59t-15.5 -55q0 -18 9 -28t25 -10q18 0 32 10.5t27 33.5q8 -6 14 -15.5t11 -23.5z" />
    <glyph glyph-name="Idotaccent" unicode="&#x130;" horiz-adv-x="235" 
d="M156 487q0 -224 -1.5 -316.5t-5.5 -190.5q-10 -3 -28 -5t-38 -3q2 199 -2 373t-15 322q12 7 25.5 10t27.5 3q8 0 15.5 -0.5t16.5 -2.5q3 -42 4 -86t1 -104zM127 884q14 -1 24.5 -3.5t19.5 -7.5q-10 -22 -20.5 -52.5t-16.5 -59.5q-9 -1 -25 -1.5t-38 0.5q-2 8 -2.5 15.5
t-0.5 15.5q0 21 4.5 45.5t12.5 40.5q11 5 20 6.5t22 0.5z" />
    <glyph glyph-name="dotlessi" unicode="&#x131;" horiz-adv-x="206" 
d="M76 498q12 7 24.5 10.5t26.5 3.5q8 0 14.5 -1t13.5 -3q-20 -105 -28 -246t0 -263q-7 -4 -18 -6t-22 -2q-5 0 -9.5 0.5t-10.5 1.5q-17 119 -14 259t23 246z" />
    <glyph glyph-name="uni0136" unicode="&#x136;" horiz-adv-x="562" 
d="M553 -31q-13 -19 -28 -31.5t-34 -21.5q-70 121 -130 198.5t-148 162.5q-32 -26 -44 -35.5t-23 -17.5q2 -75 7.5 -140t15.5 -146q-15 -3 -35 -5.5t-34 -2.5q-19 141 -26.5 253.5t-7.5 256.5q0 57 2.5 120.5t7.5 134.5q20 5 31.5 7t21.5 2t20 -1.5t21 -4.5
q-13 -83 -19 -168.5t-6 -198.5v-22.5v-22.5q100 89 158.5 168.5t129.5 230.5q16 -7 31.5 -19t30.5 -30q-58 -107 -111 -178.5t-121 -136.5q87 -78 145 -149t145 -203zM260 -69q18 4 32.5 5t31.5 -1q2 -46 -7 -95t-30 -98q-15 1 -27 3t-23 7q14 48 19.5 90.5t3.5 88.5z" />
    <glyph glyph-name="uni0137" unicode="&#x137;" horiz-adv-x="447" 
d="M123 244q0 -74 4 -142t13 -136q-17 -4 -36 -6t-33 -2q-12 119 -16 195t-4 159q0 110 7.5 222t21.5 208q22 2 45 0t38 -7q-17 -106 -27 -209.5t-12 -205.5q71 62 120.5 119.5t106.5 146.5q15 -7 28.5 -18.5t23.5 -24.5q-51 -77 -96.5 -128t-110.5 -105q45 -66 96 -114.5
t135 -105.5q-17 -25 -28.5 -37t-24.5 -19q-64 50 -112 101.5t-112 137.5q-7 -5 -13.5 -10.5t-13.5 -10.5v-4v-4zM208 -49q18 4 32.5 5t31.5 -1q2 -46 -7 -95t-30 -98q-15 1 -27 3t-23 7q14 48 19.5 90.5t3.5 88.5z" />
    <glyph glyph-name="Lacute" unicode="&#x139;" horiz-adv-x="480" 
d="M466 -6q3 -17 5 -35.5t2 -30.5q-93 -1 -172 -6.5t-181 -19.5q-27 194 -38.5 390.5t-7.5 370.5q16 6 30 8.5t32 2.5q6 0 13 -0.5t14 -1.5q-6 -57 -8 -123t-1 -162q2 -123 9.5 -220t21.5 -196q71 11 144 17t137 6zM195 887q-5 -43 -21 -85.5t-43 -87.5q-12 0 -24 2t-28 6
q17 46 26.5 87.5t13.5 81.5q18 2 39 1t37 -5z" />
    <glyph glyph-name="lacute" unicode="&#x13a;" horiz-adv-x="202" 
d="M140 -53q-10 -3 -31.5 -5.5t-36.5 -2.5q-16 223 -18.5 409.5t8.5 381.5q10 5 22.5 8.5t24.5 3.5q10 0 19.5 -1.5t20.5 -4.5q-16 -155 -18.5 -366.5t9.5 -422.5zM184 945q-5 -43 -21 -85.5t-43 -87.5q-12 0 -24 2t-28 6q17 46 26.5 87.5t13.5 81.5q18 2 39 1t37 -5z" />
    <glyph glyph-name="uni013B" unicode="&#x13b;" horiz-adv-x="480" 
d="M466 -6q3 -17 5 -35.5t2 -30.5q-93 -1 -172 -6.5t-181 -19.5q-27 194 -38.5 390.5t-7.5 370.5q16 6 30 8.5t32 2.5q6 0 13 -0.5t14 -1.5q-6 -57 -8 -123t-1 -162q2 -123 9.5 -220t21.5 -196q71 11 144 17t137 6zM254 -124q18 4 32.5 5t31.5 -1q2 -46 -7 -95t-30 -98
q-15 1 -27 3t-23 7q14 48 19.5 90.5t3.5 88.5z" />
    <glyph glyph-name="uni013C" unicode="&#x13c;" horiz-adv-x="202" 
d="M140 -53q-10 -3 -31.5 -5.5t-36.5 -2.5q-16 223 -18.5 409.5t8.5 381.5q10 5 22.5 8.5t24.5 3.5q10 0 19.5 -1.5t20.5 -4.5q-16 -155 -18.5 -366.5t9.5 -422.5zM69 -97q18 4 32.5 5t31.5 -1q2 -46 -7 -95t-30 -98q-15 1 -27 3t-23 7q14 48 19.5 90.5t3.5 88.5z" />
    <glyph glyph-name="Lcaron" unicode="&#x13d;" horiz-adv-x="480" 
d="M466 -6q3 -17 5 -35.5t2 -30.5q-93 -1 -172 -6.5t-181 -19.5q-27 194 -38.5 390.5t-7.5 370.5q16 6 30 8.5t32 2.5q6 0 13 -0.5t14 -1.5q-6 -57 -8 -123t-1 -162q2 -123 9.5 -220t21.5 -196q71 11 144 17t137 6zM352 676q-7 -66 -20.5 -115.5t-37.5 -97.5q-14 1 -26.5 3
t-27.5 6q16 53 24.5 103t9.5 106q19 2 40.5 0.5t37.5 -5.5z" />
    <glyph glyph-name="lcaron" unicode="&#x13e;" horiz-adv-x="202" 
d="M140 -53q-10 -3 -31.5 -5.5t-36.5 -2.5q-16 223 -18.5 409.5t8.5 381.5q10 5 22.5 8.5t24.5 3.5q10 0 19.5 -1.5t20.5 -4.5q-16 -155 -18.5 -366.5t9.5 -422.5zM276 676q-7 -66 -20.5 -115.5t-37.5 -97.5q-14 1 -26.5 3t-27.5 6q16 53 24.5 103t9.5 106q19 2 40.5 0.5
t37.5 -5.5z" />
    <glyph glyph-name="Lslash" unicode="&#x141;" horiz-adv-x="466" 
d="M463 -72q-94 -1 -172.5 -6.5t-179.5 -19.5q-11 82 -18.5 149t-12.5 127q-22 -14 -46.5 -28.5t-54.5 -31.5q-11 11 -19 24t-14 30q32 18 64 36.5t65 39.5q-8 109 -10.5 214t-0.5 201q16 6 30 8.5t33 2.5q6 0 12.5 -0.5t13.5 -1.5q-5 -55 -7 -118.5t-2 -166.5
q0 -16 0.5 -34t1.5 -58q40 27 83 58.5t94 70.5q10 -9 18 -21t17 -31q-52 -40 -103 -77t-105 -73q3 -59 9 -121t16 -130q71 11 144 17t137 6q3 -17 5 -35.5t2 -30.5z" />
    <glyph glyph-name="lslash" unicode="&#x142;" horiz-adv-x="202" 
d="M138 -53q-10 -3 -31.5 -5.5t-36.5 -2.5q-6 75 -10 150.5t-6 153.5q-6 -4 -12.5 -8.5t-19.5 -14.5q-20 -13 -29.5 -20t-18.5 -13q-10 9 -18.5 21t-18.5 31q27 18 55.5 38t59.5 43q-2 107 0 207.5t8 202.5q10 5 22.5 8.5t24.5 3.5q10 0 19.5 -1.5t20.5 -4.5
q-8 -74 -12.5 -164.5t-6.5 -193.5q22 17 43.5 35t43.5 37q10 -8 19 -19.5t20 -30.5q-28 -25 -59 -50t-67 -53q0 -81 2.5 -169t7.5 -181z" />
    <glyph glyph-name="Nacute" unicode="&#x143;" horiz-adv-x="630" 
d="M150 331q1 -68 5.5 -152.5t13.5 -210.5q-13 -3 -30 -5t-35 -3q-21 238 -29 398t-8 319q1 0 2 0.5l1 0.5q25 12 43.5 17.5t42.5 9.5q103 -133 179.5 -265.5t142.5 -290.5q2 33 2.5 74.5t0.5 128.5q0 134 -4.5 232.5t-13.5 157.5q25 8 44.5 11t40.5 4q4 -85 5 -127.5
t1 -80.5q0 -157 -5 -275t-16 -250q-15 -3 -30.5 -4.5t-34.5 -2.5q-73 172 -153 312.5t-167 252.5q-1 -53 0.5 -142t1.5 -109zM390 913q-5 -43 -21 -85.5t-43 -87.5q-12 0 -24 2t-28 6q17 46 26.5 87.5t13.5 81.5q18 2 39 1t37 -5z" />
    <glyph glyph-name="nacute" unicode="&#x144;" horiz-adv-x="461" 
d="M126 167q0 -47 2 -106.5t5 -86.5q-13 -4 -31 -7t-35 -3q-7 105 -12 272t-5 283q10 5 24 8t29 3q10 0 19.5 -1t19.5 -3q-2 -18 -4.5 -57.5t-3.5 -51.5q33 55 70 82t78 27q62 0 90.5 -45.5t28.5 -142.5q0 -78 -12.5 -175t-26.5 -152q-16 1 -35.5 4.5t-35.5 8.5
q18 98 26 174t8 143q0 63 -15.5 91t-50.5 28t-69.5 -35t-59.5 -96q-2 -72 -3 -105t-1 -57zM300 737q-5 -43 -21 -85.5t-43 -87.5q-12 0 -24 2t-28 6q17 46 26.5 87.5t13.5 81.5q18 2 39 1t37 -5z" />
    <glyph glyph-name="uni0145" unicode="&#x145;" horiz-adv-x="630" 
d="M150 331q1 -68 5.5 -152.5t13.5 -210.5q-13 -3 -30 -5t-35 -3q-21 238 -29 398t-8 319q1 0 2 0.5l1 0.5q25 12 43.5 17.5t42.5 9.5q103 -133 179.5 -265.5t142.5 -290.5q2 33 2.5 74.5t0.5 128.5q0 134 -4.5 232.5t-13.5 157.5q25 8 44.5 11t40.5 4q4 -85 5 -127.5
t1 -80.5q0 -157 -5 -275t-16 -250q-15 -3 -30.5 -4.5t-34.5 -2.5q-73 172 -153 312.5t-167 252.5q-1 -53 0.5 -142t1.5 -109zM299 -54q18 4 32.5 5t31.5 -1q2 -46 -7 -95t-30 -98q-15 1 -27 3t-23 7q14 48 19.5 90.5t3.5 88.5z" />
    <glyph glyph-name="uni0146" unicode="&#x146;" horiz-adv-x="461" 
d="M126 167q0 -47 2 -106.5t5 -86.5q-13 -4 -31 -7t-35 -3q-7 105 -12 272t-5 283q10 5 24 8t29 3q10 0 19.5 -1t19.5 -3q-2 -18 -4.5 -57.5t-3.5 -51.5q33 55 70 82t78 27q62 0 90.5 -45.5t28.5 -142.5q0 -78 -12.5 -175t-26.5 -152q-16 1 -35.5 4.5t-35.5 8.5
q18 98 26 174t8 143q0 63 -15.5 91t-50.5 28t-69.5 -35t-59.5 -96q-2 -72 -3 -105t-1 -57zM183 -53q18 4 32.5 5t31.5 -1q2 -46 -7 -95t-30 -98q-15 1 -27 3t-23 7q14 48 19.5 90.5t3.5 88.5z" />
    <glyph glyph-name="Ncaron" unicode="&#x147;" horiz-adv-x="630" 
d="M150 331q1 -68 5.5 -152.5t13.5 -210.5q-13 -3 -30 -5t-35 -3q-21 238 -29 398t-8 319q1 0 2 0.5l1 0.5q25 12 43.5 17.5t42.5 9.5q103 -133 179.5 -265.5t142.5 -290.5q2 33 2.5 74.5t0.5 128.5q0 134 -4.5 232.5t-13.5 157.5q25 8 44.5 11t40.5 4q4 -85 5 -127.5
t1 -80.5q0 -157 -5 -275t-16 -250q-15 -3 -30.5 -4.5t-34.5 -2.5q-73 172 -153 312.5t-167 252.5q-1 -53 0.5 -142t1.5 -109zM174 874q12 12 21 18t20 11q31 -23 51 -42.5t37 -43.5q16 24 36.5 44t51.5 43q11 -5 20.5 -12t19.5 -17q-40 -36 -61 -63.5t-38 -64.5
q-5 -1 -13 -2t-16 -1q-5 0 -13 0.5t-16 1.5q-14 33 -34.5 60t-65.5 68z" />
    <glyph glyph-name="ncaron" unicode="&#x148;" horiz-adv-x="461" 
d="M126 167q0 -47 2 -106.5t5 -86.5q-13 -4 -31 -7t-35 -3q-7 105 -12 272t-5 283q10 5 24 8t29 3q10 0 19.5 -1t19.5 -3q-2 -18 -4.5 -57.5t-3.5 -51.5q33 55 70 82t78 27q62 0 90.5 -45.5t28.5 -142.5q0 -78 -12.5 -175t-26.5 -152q-16 1 -35.5 4.5t-35.5 8.5
q18 98 26 174t8 143q0 63 -15.5 91t-50.5 28t-69.5 -35t-59.5 -96q-2 -72 -3 -105t-1 -57zM109 706q12 12 21 18t20 11q31 -23 51 -42.5t37 -43.5q16 24 36.5 44t51.5 43q11 -5 20.5 -12t19.5 -17q-40 -36 -61 -63.5t-38 -64.5q-5 -1 -13 -2t-16 -1q-5 0 -13 0.5t-16 1.5
q-14 33 -34.5 60t-65.5 68z" />
    <glyph glyph-name="Omacron" unicode="&#x14c;" horiz-adv-x="599" 
d="M326 733q111 0 168.5 -86.5t57.5 -252.5q0 -72 -15.5 -142.5t-44.5 -125.5q-37 -72 -92.5 -109t-125.5 -37q-103 0 -166.5 100t-63.5 259q0 172 79 283t203 111zM282 39q87 0 137.5 94.5t50.5 243.5q0 152 -38 223.5t-119 71.5q-82 0 -134 -89.5t-52 -231.5
q0 -136 41.5 -224t113.5 -88zM415 816q-62 -7 -112 -5t-83 13q-1 12 0 28.5t3 27.5q49 -9 97.5 -10.5t95.5 4.5q1 -13 1 -26.5t-2 -31.5z" />
    <glyph glyph-name="omacron" unicode="&#x14d;" horiz-adv-x="449" 
d="M30 242q0 130 59.5 212t153.5 82q77 0 122 -58.5t45 -157.5q0 -145 -56.5 -237.5t-149.5 -92.5q-80 0 -127 69.5t-47 182.5zM330 278q0 102 -26 152t-79 50q-48 0 -83.5 -66t-35.5 -162q0 -88 30 -147.5t81 -59.5q45 0 79 68.5t34 164.5zM331 616q-62 -7 -112 -5t-83 13
q-1 12 0 28.5t3 27.5q49 -9 97.5 -10.5t95.5 4.5q1 -13 1 -26.5t-2 -31.5z" />
    <glyph glyph-name="Ohungarumlaut" unicode="&#x150;" horiz-adv-x="599" 
d="M326 733q111 0 168.5 -86.5t57.5 -252.5q0 -72 -15.5 -142.5t-44.5 -125.5q-37 -72 -92.5 -109t-125.5 -37q-103 0 -166.5 100t-63.5 259q0 172 79 283t203 111zM282 39q87 0 137.5 94.5t50.5 243.5q0 152 -38 223.5t-119 71.5q-82 0 -134 -89.5t-52 -231.5
q0 -136 41.5 -224t113.5 -88zM331 936q-5 -43 -21 -85.5t-43 -87.5q-12 0 -24 2t-28 6q17 46 26.5 87.5t13.5 81.5q18 2 39 1t37 -5zM449 936q-5 -43 -21 -85.5t-43 -87.5q-12 0 -24 2t-28 6q17 46 26.5 87.5t13.5 81.5q18 2 39 1t37 -5z" />
    <glyph glyph-name="ohungarumlaut" unicode="&#x151;" horiz-adv-x="449" 
d="M30 242q0 130 59.5 212t153.5 82q77 0 122 -58.5t45 -157.5q0 -145 -56.5 -237.5t-149.5 -92.5q-80 0 -127 69.5t-47 182.5zM330 278q0 102 -26 152t-79 50q-48 0 -83.5 -66t-35.5 -162q0 -88 30 -147.5t81 -59.5q45 0 79 68.5t34 164.5zM259 745q-5 -43 -21 -85.5
t-43 -87.5q-12 0 -24 2t-28 6q17 46 26.5 87.5t13.5 81.5q18 2 39 1t37 -5zM377 745q-5 -43 -21 -85.5t-43 -87.5q-12 0 -24 2t-28 6q17 46 26.5 87.5t13.5 81.5q18 2 39 1t37 -5z" />
    <glyph glyph-name="OE" unicode="&#x152;" horiz-adv-x="891" 
d="M851 -10q-79 -12 -165.5 -18.5t-188.5 -9.5q-4 27 -8.5 59l-13.5 96q-29 -75 -78 -113.5t-114 -38.5q-107 0 -172.5 100t-65.5 259q0 177 70.5 285t189.5 108q37 0 68 -12t56 -36v10.5v10.5q148 26 229 34t170 10q0 -18 -1.5 -34.5t-4.5 -30.5q-80 -1 -155.5 -7
t-150.5 -18q-2 -60 0 -124t7 -138q96 17 148.5 24.5t104.5 11.5q4 -14 5.5 -29t0.5 -33q-76 -6 -131.5 -12.5t-123.5 -17.5q7 -79 15.5 -155.5t19.5 -147.5q83 2 151.5 10t132.5 22q4 -14 5.5 -33t-0.5 -32zM291 24q73 0 112 89t37 248q-2 147 -39 221.5t-109 74.5
q-78 0 -121.5 -85.5t-43.5 -236.5q0 -135 44 -223t120 -88z" />
    <glyph glyph-name="oe" unicode="&#x153;" horiz-adv-x="764" 
d="M216 33q45 0 79 68.5t34 164.5q0 102 -26 152t-79 50q-48 0 -83.5 -66t-35.5 -162q0 -88 30 -147.5t81 -59.5zM416 300q29 -11 62.5 -16.5t71.5 -5.5q11 0 24 1.5t19 3.5q8 30 11.5 53.5t3.5 43.5q0 44 -14.5 63t-47.5 19q-41 0 -76.5 -45t-53.5 -117zM640 157
q16 -3 32.5 -12.5t27.5 -21.5q-18 -56 -77.5 -102t-118.5 -46q-52 0 -90 27.5t-60 80.5q-28 -52 -66.5 -78.5t-85.5 -26.5q-79 0 -126 69.5t-47 182.5q0 130 59 211.5t152 81.5q52 0 91 -29.5t59 -83.5q33 51 75.5 78.5t88.5 27.5q59 0 93 -37.5t34 -101.5q0 -33 -6.5 -67.5
t-18.5 -66.5q-20 -7 -48.5 -10.5t-70.5 -3.5q-32 0 -65.5 5.5t-64.5 16.5q-1 -11 -2 -22.5t-1 -22.5q0 -79 27.5 -128t74.5 -49q40 0 79.5 38t54.5 90z" />
    <glyph glyph-name="Racute" unicode="&#x154;" horiz-adv-x="562" 
d="M542 6q-10 -9 -31 -19.5t-39 -14.5q-57 128 -98.5 203t-91.5 143q-24 -11 -53.5 -20.5t-63.5 -18.5q-3 -80 -7 -150t-10 -134q-15 -2 -34.5 -0.5t-31.5 4.5q5 79 6.5 127.5t1.5 101.5q0 161 -5 255t-19 220q44 31 100.5 49t111.5 18q99 0 156.5 -52t57.5 -139
q0 -74 -37 -131.5t-112 -100.5q48 -57 98 -142.5t101 -198.5zM153 684q7 -89 10 -156t3 -134v-29.5v-29.5q125 31 185 87t60 143q0 71 -36.5 109.5t-104.5 38.5q-30 0 -59.5 -7.5t-57.5 -21.5zM308 974q-5 -43 -21 -85.5t-43 -87.5q-12 0 -24 2t-28 6q17 46 26.5 87.5
t13.5 81.5q18 2 39 1t37 -5z" />
    <glyph glyph-name="racute" unicode="&#x155;" horiz-adv-x="359" 
d="M152 -2q-8 -3 -19 -5t-22 -2q-8 -1 -14.5 0t-12.5 3q-25 127 -33.5 266t-1.5 280q7 3 17 4.5t30 1.5q10 0 19.5 -1.5t19.5 -4.5q-6 -43 -9 -73t-4 -57q23 78 61 123t79 45q40 0 59 -29.5t19 -90.5q0 -12 -1 -26t-2 -30q-12 -3 -28.5 -4.5t-35.5 -0.5q2 15 3 28.5t1 26.5
q0 32 -8 47.5t-24 15.5q-34 0 -68 -71.5t-54 -185.5q3 -57 10 -121.5t19 -138.5zM247 757q-5 -43 -21 -85.5t-43 -87.5q-12 0 -24 2t-28 6q17 46 26.5 87.5t13.5 81.5q18 2 39 1t37 -5z" />
    <glyph glyph-name="uni0156" unicode="&#x156;" horiz-adv-x="562" 
d="M542 6q-10 -9 -31 -19.5t-39 -14.5q-57 128 -98.5 203t-91.5 143q-24 -11 -53.5 -20.5t-63.5 -18.5q-3 -80 -7 -150t-10 -134q-15 -2 -34.5 -0.5t-31.5 4.5q5 79 6.5 127.5t1.5 101.5q0 161 -5 255t-19 220q44 31 100.5 49t111.5 18q99 0 156.5 -52t57.5 -139
q0 -74 -37 -131.5t-112 -100.5q48 -57 98 -142.5t101 -198.5zM153 684q7 -89 10 -156t3 -134v-29.5v-29.5q125 31 185 87t60 143q0 71 -36.5 109.5t-104.5 38.5q-30 0 -59.5 -7.5t-57.5 -21.5zM257 -40q18 4 32.5 5t31.5 -1q2 -46 -7 -95t-30 -98q-15 1 -27 3t-23 7
q14 48 19.5 90.5t3.5 88.5z" />
    <glyph glyph-name="uni0157" unicode="&#x157;" horiz-adv-x="359" 
d="M152 -2q-8 -3 -19 -5t-22 -2q-8 -1 -14.5 0t-12.5 3q-25 127 -33.5 266t-1.5 280q7 3 17 4.5t30 1.5q10 0 19.5 -1.5t19.5 -4.5q-6 -43 -9 -73t-4 -57q23 78 61 123t79 45q40 0 59 -29.5t19 -90.5q0 -12 -1 -26t-2 -30q-12 -3 -28.5 -4.5t-35.5 -0.5q2 15 3 28.5t1 26.5
q0 32 -8 47.5t-24 15.5q-34 0 -68 -71.5t-54 -185.5q3 -57 10 -121.5t19 -138.5zM83 -53q18 4 32.5 5t31.5 -1q2 -46 -7 -95t-30 -98q-15 1 -27 3t-23 7q14 48 19.5 90.5t3.5 88.5z" />
    <glyph glyph-name="Rcaron" unicode="&#x158;" horiz-adv-x="562" 
d="M542 6q-10 -9 -31 -19.5t-39 -14.5q-57 128 -98.5 203t-91.5 143q-24 -11 -53.5 -20.5t-63.5 -18.5q-3 -80 -7 -150t-10 -134q-15 -2 -34.5 -0.5t-31.5 4.5q5 79 6.5 127.5t1.5 101.5q0 161 -5 255t-19 220q44 31 100.5 49t111.5 18q99 0 156.5 -52t57.5 -139
q0 -74 -37 -131.5t-112 -100.5q48 -57 98 -142.5t101 -198.5zM153 684q7 -89 10 -156t3 -134v-29.5v-29.5q125 31 185 87t60 143q0 71 -36.5 109.5t-104.5 38.5q-30 0 -59.5 -7.5t-57.5 -21.5zM121 940q12 12 21 18t20 11q31 -23 51 -42.5t37 -43.5q16 24 36.5 44t51.5 43
q11 -5 20.5 -12t19.5 -17q-40 -36 -61 -63.5t-38 -64.5q-5 -1 -13 -2t-16 -1q-5 0 -13 0.5t-16 1.5q-14 33 -34.5 60t-65.5 68z" />
    <glyph glyph-name="rcaron" unicode="&#x159;" horiz-adv-x="359" 
d="M152 -2q-8 -3 -19 -5t-22 -2q-8 -1 -14.5 0t-12.5 3q-25 127 -33.5 266t-1.5 280q7 3 17 4.5t30 1.5q10 0 19.5 -1.5t19.5 -4.5q-6 -43 -9 -73t-4 -57q23 78 61 123t79 45q40 0 59 -29.5t19 -90.5q0 -12 -1 -26t-2 -30q-12 -3 -28.5 -4.5t-35.5 -0.5q2 15 3 28.5t1 26.5
q0 32 -8 47.5t-24 15.5q-34 0 -68 -71.5t-54 -185.5q3 -57 10 -121.5t19 -138.5zM37 712q12 12 21 18t20 11q31 -23 51 -42.5t37 -43.5q16 24 36.5 44t51.5 43q11 -5 20.5 -12t19.5 -17q-40 -36 -61 -63.5t-38 -64.5q-5 -1 -13 -2t-16 -1q-5 0 -13 0.5t-16 1.5
q-14 33 -34.5 60t-65.5 68z" />
    <glyph glyph-name="Sacute" unicode="&#x15a;" horiz-adv-x="475" 
d="M394 288q20 -30 29.5 -64.5t9.5 -75.5q0 -83 -53 -135.5t-136 -52.5q-100 0 -156.5 73.5t-56.5 191.5q16 8 35 14t37 7q-1 -107 35.5 -168t102.5 -61q50 0 80.5 33.5t30.5 88.5q0 53 -24 94.5t-104 100.5q-48 36 -70 57.5t-37 44.5q-20 30 -30 65t-10 76q0 87 49.5 138.5
t132.5 51.5q76 0 118.5 -43.5t62.5 -147.5q-14 -8 -30.5 -12t-41.5 -5q-9 79 -35 114t-77 35q-47 0 -72 -31t-25 -90q0 -54 24.5 -96.5t104.5 -102.5q48 -36 69.5 -57t36.5 -43zM333 973q-5 -43 -21 -85.5t-43 -87.5q-12 0 -24 2t-28 6q17 46 26.5 87.5t13.5 81.5q18 2 39 1
t37 -5z" />
    <glyph glyph-name="sacute" unicode="&#x15b;" horiz-adv-x="374" 
d="M222 288q72 -52 94.5 -88.5t22.5 -80.5q0 -69 -44 -114t-112 -45q-71 0 -115.5 51t-44.5 135q15 5 31.5 7.5t32.5 1.5q-2 -67 23.5 -105t73.5 -38q36 0 57.5 24.5t21.5 66.5q0 34 -19 63.5t-82 75.5q-74 54 -97 92.5t-23 85.5q0 63 38 100.5t103 37.5q62 0 97.5 -36
t49.5 -115q-15 -7 -30.5 -10.5t-32.5 -5.5q-8 59 -28.5 86t-56.5 27q-30 0 -47.5 -20t-17.5 -54q0 -35 20 -65t85 -77zM272 754q-5 -43 -21 -85.5t-43 -87.5q-12 0 -24 2t-28 6q17 46 26.5 87.5t13.5 81.5q18 2 39 1t37 -5z" />
    <glyph glyph-name="uni015E" unicode="&#x15e;" horiz-adv-x="475" 
d="M394 288q20 -30 29.5 -64.5t9.5 -75.5q0 -83 -53 -135.5t-136 -52.5q-100 0 -156.5 73.5t-56.5 191.5q16 8 35 14t37 7q-1 -107 35.5 -168t102.5 -61q50 0 80.5 33.5t30.5 88.5q0 53 -24 94.5t-104 100.5q-48 36 -70 57.5t-37 44.5q-20 30 -30 65t-10 76q0 87 49.5 138.5
t132.5 51.5q76 0 118.5 -43.5t62.5 -147.5q-14 -8 -30.5 -12t-41.5 -5q-9 79 -35 114t-77 35q-47 0 -72 -31t-25 -90q0 -54 24.5 -96.5t104.5 -102.5q48 -36 69.5 -57t36.5 -43zM348 -149q0 -43 -29.5 -69t-78.5 -26q-38 0 -64.5 18.5t-39.5 54.5q15 10 24 14.5t18 8.5
q8 -23 24 -36.5t36 -13.5q23 0 35.5 11.5t12.5 32.5q0 18 -12.5 30t-31.5 12q-10 0 -18.5 -2.5t-17.5 -7.5q-8 6 -15.5 13.5t-10.5 12.5q13 21 21 42.5t11 43.5l48 -9q-2 -14 -5.5 -27.5t-10.5 -27.5q9 1 13 1.5t8 0.5q38 0 60.5 -21t22.5 -56z" />
    <glyph glyph-name="uni015F" unicode="&#x15f;" horiz-adv-x="374" 
d="M222 288q72 -52 94.5 -88.5t22.5 -80.5q0 -69 -44 -114t-112 -45q-71 0 -115.5 51t-44.5 135q15 5 31.5 7.5t32.5 1.5q-2 -67 23.5 -105t73.5 -38q36 0 57.5 24.5t21.5 66.5q0 34 -19 63.5t-82 75.5q-74 54 -97 92.5t-23 85.5q0 63 38 100.5t103 37.5q62 0 97.5 -36
t49.5 -115q-15 -7 -30.5 -10.5t-32.5 -5.5q-8 59 -28.5 86t-56.5 27q-30 0 -47.5 -20t-17.5 -54q0 -35 20 -65t85 -77zM300 -152q0 -43 -29.5 -69t-78.5 -26q-38 0 -64.5 18.5t-39.5 54.5q15 10 24 14.5t18 8.5q8 -23 24 -36.5t36 -13.5q23 0 35.5 11.5t12.5 32.5
q0 18 -12.5 30t-31.5 12q-10 0 -18.5 -2.5t-17.5 -7.5q-8 6 -15.5 13.5t-10.5 12.5q13 21 21 42.5t11 43.5l48 -9q-2 -14 -5.5 -27.5t-10.5 -27.5q9 1 13 1.5t8 0.5q38 0 60.5 -21t22.5 -56z" />
    <glyph glyph-name="Scaron" unicode="&#x160;" horiz-adv-x="475" 
d="M394 288q20 -30 29.5 -64.5t9.5 -75.5q0 -83 -53 -135.5t-136 -52.5q-100 0 -156.5 73.5t-56.5 191.5q16 8 35 14t37 7q-1 -107 35.5 -168t102.5 -61q50 0 80.5 33.5t30.5 88.5q0 53 -24 94.5t-104 100.5q-48 36 -70 57.5t-37 44.5q-20 30 -30 65t-10 76q0 87 49.5 138.5
t132.5 51.5q76 0 118.5 -43.5t62.5 -147.5q-14 -8 -30.5 -12t-41.5 -5q-9 79 -35 114t-77 35q-47 0 -72 -31t-25 -90q0 -54 24.5 -96.5t104.5 -102.5q48 -36 69.5 -57t36.5 -43zM137 927q12 12 21 18t20 11q31 -23 51 -42.5t37 -43.5q16 24 36.5 44t51.5 43q11 -5 20.5 -12
t19.5 -17q-40 -36 -61 -63.5t-38 -64.5q-5 -1 -13 -2t-16 -1q-5 0 -13 0.5t-16 1.5q-14 33 -34.5 60t-65.5 68z" />
    <glyph glyph-name="scaron" unicode="&#x161;" horiz-adv-x="374" 
d="M222 288q72 -52 94.5 -88.5t22.5 -80.5q0 -69 -44 -114t-112 -45q-71 0 -115.5 51t-44.5 135q15 5 31.5 7.5t32.5 1.5q-2 -67 23.5 -105t73.5 -38q36 0 57.5 24.5t21.5 66.5q0 34 -19 63.5t-82 75.5q-74 54 -97 92.5t-23 85.5q0 63 38 100.5t103 37.5q62 0 97.5 -36
t49.5 -115q-15 -7 -30.5 -10.5t-32.5 -5.5q-8 59 -28.5 86t-56.5 27q-30 0 -47.5 -20t-17.5 -54q0 -35 20 -65t85 -77zM63 712q12 12 21 18t20 11q31 -23 51 -42.5t37 -43.5q16 24 36.5 44t51.5 43q11 -5 20.5 -12t19.5 -17q-40 -36 -61 -63.5t-38 -64.5q-5 -1 -13 -2
t-16 -1q-5 0 -13 0.5t-16 1.5q-14 33 -34.5 60t-65.5 68z" />
    <glyph glyph-name="uni0162" unicode="&#x162;" horiz-adv-x="590" 
d="M362 34q-13 -4 -33 -6.5t-41 -3.5q5 161 -4 344t-31 338q-51 -5 -105.5 -12.5t-117.5 -16.5q-4 17 -6 34t-1 31q150 25 266.5 36t265.5 13q3 -7 4.5 -16t2.5 -20v-9t-2 -24q-60 -1 -113 -3t-105 -6q13 -130 19 -244.5t6 -238.5q0 -43 -1 -91t-4 -105zM437 -94
q0 -43 -29.5 -69t-78.5 -26q-38 0 -64.5 18.5t-39.5 54.5q15 10 24 14.5t18 8.5q8 -23 24 -36.5t36 -13.5q23 0 35.5 11.5t12.5 32.5q0 18 -12.5 30t-31.5 12q-10 0 -18.5 -2.5t-17.5 -7.5q-8 6 -15.5 13.5t-10.5 12.5q13 21 21 42.5t11 43.5l48 -9q-2 -14 -5.5 -27.5
t-10.5 -27.5q9 1 13 1.5t8 0.5q38 0 60.5 -21t22.5 -56z" />
    <glyph glyph-name="uni0163" unicode="&#x163;" horiz-adv-x="371" 
d="M272 207q16 -2 31.5 -6.5t26.5 -11.5q-2 -84 -33.5 -131.5t-85.5 -47.5q-63 0 -95 71.5t-32 211.5q0 46 3 92t9 94q-19 1 -37.5 4t-37.5 7q1 14 4 27t8 24q19 -4 36 -7t34 -4q4 26 10.5 56.5t17.5 75.5q21 -1 41.5 -4.5t39.5 -9.5q-10 -33 -18 -64t-13 -60q40 -1 78 0.5
t74 4.5q0 -10 -2.5 -22.5t-6.5 -26.5q-37 -4 -75.5 -5.5t-76.5 -0.5q-7 -47 -11 -96t-4 -96q0 -106 15.5 -161.5t44.5 -55.5q27 0 40.5 34.5t14.5 107.5zM317 -94q0 -43 -29.5 -69t-78.5 -26q-38 0 -64.5 18.5t-39.5 54.5q15 10 24 14.5t18 8.5q8 -23 24 -36.5t36 -13.5
q23 0 35.5 11.5t12.5 32.5q0 18 -12.5 30t-31.5 12q-10 0 -18.5 -2.5t-17.5 -7.5q-8 6 -15.5 13.5t-10.5 12.5q13 21 21 42.5t11 43.5l48 -9q-2 -14 -5.5 -27.5t-10.5 -27.5q9 1 13 1.5t8 0.5q38 0 60.5 -21t22.5 -56z" />
    <glyph glyph-name="Tcaron" unicode="&#x164;" horiz-adv-x="590" 
d="M362 34q-13 -4 -33 -6.5t-41 -3.5q5 161 -4 344t-31 338q-51 -5 -105.5 -12.5t-117.5 -16.5q-4 17 -6 34t-1 31q150 25 266.5 36t265.5 13q3 -7 4.5 -16t2.5 -20v-9t-2 -24q-60 -1 -113 -3t-105 -6q13 -130 19 -244.5t6 -238.5q0 -43 -1 -91t-4 -105zM151 948
q12 12 21 18t20 11q31 -23 51 -42.5t37 -43.5q16 24 36.5 44t51.5 43q11 -5 20.5 -12t19.5 -17q-40 -36 -61 -63.5t-38 -64.5q-5 -1 -13 -2t-16 -1q-5 0 -13 0.5t-16 1.5q-14 33 -34.5 60t-65.5 68z" />
    <glyph glyph-name="tcaron" unicode="&#x165;" horiz-adv-x="371" 
d="M272 207q16 -2 31.5 -6.5t26.5 -11.5q-2 -84 -33.5 -131.5t-85.5 -47.5q-63 0 -95 71.5t-32 211.5q0 46 3 92t9 94q-19 1 -37.5 4t-37.5 7q1 14 4 27t8 24q19 -4 36 -7t34 -4q4 26 10.5 56.5t17.5 75.5q21 -1 41.5 -4.5t39.5 -9.5q-10 -33 -18 -64t-13 -60q40 -1 78 0.5
t74 4.5q0 -10 -2.5 -22.5t-6.5 -26.5q-37 -4 -75.5 -5.5t-76.5 -0.5q-7 -47 -11 -96t-4 -96q0 -106 15.5 -161.5t44.5 -55.5q27 0 40.5 34.5t14.5 107.5zM346 779q-7 -66 -20.5 -115.5t-37.5 -97.5q-14 1 -26.5 3t-27.5 6q16 53 24.5 103t9.5 106q19 2 40.5 0.5t37.5 -5.5z
" />
    <glyph glyph-name="Umacron" unicode="&#x16a;" horiz-adv-x="547" 
d="M443 706q24 -97 35 -178.5t11 -157.5q0 -227 -62 -338.5t-187 -111.5q-94 0 -140 87t-46 265q0 92 15 193t36 163q8 3 21 4.5t24 1.5q9 0 17 -1t15 -3q-22 -92 -33 -177t-11 -159q0 -165 27 -238.5t89 -73.5q73 0 112.5 89t39.5 250q0 97 -11 183.5t-37 186.5
q18 6 39.5 9.5t45.5 5.5zM338 716q-62 -7 -112 -5t-83 13q-1 12 0 28.5t3 27.5q49 -9 97.5 -10.5t95.5 4.5q1 -13 1 -26.5t-2 -31.5z" />
    <glyph glyph-name="umacron" unicode="&#x16b;" horiz-adv-x="410" 
d="M187 -10q-73 0 -110.5 71t-37.5 209q0 70 11.5 140.5t28.5 101.5q9 3 18 4.5t18 1.5t16.5 -1.5t14.5 -5.5q-15 -48 -23 -110t-8 -134q0 -97 22.5 -159t60.5 -62q47 0 71.5 72t24.5 202q0 40 -4 83.5t-8 60.5q15 7 37 11t42 4q5 -23 7.5 -55t2.5 -65q0 -179 -46.5 -274
t-137.5 -95zM326 576q-62 -7 -112 -5t-83 13q-1 12 0 28.5t3 27.5q49 -9 97.5 -10.5t95.5 4.5q1 -13 1 -26.5t-2 -31.5z" />
    <glyph glyph-name="Uring" unicode="&#x16e;" horiz-adv-x="547" 
d="M443 706q24 -97 35 -178.5t11 -157.5q0 -227 -62 -338.5t-187 -111.5q-94 0 -140 87t-46 265q0 92 15 193t36 163q8 3 21 4.5t24 1.5q9 0 17 -1t15 -3q-22 -92 -33 -177t-11 -159q0 -165 27 -238.5t89 -73.5q73 0 112.5 89t39.5 250q0 97 -11 183.5t-37 186.5
q18 6 39.5 9.5t45.5 5.5zM154 772q0 46 29 73t78 27q40 0 63.5 -21.5t23.5 -58.5q0 -50 -28 -79t-76 -29q-39 0 -64.5 25t-25.5 63zM291 785q0 25 -10 39t-27 14q-20 0 -32.5 -18t-12.5 -48q0 -23 11.5 -37t28.5 -14q19 0 30.5 17.5t11.5 46.5z" />
    <glyph glyph-name="uring" unicode="&#x16f;" horiz-adv-x="410" 
d="M187 -10q-73 0 -110.5 71t-37.5 209q0 70 11.5 140.5t28.5 101.5q9 3 18 4.5t18 1.5t16.5 -1.5t14.5 -5.5q-15 -48 -23 -110t-8 -134q0 -97 22.5 -159t60.5 -62q47 0 71.5 72t24.5 202q0 40 -4 83.5t-8 60.5q15 7 37 11t42 4q5 -23 7.5 -55t2.5 -65q0 -179 -46.5 -274
t-137.5 -95zM133 625q0 46 29 73t78 27q40 0 63.5 -21.5t23.5 -58.5q0 -50 -28 -79t-76 -29q-39 0 -64.5 25t-25.5 63zM270 638q0 25 -10 39t-27 14q-20 0 -32.5 -18t-12.5 -48q0 -23 11.5 -37t28.5 -14q19 0 30.5 17.5t11.5 46.5z" />
    <glyph glyph-name="Uhungarumlaut" unicode="&#x170;" horiz-adv-x="547" 
d="M443 706q24 -97 35 -178.5t11 -157.5q0 -227 -62 -338.5t-187 -111.5q-94 0 -140 87t-46 265q0 92 15 193t36 163q8 3 21 4.5t24 1.5q9 0 17 -1t15 -3q-22 -92 -33 -177t-11 -159q0 -165 27 -238.5t89 -73.5q73 0 112.5 89t39.5 250q0 97 -11 183.5t-37 186.5
q18 6 39.5 9.5t45.5 5.5zM267 877q-5 -43 -21 -85.5t-43 -87.5q-12 0 -24 2t-28 6q17 46 26.5 87.5t13.5 81.5q18 2 39 1t37 -5zM385 877q-5 -43 -21 -85.5t-43 -87.5q-12 0 -24 2t-28 6q17 46 26.5 87.5t13.5 81.5q18 2 39 1t37 -5z" />
    <glyph glyph-name="uhungarumlaut" unicode="&#x171;" horiz-adv-x="410" 
d="M187 -10q-73 0 -110.5 71t-37.5 209q0 70 11.5 140.5t28.5 101.5q9 3 18 4.5t18 1.5t16.5 -1.5t14.5 -5.5q-15 -48 -23 -110t-8 -134q0 -97 22.5 -159t60.5 -62q47 0 71.5 72t24.5 202q0 40 -4 83.5t-8 60.5q15 7 37 11t42 4q5 -23 7.5 -55t2.5 -65q0 -179 -46.5 -274
t-137.5 -95zM248 706q-5 -43 -21 -85.5t-43 -87.5q-12 0 -24 2t-28 6q17 46 26.5 87.5t13.5 81.5q18 2 39 1t37 -5zM366 706q-5 -43 -21 -85.5t-43 -87.5q-12 0 -24 2t-28 6q17 46 26.5 87.5t13.5 81.5q18 2 39 1t37 -5z" />
    <glyph glyph-name="Uogonek" unicode="&#x172;" horiz-adv-x="547" 
d="M374 -214q-18 -27 -42.5 -40.5t-56.5 -13.5q-38 0 -60.5 21t-22.5 57q0 31 14 57t45 53h-5.5h-5.5q-94 0 -140 87t-46 265q0 92 15 193t36 163q8 3 21 4.5t24 1.5q9 0 17 -1t15 -3q-22 -92 -33 -177t-11 -159q0 -165 27 -238.5t89 -73.5q73 0 112.5 89t39.5 250
q0 97 -11 183.5t-37 186.5q18 6 39.5 9.5t45.5 5.5q24 -97 35 -178.5t11 -157.5q0 -181 -37 -284.5t-118 -145.5q-37 -20 -58 -50.5t-21 -61.5q0 -21 9.5 -34t25.5 -13q17 0 31.5 10.5t27.5 33.5q8 -7 13.5 -16t11.5 -23z" />
    <glyph glyph-name="uogonek" unicode="&#x173;" horiz-adv-x="410" 
d="M307 -140q-18 -27 -43 -41t-56 -14q-39 0 -61 19.5t-22 55.5q0 28 15.5 55t46.5 55v0q-73 0 -110.5 71t-37.5 209q0 70 11.5 140.5t28.5 101.5q9 3 18 4.5t18 1.5t16.5 -1.5t14.5 -5.5q-15 -48 -23 -110t-8 -134q0 -97 22.5 -159t60.5 -62q47 0 71.5 72t24.5 202
q0 40 -4 83.5t-8 60.5q15 7 37 11t42 4q5 -23 7.5 -55t2.5 -65q0 -136 -26.5 -223t-77.5 -122q-37 -26 -58 -57.5t-21 -62.5q0 -17 10 -28t25 -11q18 0 32 10.5t26 33.5q8 -7 14 -16t12 -23z" />
    <glyph glyph-name="Ydieresis" unicode="&#x178;" horiz-adv-x="513" 
d="M479 684q-77 -299 -148 -464.5t-172 -302.5q-18 5 -35 12t-29 16q44 62 79.5 122t63.5 121q-78 107 -130 226t-94 290q20 11 40.5 17t43.5 7q25 -132 67 -243.5t107 -220.5q40 96 69.5 206t51.5 245q24 -5 45 -13t41 -18zM204 895q14 -1 24.5 -3.5t19.5 -7.5
q-10 -22 -20.5 -52.5t-16.5 -59.5q-9 -1 -25 -1.5t-38 0.5q-2 8 -2.5 15.5t-0.5 15.5q0 21 4.5 45.5t12.5 40.5q11 5 20 6.5t22 0.5zM330 895q14 -1 24.5 -3.5t19.5 -7.5q-10 -22 -20.5 -52.5t-16.5 -59.5q-9 -1 -25 -1.5t-38 0.5q-2 8 -2.5 15.5t-0.5 15.5q0 21 4.5 45.5
t12.5 40.5q11 5 20 6.5t22 0.5z" />
    <glyph glyph-name="Zacute" unicode="&#x179;" horiz-adv-x="585" 
d="M523 46q-1 -21 -5.5 -40.5t-13.5 -39.5q-117 1 -243.5 11t-236.5 28q-1 16 0.5 33t4.5 31q152 159 260.5 294.5t174.5 251.5q-103 10 -193 21.5t-180 27.5q1 21 6 39t16 35q91 -19 185.5 -35t260.5 -40q-1 -11 -4.5 -31.5t-5.5 -25.5q-80 -125 -188.5 -258t-258.5 -293
q113 -11 218.5 -13.5t202.5 4.5zM420 917q-5 -43 -21 -85.5t-43 -87.5q-12 0 -24 2t-28 6q17 46 26.5 87.5t13.5 81.5q18 2 39 1t37 -5z" />
    <glyph glyph-name="zacute" unicode="&#x17a;" horiz-adv-x="441" 
d="M385 49q-1 -16 -5 -32.5t-12 -34.5q-105 1 -188.5 10t-163.5 29q-1 15 0 28t3 24q85 114 159 201.5t155 169.5q-57 11 -111 17.5t-156 14.5q2 22 5 35t10 30q96 -8 168.5 -21t161.5 -40q0 -13 -2.5 -27.5t-6.5 -25.5q-93 -96 -165.5 -180.5t-149.5 -187.5
q85 -11 152.5 -13t145.5 3zM339 717q-5 -43 -21 -85.5t-43 -87.5q-12 0 -24 2t-28 6q17 46 26.5 87.5t13.5 81.5q18 2 39 1t37 -5z" />
    <glyph glyph-name="Zdotaccent" unicode="&#x17b;" horiz-adv-x="585" 
d="M523 46q-1 -21 -5.5 -40.5t-13.5 -39.5q-117 1 -243.5 11t-236.5 28q-1 16 0.5 33t4.5 31q152 159 260.5 294.5t174.5 251.5q-103 10 -193 21.5t-180 27.5q1 21 6 39t16 35q91 -19 185.5 -35t260.5 -40q-1 -11 -4.5 -31.5t-5.5 -25.5q-80 -125 -188.5 -258t-258.5 -293
q113 -11 218.5 -13.5t202.5 4.5zM364 874q14 -1 24.5 -3.5t19.5 -7.5q-10 -22 -20.5 -52.5t-16.5 -59.5q-9 -1 -25 -1.5t-38 0.5q-2 8 -2.5 15.5t-0.5 15.5q0 21 4.5 45.5t12.5 40.5q11 5 20 6.5t22 0.5z" />
    <glyph glyph-name="zdotaccent" unicode="&#x17c;" horiz-adv-x="441" 
d="M385 49q-1 -16 -5 -32.5t-12 -34.5q-105 1 -188.5 10t-163.5 29q-1 15 0 28t3 24q85 114 159 201.5t155 169.5q-57 11 -111 17.5t-156 14.5q2 22 5 35t10 30q96 -8 168.5 -21t161.5 -40q0 -13 -2.5 -27.5t-6.5 -25.5q-93 -96 -165.5 -180.5t-149.5 -187.5
q85 -11 152.5 -13t145.5 3zM278 682q14 -1 24.5 -3.5t19.5 -7.5q-10 -22 -20.5 -52.5t-16.5 -59.5q-9 -1 -25 -1.5t-38 0.5q-2 8 -2.5 15.5t-0.5 15.5q0 21 4.5 45.5t12.5 40.5q11 5 20 6.5t22 0.5z" />
    <glyph glyph-name="Zcaron" unicode="&#x17d;" horiz-adv-x="585" 
d="M523 46q-1 -21 -5.5 -40.5t-13.5 -39.5q-117 1 -243.5 11t-236.5 28q-1 16 0.5 33t4.5 31q152 159 260.5 294.5t174.5 251.5q-103 10 -193 21.5t-180 27.5q1 21 6 39t16 35q91 -19 185.5 -35t260.5 -40q-1 -11 -4.5 -31.5t-5.5 -25.5q-80 -125 -188.5 -258t-258.5 -293
q113 -11 218.5 -13.5t202.5 4.5zM212 874q12 12 21 18t20 11q31 -23 51 -42.5t37 -43.5q16 24 36.5 44t51.5 43q11 -5 20.5 -12t19.5 -17q-40 -36 -61 -63.5t-38 -64.5q-5 -1 -13 -2t-16 -1q-5 0 -13 0.5t-16 1.5q-14 33 -34.5 60t-65.5 68z" />
    <glyph glyph-name="zcaron" unicode="&#x17e;" horiz-adv-x="441" 
d="M385 49q-1 -16 -5 -32.5t-12 -34.5q-105 1 -188.5 10t-163.5 29q-1 15 0 28t3 24q85 114 159 201.5t155 169.5q-57 11 -111 17.5t-156 14.5q2 22 5 35t10 30q96 -8 168.5 -21t161.5 -40q0 -13 -2.5 -27.5t-6.5 -25.5q-93 -96 -165.5 -180.5t-149.5 -187.5
q85 -11 152.5 -13t145.5 3zM91 707q12 12 21 18t20 11q31 -23 51 -42.5t37 -43.5q16 24 36.5 44t51.5 43q11 -5 20.5 -12t19.5 -17q-40 -36 -61 -63.5t-38 -64.5q-5 -1 -13 -2t-16 -1q-5 0 -13 0.5t-16 1.5q-14 33 -34.5 60t-65.5 68z" />
    <glyph glyph-name="florin" unicode="&#x192;" horiz-adv-x="354" 
d="M226 54q-3 -105 -37 -157t-99 -52q-47 0 -75 34.5t-28 91.5q0 15 3.5 32t9.5 28q15 0 30.5 -3t30.5 -8q-4 -11 -6.5 -25t-2.5 -30q0 -30 12 -47.5t33 -17.5q32 0 47 35t15 109q0 88 -27 209t-28 126q-24 3 -48 7.5t-45 11.5q0 8 2.5 22t5.5 23q19 -3 38 -5.5t39 -3.5
l-3 37.5t-1 23.5q-1 112 38.5 171.5t112.5 59.5q52 1 82.5 -34t30.5 -91q0 -16 -3.5 -33.5t-8.5 -26.5q-15 -1 -31 1.5t-31 8.5q4 11 6.5 25t2.5 31q0 29 -14.5 46.5t-38.5 17.5q-35 0 -52.5 -38t-17.5 -114q0 -22 1 -44t4 -46q11 -1 25 -1h43q24 0 44 1.5t38 5.5
q0 -13 -2 -30t-4 -28q-11 -3 -31.5 -4.5t-45.5 -1.5h-37t-22 1q3 -15 26 -123.5t19 -194.5z" />
    <glyph glyph-name="uni0218" unicode="&#x218;" horiz-adv-x="475" 
d="M394 288q20 -30 29.5 -64.5t9.5 -75.5q0 -83 -53 -135.5t-136 -52.5q-100 0 -156.5 73.5t-56.5 191.5q16 8 35 14t37 7q-1 -107 35.5 -168t102.5 -61q50 0 80.5 33.5t30.5 88.5q0 53 -24 94.5t-104 100.5q-48 36 -70 57.5t-37 44.5q-20 30 -30 65t-10 76q0 87 49.5 138.5
t132.5 51.5q76 0 118.5 -43.5t62.5 -147.5q-14 -8 -30.5 -12t-41.5 -5q-9 79 -35 114t-77 35q-47 0 -72 -31t-25 -90q0 -54 24.5 -96.5t104.5 -102.5q48 -36 69.5 -57t36.5 -43zM212 -69q18 4 32.5 5t31.5 -1q2 -46 -7 -95t-30 -98q-15 1 -27 3t-23 7q14 48 19.5 90.5
t3.5 88.5z" />
    <glyph glyph-name="uni0219" unicode="&#x219;" horiz-adv-x="374" 
d="M222 288q72 -52 94.5 -88.5t22.5 -80.5q0 -69 -44 -114t-112 -45q-71 0 -115.5 51t-44.5 135q15 5 31.5 7.5t32.5 1.5q-2 -67 23.5 -105t73.5 -38q36 0 57.5 24.5t21.5 66.5q0 34 -19 63.5t-82 75.5q-74 54 -97 92.5t-23 85.5q0 63 38 100.5t103 37.5q62 0 97.5 -36
t49.5 -115q-15 -7 -30.5 -10.5t-32.5 -5.5q-8 59 -28.5 86t-56.5 27q-30 0 -47.5 -20t-17.5 -54q0 -35 20 -65t85 -77zM156 -72q18 4 32.5 5t31.5 -1q2 -46 -7 -95t-30 -98q-15 1 -27 3t-23 7q14 48 19.5 90.5t3.5 88.5z" />
    <glyph glyph-name="uni021A" unicode="&#x21a;" horiz-adv-x="590" 
d="M362 34q-13 -4 -33 -6.5t-41 -3.5q5 161 -4 344t-31 338q-51 -5 -105.5 -12.5t-117.5 -16.5q-4 17 -6 34t-1 31q150 25 266.5 36t265.5 13q3 -7 4.5 -16t2.5 -20v-9t-2 -24q-60 -1 -113 -3t-105 -6q13 -130 19 -244.5t6 -238.5q0 -43 -1 -91t-4 -105zM290 -15
q18 4 32.5 5t31.5 -1q2 -46 -7 -95t-30 -98q-15 1 -27 3t-23 7q14 48 19.5 90.5t3.5 88.5z" />
    <glyph glyph-name="uni021B" unicode="&#x21b;" horiz-adv-x="371" 
d="M272 207q16 -2 31.5 -6.5t26.5 -11.5q-2 -84 -33.5 -131.5t-85.5 -47.5q-63 0 -95 71.5t-32 211.5q0 46 3 92t9 94q-19 1 -37.5 4t-37.5 7q1 14 4 27t8 24q19 -4 36 -7t34 -4q4 26 10.5 56.5t17.5 75.5q21 -1 41.5 -4.5t39.5 -9.5q-10 -33 -18 -64t-13 -60q40 -1 78 0.5
t74 4.5q0 -10 -2.5 -22.5t-6.5 -26.5q-37 -4 -75.5 -5.5t-76.5 -0.5q-7 -47 -11 -96t-4 -96q0 -106 15.5 -161.5t44.5 -55.5q27 0 40.5 34.5t14.5 107.5zM160 -29q18 4 32.5 5t31.5 -1q2 -46 -7 -95t-30 -98q-15 1 -27 3t-23 7q14 48 19.5 90.5t3.5 88.5z" />
    <glyph glyph-name="circumflex" unicode="&#x2c6;" horiz-adv-x="260" 
d="M257 610q-12 -12 -21 -18t-20 -11q-31 23 -51 42.5t-37 43.5q-16 -24 -36.5 -44t-51.5 -43q-11 5 -20.5 12t-19.5 17q40 36 61 63.5t38 64.5q5 1 13 2t16 1q5 0 13 -0.5t16 -1.5q14 -33 34.5 -60t65.5 -68z" />
    <glyph glyph-name="caron" unicode="&#x2c7;" horiz-adv-x="260" 
d="M1 707q12 12 21 18t20 11q31 -23 51 -42.5t37 -43.5q16 24 36.5 44t51.5 43q11 -5 20.5 -12t19.5 -17q-40 -36 -61 -63.5t-38 -64.5q-5 -1 -13 -2t-16 -1q-5 0 -13 0.5t-16 1.5q-14 33 -34.5 60t-65.5 68z" />
    <glyph glyph-name="uni02C9" unicode="&#x2c9;" horiz-adv-x="259" 
d="M32 645q-1 12 0 28.5t3 27.5q49 -9 97.5 -10.5t95.5 4.5q1 -13 1 -26.5t-2 -31.5q-62 -7 -112 -5t-83 13z" />
    <glyph glyph-name="breve" unicode="&#x2d8;" horiz-adv-x="260" 
d="M40 656q-10 15 -14.5 32t-3.5 39q12 4 26 6t28 1q-4 -38 9.5 -54t48.5 -16q34 0 47 18.5t4 53.5q11 3 25.5 3t28.5 -2q2 -26 -1.5 -46.5t-12.5 -36.5q-12 -20 -35 -30t-57 -10q-30 0 -53.5 10.5t-39.5 31.5z" />
    <glyph glyph-name="dotaccent" unicode="&#x2d9;" horiz-adv-x="261" 
d="M153 745q14 -1 24.5 -3.5t19.5 -7.5q-10 -22 -20.5 -52.5t-16.5 -59.5q-9 -1 -25 -1.5t-38 0.5q-2 8 -2.5 15.5t-0.5 15.5q0 21 4.5 45.5t12.5 40.5q11 5 20 6.5t22 0.5z" />
    <glyph glyph-name="ring" unicode="&#x2da;" horiz-adv-x="260" 
d="M32 665q0 46 29 73t78 27q40 0 63.5 -21.5t23.5 -58.5q0 -50 -28 -79t-76 -29q-39 0 -64.5 25t-25.5 63zM169 678q0 25 -10 39t-27 14q-20 0 -32.5 -18t-12.5 -48q0 -23 11.5 -37t28.5 -14q19 0 30.5 17.5t11.5 46.5z" />
    <glyph glyph-name="ogonek" unicode="&#x2db;" horiz-adv-x="261" 
d="M130 8l30 -9q-35 -31 -51 -58.5t-16 -56.5q0 -18 9 -28t26 -10t31.5 10.5t27.5 33.5q8 -6 13.5 -15t11.5 -24q-20 -30 -44.5 -44t-55.5 -14q-37 0 -59.5 20.5t-22.5 54.5q0 37 24.5 71.5t75.5 68.5z" />
    <glyph glyph-name="tilde" unicode="&#x2dc;" horiz-adv-x="260" 
d="M136 707q16 -9 24 -11.5t15 -2.5q15 0 20 9t4 29q13 1 23.5 -1t22.5 -8q3 -41 -13 -62.5t-49 -21.5q-13 0 -26 4t-33 16q-15 9 -22 11.5t-13 2.5q-13 0 -18.5 -9t-4.5 -27q-11 -1 -23.5 1t-22.5 6q-3 39 13 61t48 22q12 0 23.5 -3.5t31.5 -15.5z" />
    <glyph glyph-name="hungarumlaut" unicode="&#x2dd;" horiz-adv-x="260" 
d="M142 744q-5 -43 -21 -85.5t-43 -87.5q-12 0 -24 2t-28 6q17 46 26.5 87.5t13.5 81.5q18 2 39 1t37 -5zM260 744q-5 -43 -21 -85.5t-43 -87.5q-12 0 -24 2t-28 6q17 46 26.5 87.5t13.5 81.5q18 2 39 1t37 -5z" />
    <glyph glyph-name="pi" unicode="&#x3c0;" horiz-adv-x="605" 
d="M221 324q1 -85 -8.5 -153t-35.5 -164q-16 -2 -38.5 1t-36.5 9q27 89 37.5 149t11.5 137q1 45 -1 79.5t-7 67.5q-20 -2 -43.5 -4t-70.5 -7q-6 23 -7 43.5t3 39.5q98 5 266 6.5t283 -0.5q5 -17 5.5 -38.5t-4.5 -43.5q-21 2 -49 3.5t-81 3.5q-10 -63 -13.5 -102.5
t-3.5 -72.5q0 -103 14.5 -158t41.5 -55q18 0 25.5 24t9.5 87q14 -1 29.5 -5.5t28.5 -12.5q-3 -72 -28 -110t-71 -38q-60 0 -91.5 72.5t-31.5 207.5q0 35 3.5 74.5t10.5 91.5q-16 1 -34 1h-51q-12 0 -26.5 -0.5t-46.5 -1.5q4 -29 6.5 -63t3.5 -68z" />
    <glyph glyph-name="bn_danda" unicode="&#x964;" horiz-adv-x="586" 
d="M440 262q0 -104 7.5 -193t21.5 -150q-25 -10 -44.5 -14.5t-34.5 -4.5q0 10 -1 22.5l-3 37.5q-3 40 -4 61t-1 40q0 205 5 308.5t17 215.5l52 10q-9 -116 -12 -189t-3 -144z" />
    <glyph glyph-name="bn_doubledanda" unicode="&#x965;" horiz-adv-x="836" 
d="M440 262q0 -104 7.5 -193t21.5 -150q-25 -10 -44.5 -14.5t-34.5 -4.5q0 10 -1 22.5l-3 37.5q-3 40 -4 61t-1 40q0 205 5 308.5t17 215.5l52 10q-9 -116 -12 -189t-3 -144zM690 262q0 -104 7.5 -193t21.5 -150q-25 -10 -44.5 -14.5t-34.5 -4.5q0 10 -1 22.5l-3 37.5
q-3 40 -4 61t-1 40q0 205 5 308.5t17 215.5l52 10q-9 -116 -12 -189t-3 -144z" />
    <glyph glyph-name="bn_chandrabindu" unicode="&#x981;" horiz-adv-x="0" 
d="M5 885q19 0 31.5 -13.5t12.5 -33.5q0 -18 -12.5 -30.5t-30.5 -12.5t-31 14t-13 33q0 18 12.5 30.5t30.5 12.5zM109 824l38 -13q-10 -63 -51 -103t-97 -40q-52 0 -90.5 31.5t-46.5 79.5l54 19q9 -31 34 -51.5t56 -20.5q37 0 64.5 26.5t38.5 71.5z" />
    <glyph glyph-name="bn_anusvar" unicode="&#x982;" horiz-adv-x="441" 
d="M231 606q59 0 97.5 -36.5t38.5 -93.5q0 -61 -45 -104.5t-108 -43.5q-58 0 -96 37t-38 93q1 62 44.5 105t106.5 43zM213 554q-36 0 -57 -21t-21 -57q0 -43 27 -69.5t69 -26.5q37 0 59 22t22 59q0 42 -27.5 67.5t-71.5 25.5zM54 312q110 -43 211 -130.5t160 -194.5
q-8 -11 -18.5 -19.5t-25.5 -14.5q-67 108 -162.5 186.5t-193.5 107.5q4 20 11 35.5t18 29.5z" />
    <glyph glyph-name="bn_bisarga" unicode="&#x983;" horiz-adv-x="433" 
d="M230 606q60 0 98.5 -36.5t38.5 -93.5q-1 -61 -45.5 -104.5t-107.5 -43.5q-58 0 -96 37t-38 93q0 62 43.5 105t106.5 43zM213 554q-36 0 -57 -21t-21 -57q0 -43 27 -69.5t69 -26.5q37 0 59 22t22 59q0 42 -27.5 67.5t-71.5 25.5zM227 270q57 0 95 -37t38 -93
q0 -59 -41.5 -99.5t-102.5 -40.5q-56 0 -93.5 36.5t-37.5 91.5q0 60 41 101t101 41zM213 216q-34 0 -54.5 -19.5t-20.5 -52.5q0 -40 27 -65.5t68 -25.5q34 0 54 19t20 52q0 40 -26.5 66t-67.5 26z" />
    <glyph glyph-name="bn_a" unicode="&#x985;" horiz-adv-x="632" 
d="M569 422q0 -129 -19 -254.5t-49 -188.5q-15 0 -30.5 4t-26.5 10q-20 35 -40.5 63.5t-42.5 50.5q-16 -9 -33 -14t-36 -5q-84 0 -153.5 86.5t-123.5 258.5q11 10 23 17t23 12q49 -152 106 -228t122 -76q45 0 68 34.5t23 100.5q0 69 -22 111.5t-58 42.5q-22 0 -34 -18.5
t-12 -53.5q0 -18 5 -36.5t14 -32.5q-17 0 -35 3t-28 8q-7 13 -10.5 29.5t-3.5 34.5q0 51 26 84t66 33q63 0 104.5 -66t41.5 -158q0 -38 -9 -71.5t-26 -58.5q19 -24 35 -50.5t30 -55.5q20 67 29.5 159t9.5 213q0 35 -1 68t-4 73q-44 5 -89.5 8t-91.5 3q-78 0 -156 -8
t-161 -24q-2 6 -3.5 15t-1.5 19q0 7 1.5 13.5t3.5 11.5q77 17 157.5 26t162.5 9q83 0 166 -9.5t146 -25.5q3 -6 4 -12t1 -13t-1 -14.5t-4 -19.5q-11 2 -24.5 4.5t-41.5 7.5q2 -28 2.5 -58t0.5 -62z" />
    <glyph glyph-name="bn_aa" unicode="&#x986;" horiz-adv-x="866" 
d="M790 485q-15 -128 -17 -256.5t10 -257.5q-17 -4 -41 -5.5t-41 -0.5q3 191 8.5 290t16.5 203q-7 30 -45.5 52.5t-108.5 36.5q-9 -46 -14 -111.5t-5 -139.5q0 -97 6.5 -174.5t19.5 -125.5q-12 -7 -30.5 -11t-39.5 -4q-25 44 -55.5 80t-64.5 64q-19 -21 -43.5 -31.5
t-52.5 -10.5q-84 0 -153.5 86.5t-123.5 258.5q11 10 23 17t23 12q49 -152 106 -228t122 -76q44 0 67 34.5t23 100.5q0 68 -21.5 110.5t-57.5 42.5q-23 0 -35 -18.5t-12 -52.5q0 -17 5.5 -36t14.5 -33q-18 0 -36 3t-28 8q-6 13 -9.5 30t-3.5 34q0 51 26 84t66 33
q62 0 104 -66.5t42 -157.5q0 -29 -5 -55t-15 -49q23 -21 43 -45t38 -52q-2 22 -3 51t-1 73q0 108 7.5 205.5t21.5 157.5q-40 5 -84.5 7.5t-89.5 2.5q-85 0 -173.5 -9t-173.5 -26q-5 16 -5 33.5t5 25.5q77 19 168.5 29t181.5 10q138 0 246.5 -25t157.5 -69q17 18 45.5 32
t66.5 23q4 -8 4 -26.5t-4 -32.5q-28 -8 -47.5 -19.5t-28.5 -25.5z" />
    <glyph glyph-name="bn_i" unicode="&#x987;" horiz-adv-x="454" 
d="M458 563q0 -11 -1 -19.5t-3 -13.5q-43 11 -106 18.5t-119 7.5q-52 0 -114 -7t-115 -19q-3 7 -4.5 15.5t-1.5 17.5q0 8 1.5 15t4.5 11q47 13 110.5 21.5t120.5 8.5q41 0 88.5 -5t90.5 -13q-13 50 -38 75t-63 25q-18 0 -37.5 -2.5t-57.5 -10.5q-36 -8 -54 -10.5t-34 -2.5
q-47 0 -83.5 24.5t-66.5 77.5q8 11 19.5 21.5t23.5 16.5q27 -45 53 -63.5t58 -18.5q12 0 27.5 2.5t49.5 9.5q40 9 61 12t39 3q58 0 96.5 -45.5t50.5 -125.5q2 -3 3 -8.5t1 -17.5zM474 -74q-7 -11 -16 -22t-24 -26q-88 96 -181 158.5t-199 95.5l-20 85q48 -17 89.5 -25.5
t76.5 -8.5q61 0 93.5 26.5t32.5 76.5q0 61 -43 110.5t-96 49.5q-26 0 -40 -12t-14 -34q0 -19 11.5 -38t37.5 -43q-14 -7 -34 -11t-36 -3q-20 25 -30 49t-10 49q0 44 29 69.5t76 25.5q82 0 147 -71.5t65 -160.5q0 -68 -43.5 -107t-122.5 -42q63 -35 126 -83t125 -108z" />
    <glyph glyph-name="bn_ii" unicode="&#x988;" horiz-adv-x="543" 
d="M546 563q0 -10 -1 -18.5t-2 -14.5q-55 12 -125 19t-144 7q-73 0 -141.5 -6.5t-132.5 -19.5q-3 7 -4.5 15.5t-1.5 17.5q0 8 1.5 15t4.5 11q55 14 125.5 22t148.5 8q62 0 120.5 -5t103.5 -14q-12 51 -37 76t-64 25q-17 0 -37 -2t-59 -9q-37 -7 -55 -9t-34 -2
q-47 0 -84 23.5t-67 74.5q7 9 18 17.5t27 17.5q28 -43 53 -59t57 -16q12 0 27.5 2t50.5 8q42 8 63 10.5t38 2.5q58 0 97 -45.5t51 -125.5q2 -3 2.5 -8.5t0.5 -17.5zM492 -5q-13 -6 -30.5 -9.5t-33.5 -4.5q-22 79 -22.5 177.5t18.5 189.5q-58 -162 -111 -220t-139 -58
q-24 0 -51.5 5t-54.5 14l-20 80q39 -17 69 -24.5t55 -7.5q54 0 85.5 32t31.5 86q0 69 -45 122.5t-102 53.5q-25 0 -39.5 -12.5t-14.5 -34.5q0 -24 19.5 -47t53.5 -40q-10 -13 -26.5 -22t-29.5 -10q-38 28 -56.5 58t-18.5 64q0 44 29 69.5t76 25.5q71 0 130 -56.5t74 -136.5
q24 56 47.5 99.5t42.5 65.5q20 -7 35.5 -16t28.5 -23q-30 -95 -30.5 -200.5t29.5 -219.5z" />
    <glyph glyph-name="bn_u" unicode="&#x989;" horiz-adv-x="566" 
d="M545 205q0 -104 -50.5 -164.5t-137.5 -60.5q-118 0 -201.5 104.5t-145.5 342.5q14 10 26.5 16.5t24.5 11.5q58 -212 129 -308.5t168 -96.5q64 0 98.5 44.5t34.5 127.5q0 30 -4 59t-11 56q-42 -52 -73.5 -72.5t-63.5 -20.5q-49 0 -83 41t-34 96q0 29 8 72.5t25 107.5
q-70 -1 -133.5 -9t-121.5 -22q-3 6 -4 14t-1 19q0 9 1 15.5t4 10.5q64 18 135 26.5t150 8.5q64 0 123 -6t114 -18q-13 51 -38 76t-63 25q-18 0 -38.5 -2.5t-59.5 -10.5q-38 -7 -56.5 -9.5t-33.5 -2.5q-50 0 -88 24.5t-68 76.5q8 11 19.5 21.5t23.5 16.5q27 -44 54.5 -62.5
t61.5 -18.5q12 0 28.5 2t51.5 10q43 8 64 11t39 3q59 0 97.5 -45.5t49.5 -125.5q3 -4 4.5 -11t1.5 -15q0 -9 -1.5 -18t-4.5 -15q-53 13 -115 21t-130 10q-27 -93 -35 -131.5t-8 -64.5q0 -29 13 -45t37 -16q21 0 50 26t76 88q12 -2 24.5 -7t22.5 -12q21 -42 32.5 -92.5
t11.5 -101.5z" />
    <glyph glyph-name="bn_uu" unicode="&#x98a;" horiz-adv-x="623" 
d="M602 206q0 -109 -55 -170.5t-155 -61.5q-128 0 -224.5 103.5t-162.5 311.5q8 6 17 11t30 15q47 -155 103 -244t131 -127q-58 48 -103.5 140t-86.5 251q10 7 21.5 13.5t26.5 12.5q54 -221 115.5 -316t151.5 -95q67 0 102.5 46t35.5 132q0 25 -3.5 53t-10.5 57
q-45 -54 -76 -74t-64 -20q-49 0 -82.5 41.5t-33.5 99.5q0 23 7 61t25 112v0q-88 0 -164 -7t-147 -21q-3 5 -4.5 12.5t-1.5 19.5q0 9 1.5 15.5t4.5 11.5q68 16 145.5 24t165.5 8q77 0 143.5 -5.5t124.5 -17.5q-12 51 -37.5 77t-63.5 26q-21 0 -45 -2.5t-73 -10.5
q-46 -7 -68.5 -9.5t-41.5 -2.5q-51 0 -89.5 24.5t-68.5 76.5q8 11 20 21t24 17q28 -45 55.5 -63t62.5 -18q14 0 33.5 2t63.5 10q52 8 78 11t47 3q59 0 97.5 -45.5t49.5 -125.5q3 -7 4 -14t1 -14q0 -9 -1.5 -17.5t-3.5 -13.5q-54 12 -115 18.5t-130 8.5q-25 -85 -33.5 -125
t-8.5 -64q0 -30 12.5 -47t33.5 -17q22 0 48 21t82 93q11 -2 23.5 -7.5t22.5 -11.5q21 -42 32.5 -92.5t11.5 -100.5z" />
    <glyph glyph-name="bn_ri" unicode="&#x98b;" horiz-adv-x="676" 
d="M363 63v1q0 88 5 172t15 158q-56 -23 -115.5 -59t-100.5 -72q66 -34 115.5 -84t80.5 -116zM419 64v-51t1 -28q-10 -3 -24 -4t-30 0q-44 96 -105.5 154t-140.5 80q-13 18 -19 36t-7 42q38 38 102.5 79.5t136.5 74.5q-2 19 -11 36t-25 32q-28 -39 -68.5 -62t-80.5 -23
q-49 0 -79 29.5t-30 80.5q0 15 3 28.5t9 25.5q15 6 33.5 9.5t36.5 2.5q-7 -10 -11.5 -25t-5.5 -31q0 -27 13.5 -40.5t39.5 -13.5q33 0 67.5 21t59.5 57l41 -22q16 -16 29 -39t19 -48q4 2 10.5 4.5t9.5 3.5q2 22 5.5 46t16.5 86q17 0 33.5 -4.5t30.5 -12.5
q-24 -83 -37.5 -168t-18.5 -186q37 -24 70 -57.5t59 -74.5q-5 36 -8 80.5t-3 95.5q0 91 10.5 169t31.5 146q14 0 28.5 -2.5t26.5 -7.5q-20 -56 -31.5 -131t-11.5 -153q0 -83 12 -158.5t35 -134.5q-13 -7 -30.5 -10.5t-34.5 -2.5q-34 62 -72.5 107t-84.5 74q-1 -19 -1 -41.5
v-68.5z" />
    <glyph glyph-name="bn_li" unicode="&#x98c;" horiz-adv-x="473" 
d="M433 325q0 -71 -20.5 -163t-55.5 -182q-16 0 -31.5 3.5t-29.5 10.5q4 111 -32.5 179t-98.5 68q-41 0 -66 -30t-25 -79q0 -39 16 -62t42 -23q22 0 39.5 18.5t28.5 51.5q10 -18 17.5 -38t8.5 -35q-13 -29 -37 -46t-51 -17q-48 0 -82 47t-34 115q0 73 39.5 121t100.5 48
q68 0 115 -58.5t57 -157.5q21 55 34 126t13 131q0 54 -28 80t-123 46q-61 14 -89 23.5t-47 22.5q-28 18 -44 46.5t-24 73.5q11 8 25.5 14t27.5 9q11 -55 35 -80.5t88 -39.5l68 -15q88 -19 125.5 -67.5t37.5 -140.5z" />
    <glyph glyph-name="bn_e" unicode="&#x98f;" horiz-adv-x="582" 
d="M491 -10q-12 -5 -28 -7.5t-32 -2.5q-13 25 -21 40.5t-13 20.5q-12 14 -26.5 21t-33.5 7q-14 0 -32 -3.5t-58 -15.5q-44 -14 -66 -18t-40 -4q-54 0 -86 35t-32 92q0 31 10.5 67.5t29.5 71.5q15 -1 27.5 -5t22.5 -11q-13 -20 -21 -50.5t-8 -55.5q0 -35 18 -53.5t50 -18.5
q13 0 30.5 3.5t54.5 15.5q39 13 58.5 17t34.5 4q35 0 59 -20.5t41 -65.5q12 87 19 206t7 246q0 36 -15.5 56.5t-42.5 20.5q-51 0 -109 -62.5t-58 -121.5q0 -27 14.5 -41.5t40.5 -14.5q21 0 41 10.5t37 31.5q3 -4 4.5 -10.5t1.5 -16.5q0 -13 -3 -26t-9 -23q-17 -15 -39 -23
t-46 -8q-51 0 -83 31t-32 82q0 40 19.5 82t54.5 79q36 38 78 60t79 22q55 0 92 -42.5t37 -107.5q0 -142 -6.5 -263.5t-20.5 -230.5z" />
    <glyph glyph-name="bn_ai" unicode="&#x990;" horiz-adv-x="651" 
d="M491 -10q-12 -5 -28 -7.5t-32 -2.5q-13 25 -21 40.5t-13 20.5q-12 14 -26.5 21t-33.5 7q-14 0 -32 -3.5t-58 -15.5q-44 -14 -66 -18t-40 -4q-54 0 -86 35t-32 92q0 31 10.5 67.5t29.5 71.5q15 -1 27.5 -5t22.5 -11q-13 -20 -21 -50.5t-8 -55.5q0 -35 18 -53.5t50 -18.5
q13 0 30.5 3.5t54.5 15.5q39 13 58.5 17t34.5 4q35 0 59 -20.5t41 -65.5q12 87 19 206t7 246q0 36 -15.5 56.5t-42.5 20.5q-51 0 -109 -62.5t-58 -121.5q0 -27 14.5 -41.5t40.5 -14.5q21 0 41 10.5t37 31.5q3 -4 4.5 -10.5t1.5 -16.5q0 -13 -3 -26t-9 -23q-17 -15 -39 -23
t-46 -8q-51 0 -83 31t-32 82q0 40 19.5 82t54.5 79q36 38 78 60t79 22q55 0 92 -42.5t37 -107.5v-8.5v-9.5q30 23 46.5 55t16.5 66q0 29 -14 48t-44 31q-15 6 -36 11t-68 13q-57 9 -86.5 18t-50.5 22q-27 17 -43.5 46t-24.5 73q12 9 26.5 15t25.5 8q12 -57 37 -82.5
t86 -36.5l71 -13q84 -17 123.5 -55.5t39.5 -103.5q0 -53 -26 -100.5t-80 -92.5q-1 -106 -7.5 -204t-18.5 -194z" />
    <glyph glyph-name="bn_o" unicode="&#x993;" horiz-adv-x="661" 
d="M614 160q0 -80 -50.5 -130t-135.5 -50q-135 0 -236 138t-171 426q12 10 24.5 17t26.5 12q63 -261 153.5 -392t206.5 -131q59 0 91.5 32.5t32.5 92.5q0 27 -7.5 51t-21.5 45q-21 -26 -45.5 -40t-50.5 -14q-39 0 -65 26.5t-26 67.5t25.5 68.5t64.5 27.5q23 0 45.5 -10.5
t39.5 -29.5q17 27 26 55.5t9 55.5q0 49 -27.5 75.5t-77.5 26.5q-67 1 -112 -42.5t-45 -108.5q0 -12 1 -24t3 -20q-18 0 -40.5 9t-33.5 22q-1 96 57.5 157t149.5 61q81 0 131.5 -47t50.5 -123q0 -40 -13.5 -80.5t-36.5 -71.5q28 -33 42.5 -71.5t14.5 -80.5zM382 316
q0 -17 12 -28.5t31 -11.5q18 0 34.5 11.5t32.5 35.5q-13 19 -30 29t-34 10q-20 0 -33 -13t-13 -33z" />
    <glyph glyph-name="bn_au" unicode="&#x994;" horiz-adv-x="725" 
d="M614 160q0 -80 -50.5 -130t-135.5 -50q-135 0 -236 138t-171 426q12 10 24.5 17t26.5 12q63 -261 153.5 -392t206.5 -131q59 0 91.5 32.5t32.5 92.5q0 27 -7.5 51t-21.5 45q-21 -26 -45.5 -40t-50.5 -14q-39 0 -65 26.5t-26 67.5t25.5 68.5t64.5 27.5q23 0 45.5 -10.5
t39.5 -29.5q17 27 26 55.5t9 55.5q0 49 -27.5 75.5t-77.5 26.5q-67 1 -112 -42.5t-45 -108.5q0 -12 1 -24t3 -20q-18 0 -40.5 9t-33.5 22q-1 96 57.5 157t149.5 61q76 0 126 -42.5t55 -112.5q22 22 34.5 51t12.5 58q0 39 -29 60.5t-133 41.5q-62 11 -90.5 20t-47.5 21
q-27 17 -43 46.5t-24 75.5q11 6 25.5 10.5t27.5 6.5q11 -56 36.5 -80t93.5 -37l67 -13q80 -15 119.5 -54.5t39.5 -103.5q0 -51 -25.5 -101.5t-76.5 -99.5q-7 -19 -16 -36.5t-20 -32.5q28 -33 42.5 -71.5t14.5 -80.5zM382 316q0 -17 12 -28.5t31 -11.5q18 0 34.5 11.5
t32.5 35.5q-13 19 -30 29t-34 10q-20 0 -33 -13t-13 -33z" />
    <glyph glyph-name="bn_ka" unicode="&#x995;" horiz-adv-x="607" 
d="M360 284q0 -92 4.5 -168.5t13.5 -123.5q-13 -5 -31 -8t-39 -3q-48 104 -109 165.5t-137 81.5q-15 16 -22.5 33.5t-10.5 41.5q43 51 121 106t163 93q1 10 2 22t3 37h-10.5h-10.5q-72 0 -146 -7.5t-151 -23.5q-2 6 -3.5 15t-1.5 17t1.5 15t3.5 12q68 17 145.5 26t155.5 9
q81 0 165.5 -9.5t140.5 -25.5q3 -6 4.5 -12.5t1.5 -12.5q0 -5 -0.5 -9.5t-5.5 -24.5q-55 11 -116 18.5t-119 10.5q-2 -25 -3 -37t-2 -22q98 -22 156.5 -77.5t58.5 -124.5q0 -48 -26.5 -91.5t-66.5 -66.5q-15 4 -29 19t-23 37q48 18 73.5 45.5t25.5 61.5q0 45 -45.5 77
t-128.5 47q-1 -49 -1.5 -80.5t-0.5 -62.5zM301 79q-1 29 -1.5 55.5t-0.5 53.5q0 67 1.5 123t5.5 111q-52 -25 -108 -65.5t-94 -79.5q61 -29 111.5 -79.5t85.5 -118.5z" />
    <glyph glyph-name="bn_kha" unicode="&#x996;" horiz-adv-x="546" 
d="M486 471q0 -166 -18 -286t-55 -206q-18 0 -36.5 4t-30.5 11q-42 107 -90 161t-113 70q-15 14 -24.5 32.5t-10.5 36.5l80 41q62 31 89.5 63t27.5 73q0 8 -1 14t-3 12q-28 -38 -67.5 -61.5t-76.5 -23.5q-52 0 -82 29.5t-30 80.5q0 15 2.5 28t8.5 25q13 6 31.5 9.5t38.5 3.5
q-8 -11 -12 -24t-4 -28q0 -30 13 -43.5t41 -13.5q31 0 65.5 22t58.5 58l43 -22q13 -19 19.5 -42.5t6.5 -51.5q0 -53 -36 -98.5t-101 -75.5l-12 -5q53 -30 94 -87t67 -137q28 67 42.5 162t14.5 216q0 11 -0.5 22.5t-0.5 29.5q-1 11 -1 15v7q0 24 8.5 41t24.5 25q16 9 37 16.5
t52 14.5q3 -3 4.5 -10.5t1.5 -16.5q0 -11 -1.5 -19.5t-4.5 -12.5q-15 -4 -25.5 -8t-19.5 -8q-8 -5 -11.5 -14.5t-3.5 -28.5z" />
    <glyph glyph-name="bn_ga" unicode="&#x997;" horiz-adv-x="473" 
d="M409 467q0 -147 -12.5 -266t-39.5 -221q-19 0 -37.5 2.5t-32.5 7.5q21 63 34 120t20 118v0q4 38 6 67.5t2 51.5q0 88 -47 145.5t-111 57.5q-46 0 -72.5 -23.5t-26.5 -64.5q0 -4 0.5 -8t1.5 -9q22 12 43.5 18t41.5 6q42 0 71.5 -31t29.5 -75q0 -42 -30 -95t-91 -119
q-17 10 -32.5 24.5t-26.5 31.5q69 61 101 102t32 67q0 19 -11.5 29t-32.5 10q-26 0 -57.5 -12t-60.5 -33l-29 38q-4 12 -5.5 25.5t-1.5 30.5q0 68 43.5 112.5t111.5 44.5q57 0 100.5 -39.5t67.5 -112.5q-1 7 -1 14.5v20.5q0 20 8.5 35t24.5 24q16 8 36 15t47 13
q3 -4 4.5 -11t1.5 -17t-1.5 -18.5t-4.5 -12.5q-17 -5 -26 -8.5t-16 -6.5q-12 -6 -17 -17t-5 -31z" />
    <glyph glyph-name="bn_gha" unicode="&#x998;" horiz-adv-x="486" 
d="M258 411q9 -13 14.5 -31t6.5 -38l-128 -99q61 -26 110 -68t84 -99q-2 23 -3 53t-1 74q0 95 5 178t16 170q-25 3 -53.5 4.5t-58.5 1.5h-21.5t-13.5 -1q-54 -22 -81.5 -51t-27.5 -63q0 -30 18.5 -49.5t46.5 -19.5q19 0 42.5 10t44.5 28zM405 286q0 -106 5.5 -177t17.5 -115
q-11 -6 -28 -9t-41 -3q-50 90 -113.5 143t-142.5 70q-17 15 -25.5 32.5t-8.5 38.5l88 67q-51 4 -81.5 34t-30.5 78q0 30 11.5 54.5t35.5 47.5q-25 -3 -48 -7.5t-44 -9.5q-3 8 -4 16.5t-1 16.5q0 7 1.5 14t3.5 12q47 14 114.5 22.5t138.5 8.5q63 0 123.5 -8t109.5 -23
q2 -4 3.5 -11t1.5 -14t-1 -15t-4 -19q-12 3 -26.5 6t-36.5 7q-10 -60 -14 -116.5t-4 -140.5z" />
    <glyph glyph-name="bn_nga" unicode="&#x999;" horiz-adv-x="574" 
d="M301 505q22 -7 41 -10t35 -3q34 0 52.5 14t18.5 39q0 21 -15 34t-40 13q-30 0 -53.5 -22.5t-38.5 -64.5zM543 192q0 -103 -50.5 -162.5t-137.5 -59.5q-117 0 -200 106t-145 350q11 6 24 11.5t29 10.5q58 -214 127 -310.5t166 -96.5q64 0 98.5 44t34.5 126q0 30 -3.5 57.5
t-9.5 52.5q-42 -46 -73 -65t-62 -20q-53 -2 -86.5 38.5t-33.5 106.5q0 25 2 46.5t6 40.5q-36 13 -68.5 30t-57.5 34q6 21 13 36.5t15 27.5q23 -19 53.5 -37t61.5 -32q21 53 57 80.5t86 27.5q47 0 77 -26.5t30 -67.5q0 -47 -35 -75.5t-93 -28.5q-16 0 -36.5 3t-45.5 9
q-3 -19 -5 -39.5t-2 -41.5q0 -39 11 -56.5t36 -17.5q21 0 52.5 25.5t74.5 77.5q11 -2 23.5 -7.5t22.5 -11.5q21 -41 32.5 -89.5t11.5 -96.5z" />
    <glyph glyph-name="bn_ca" unicode="&#x99a;" horiz-adv-x="437" 
d="M324 398q42 -19 59.5 -45.5t17.5 -68.5q0 -119 -64 -211.5t-149 -92.5q-59 0 -92 45t-33 131q0 63 11.5 171t29.5 220q-30 -4 -56.5 -8.5t-47.5 -8.5q-2 7 -3.5 15.5t-1.5 17.5q0 7 1.5 14t3.5 12q41 12 102 20t115 8q53 0 120 -8.5t100 -19.5q2 -4 3 -10.5t1 -14.5
t-1 -17.5t-3 -16.5q-39 10 -100.5 17t-113.5 7q-8 0 -19 -0.5l-33 -1.5q17 -50 54.5 -87.5t98.5 -66.5zM124 127q0 -50 13 -73t42 -23q56 0 104.5 81.5t48.5 174.5q0 25 -11 39.5t-45 32.5q-41 22 -72 55t-47 72q-14 -101 -23.5 -201.5t-9.5 -157.5z" />
    <glyph glyph-name="bn_cha" unicode="&#x99b;" horiz-adv-x="492" 
d="M132 319q0 -16 8 -24t23 -8q38 0 69 40.5t31 91.5v8.5t-1 4.5q-43 10 -73 28t-49 44q-4 -44 -6 -93t-2 -92zM498 -97q-9 -13 -19.5 -24.5t-23.5 -21.5q-76 84 -157 144t-174 101l-16 86q40 -14 74 -20.5t62 -6.5q63 0 100 31.5t37 87.5q0 34 -14.5 65t-41.5 56
q-8 -69 -51.5 -115t-101.5 -46q-44 0 -74 25.5t-30 65.5q0 49 3 102.5t10 112.5q-29 -5 -48.5 -8.5t-32.5 -7.5q-2 7 -3.5 15.5t-1.5 17.5q0 7 1.5 14t3.5 12q40 13 114 22.5t140 9.5q67 0 136 -9.5t102 -22.5q2 -4 3 -10.5t1 -14.5t-1 -17.5t-3 -16.5q-36 12 -106 20
t-134 8q-23 0 -50 -1.5t-57 -3.5v0q22 -28 60.5 -47t111.5 -34q58 -37 92 -93t34 -117q0 -73 -49.5 -116.5t-137.5 -50.5q60 -37 120.5 -84.5t121.5 -107.5z" />
    <glyph glyph-name="bn_ja" unicode="&#x99c;" horiz-adv-x="690" 
d="M639 0q-12 -5 -33 -9t-36 -4q-11 43 -17 93.5t-6 102.5q0 58 8.5 115.5t23.5 106.5q-14 -4 -29 -6.5t-31 -2.5q-67 0 -119 42.5t-81 119.5q-34 -45 -58 -102.5t-24 -94.5q0 -26 12 -39.5t35 -13.5q26 0 62.5 20.5t69.5 54.5q11 -6 24 -15.5t23 -19.5q10 -33 15.5 -70.5
t5.5 -73.5q0 -99 -45 -155.5t-124 -56.5q-104 0 -177.5 101t-128.5 334q9 6 20.5 12t29.5 13q50 -204 111.5 -297.5t145.5 -93.5q59 0 88.5 41.5t29.5 123.5q0 20 -1.5 40.5t-4.5 39.5q-35 -29 -67 -44t-61 -15q-48 0 -83 36t-35 91q0 39 19 91.5t48 95.5q-68 -4 -133.5 -12
t-115.5 -19q-2 7 -3.5 16t-1.5 18q0 7 1.5 13.5t3.5 11.5q66 17 161 27.5t185 10.5t184 -10.5t160 -27.5q2 -4 3.5 -11.5t1.5 -14.5t-1 -14t-4 -19q-73 15 -158 24t-164 10q26 -57 58.5 -81t79.5 -24q25 0 48.5 6.5t46.5 18.5q13 -10 23.5 -25.5t16.5 -33.5
q-16 -46 -23.5 -97t-7.5 -108q0 -54 7.5 -109.5t21.5 -110.5z" />
    <glyph glyph-name="bn_jha" unicode="&#x99d;" horiz-adv-x="609" 
d="M292 78v11.5v10.5q0 74 7 157.5t19 165.5q-52 -24 -113 -65t-104 -82q63 -33 111 -83t80 -115zM357 168q0 -53 3.5 -97.5t10.5 -76.5q-12 -7 -29.5 -10t-40.5 -3q-44 101 -105 162t-139 83q-14 18 -20.5 36.5t-7.5 42.5q48 53 132.5 109t170.5 91l6.5 32.5t3.5 13.5
q-24 3 -48.5 4.5t-49.5 1.5q-60 0 -127.5 -7.5t-116.5 -19.5q-1 6 -2 15t-1 20q0 7 1 13.5t2 10.5q42 13 112.5 22.5t131.5 9.5q30 0 62 -3t58 -8q16 -2 24 -11.5t8 -25.5q0 -2 -0.5 -6.5t-3.5 -19.5q-15 -82 -22.5 -150t-10.5 -136q38 -25 71 -58.5t59 -75.5
q-7 49 -11 107.5t-4 119.5q0 12 0.5 29.5t1.5 56.5q0 23 0.5 34.5t0.5 21.5q1 22 10 37t28 24q25 12 47 19t47 13q3 -4 4.5 -11t1.5 -17t-1.5 -18.5t-4.5 -12.5q-19 -5 -34.5 -11t-26.5 -12t-15.5 -14t-4.5 -22q-1 -16 -1 -36v-54q0 -102 14 -190.5t41 -158.5
q-14 -8 -32 -12t-36 -3q-32 62 -71 108t-86 76v-16.5v-16.5z" />
    <glyph glyph-name="bn_nya" unicode="&#x99e;" horiz-adv-x="813" 
d="M513 261q30 -43 70.5 -67.5t79.5 -24.5q32 0 50.5 16.5t18.5 43.5q0 12 -3.5 25t-10.5 25q-16 -23 -36.5 -34.5t-42.5 -11.5q-34 0 -55.5 23t-21.5 59q0 34 22.5 56.5t57.5 22.5q18 0 37 -8.5t33 -22.5q8 15 11.5 29t3.5 27q0 23 -17 36t-46 13q-41 0 -78.5 -24.5
t-68.5 -70.5q-1 -46 -2 -69.5t-2 -42.5zM599 317q0 -15 9.5 -24.5t24.5 -9.5t29 11t30 35l-1 1l1 1q-11 11 -24.5 17.5t-26.5 6.5q-18 0 -30 -10.5t-12 -27.5zM491 -10q-12 -5 -28 -7.5t-32 -2.5q-13 25 -21 40.5t-13 20.5q-12 14 -26.5 21t-33.5 7q-14 0 -32 -3.5
t-58 -15.5q-44 -14 -66 -18t-40 -4q-54 0 -86 35t-32 92q0 31 10.5 67.5t29.5 71.5q15 -1 27.5 -5t22.5 -11q-13 -20 -21 -50.5t-8 -55.5q0 -35 18 -53.5t50 -18.5q13 0 30.5 3.5t54.5 15.5q39 13 58.5 17t34.5 4q35 0 59 -20.5t41 -65.5q12 87 19 206t7 246
q0 36 -15.5 56.5t-42.5 20.5q-51 0 -109 -62.5t-58 -121.5q0 -27 14.5 -41.5t40.5 -14.5q21 0 41 10.5t37 31.5q3 -4 4.5 -10.5t1.5 -16.5q0 -13 -3 -26t-9 -23q-17 -15 -39 -23t-46 -8q-51 0 -83 31t-32 82q0 40 19.5 82t54.5 79q36 38 78 60t79 22q55 0 92 -42.5
t37 -107.5v-13.5v-13.5q29 33 66.5 51.5t76.5 18.5q51 0 83.5 -29.5t32.5 -78.5q0 -27 -8 -53.5t-23 -50.5q18 -23 27 -47.5t9 -50.5q0 -49 -31.5 -79.5t-81.5 -30.5q-43 0 -85.5 24t-73.5 64q-4 -59 -8.5 -109.5t-10.5 -95.5z" />
    <glyph glyph-name="bn_tta" unicode="&#x99f;" horiz-adv-x="476" 
d="M327 375q51 0 82 -34t31 -91q0 -43 -18.5 -89t-51.5 -86q-36 -44 -79 -69.5t-82 -25.5q-55 0 -92.5 42.5t-37.5 107.5q0 109 5.5 213.5t16.5 205.5q-29 -3 -55.5 -8t-45.5 -11q-2 8 -3 15t-1 15t1 16t3 13q35 14 97.5 22.5t133.5 8.5q52 0 103 -5t97 -15q-13 50 -39 74.5
t-65 24.5q-17 0 -37 -2.5t-58 -9.5q-36 -7 -53.5 -9t-33.5 -2q-46 0 -80.5 20t-63.5 64q8 15 18 26.5t19 17.5q27 -39 53 -54.5t58 -15.5q12 0 27 2t49 8q41 8 62 10.5t38 2.5q60 0 99.5 -44.5t51.5 -123.5q2 -5 3 -12t1 -16q0 -7 -1 -15t-3 -16q-62 14 -122.5 20.5
t-120.5 6.5q-12 0 -25 -0.5t-37 -1.5q-14 -92 -22 -211.5t-8 -234.5q0 -36 16 -57t43 -22q26 0 57.5 21.5t58.5 57.5q25 33 38.5 67.5t13.5 65.5q0 32 -14.5 50.5t-39.5 18.5q-21 0 -41 -12t-33 -32q-5 6 -7.5 14.5t-2.5 18.5q0 11 2.5 22t7.5 20q17 16 39.5 24.5t47.5 8.5z
" />
    <glyph glyph-name="bn_ttha" unicode="&#x9a0;" horiz-adv-x="451" 
d="M61 162q8 -56 41 -86t88 -30q75 0 121 61.5t46 157.5q0 68 -25.5 139t-79.5 153h-1q11 -25 16.5 -52t5.5 -55q0 -97 -55.5 -172t-156.5 -116zM299 554q59 -88 88 -167t29 -152q0 -111 -59 -182t-153 -71q-86 0 -133.5 55t-47.5 152q0 6 0.5 12.5t1.5 22.5q91 33 148 100
t57 151q0 20 -4 41.5t-11 40.5q-50 -1 -103 -7.5t-112 -19.5q-2 8 -3.5 17t-1.5 17q0 7 1.5 13.5t3.5 11.5q47 13 97 21t100 10q-23 38 -34 74t-11 70q0 39 13.5 76.5t39.5 70.5q17 -8 27.5 -15.5t18.5 -16.5q-20 -21 -33 -56.5t-13 -68.5q0 -31 11 -63t36 -71
q50 -2 100.5 -10t98.5 -21q3 -4 4.5 -10.5t1.5 -14.5q0 -7 -1.5 -15t-4.5 -19q-36 8 -74.5 14.5t-77.5 9.5z" />
    <glyph glyph-name="bn_dda" unicode="&#x9a1;" horiz-adv-x="566" 
d="M545 205q0 -104 -50.5 -164.5t-137.5 -60.5q-118 0 -201.5 104.5t-145.5 342.5q14 10 26.5 16.5t24.5 11.5q58 -212 129 -308.5t168 -96.5q64 0 98.5 44.5t34.5 127.5q0 30 -4 59t-11 56q-42 -52 -73.5 -72.5t-63.5 -20.5q-49 0 -83 41t-34 96q0 29 8 72.5t25 107.5
q-70 -1 -133.5 -9t-121.5 -22q-3 6 -4 14t-1 19q0 9 1 15.5t4 10.5q64 18 135 26.5t150 8.5q76 0 146 -8.5t135 -26.5q3 -4 4.5 -11t1.5 -15q0 -9 -1.5 -18t-4.5 -15q-53 13 -115 21t-130 10q-27 -93 -35 -131.5t-8 -64.5q0 -29 13 -45t37 -16q21 0 50 26t76 88
q12 -2 24.5 -7t22.5 -12q21 -42 32.5 -92.5t11.5 -101.5z" />
    <glyph glyph-name="bn_ddha" unicode="&#x9a2;" horiz-adv-x="476" 
d="M327 375q51 0 82 -34t31 -91q0 -43 -18.5 -89t-51.5 -86q-36 -44 -79 -69.5t-82 -25.5q-55 0 -92.5 42.5t-37.5 107.5q0 109 5.5 213.5t16.5 205.5q-29 -3 -55.5 -8t-45.5 -11q-2 8 -3 15t-1 15t1 16t3 13q35 14 97.5 22.5t133.5 8.5q66 0 129.5 -8t115.5 -23q2 -5 3 -12
t1 -16q0 -7 -1 -15t-3 -16q-62 14 -122.5 20.5t-120.5 6.5q-12 0 -25 -0.5t-37 -1.5q-14 -92 -22 -211.5t-8 -234.5q0 -36 16 -57t43 -22q26 0 57.5 21.5t58.5 57.5q25 33 38.5 67.5t13.5 65.5q0 32 -14.5 50.5t-39.5 18.5q-21 0 -41 -12t-33 -32q-5 6 -7.5 14.5t-2.5 18.5
q0 11 2.5 22t7.5 20q17 16 39.5 24.5t47.5 8.5z" />
    <glyph glyph-name="bn_nna" unicode="&#x9a3;" horiz-adv-x="457" 
d="M392 475q-5 -220 -17.5 -308t-46.5 -187q-17 0 -35.5 5t-33.5 13q27 62 42 116t23 115l-1 -1q5 45 7 73t2 46q0 86 -43.5 141.5t-104.5 55.5q-41 0 -67.5 -31.5t-26.5 -80.5q0 -36 17.5 -58t45.5 -22q22 0 35 15.5t13 39.5q0 13 -5.5 29t-14.5 30q18 -2 37 -8.5t30 -15.5
q5 -10 7.5 -22t2.5 -25q0 -44 -29 -72.5t-72 -28.5q-53 0 -89 42.5t-36 108.5q0 74 41 122.5t105 48.5q56 0 98 -37t65 -107q-1 6 -1 12v15q0 24 6.5 37t22.5 23q17 9 40 17t48 13q3 -4 4.5 -12t1.5 -16t-2 -17t-4 -14q-16 -4 -27 -8t-18 -8q-11 -5 -15 -13t-5 -26z" />
    <glyph glyph-name="bn_ta" unicode="&#x9a4;" horiz-adv-x="575" 
d="M575 530q-70 13 -142.5 20t-145.5 7q-76 0 -145 -6.5t-142 -20.5q-3 5 -4.5 13t-1.5 18q0 9 1.5 16.5t4.5 11.5q65 16 135.5 23.5t151.5 7.5q77 0 150.5 -8t137.5 -23q3 -4 4.5 -11.5t1.5 -16.5q0 -7 -1.5 -15.5t-4.5 -15.5zM360 481q79 0 136 -82t57 -199
q0 -103 -48 -161.5t-134 -58.5q-114 0 -200.5 108t-151.5 338q11 8 23.5 14.5t27.5 13.5q54 -195 130.5 -298t168.5 -103q62 0 94.5 42.5t32.5 124.5q0 90 -35.5 147.5t-87.5 57.5q-28 0 -43 -19.5t-15 -55.5q0 -32 13 -62.5t36 -51.5q-9 -6 -21 -9t-24 -3q-10 0 -18 1.5
t-12 3.5q-20 25 -31.5 58t-11.5 66q0 56 31.5 92t82.5 36z" />
    <glyph glyph-name="bn_tha" unicode="&#x9a5;" horiz-adv-x="525" 
d="M459 463q0 -147 -18.5 -273.5t-52.5 -210.5q-18 0 -37 5t-31 14q-41 99 -90 150.5t-117 67.5q-14 14 -22 32.5t-9 37.5l80 47q59 35 85 69.5t26 77.5q0 36 -25 58t-64 22q-36 0 -57 -21.5t-21 -55.5q0 -25 9.5 -43.5t26.5 -28.5q-11 -11 -29 -18t-40 -11q-19 19 -30 44.5
t-11 54.5q0 58 41 98.5t104 40.5q67 0 109.5 -45.5t42.5 -114.5q0 -58 -33 -105.5t-101 -87.5l-18 -11q55 -29 97.5 -84t70.5 -131q29 69 43 163t14 216q0 9 -0.5 20t-1.5 30q-1 13 -1 18v8q0 20 9.5 36t26.5 26q15 8 36 15.5t54 15.5q3 -3 4.5 -10.5t1.5 -16.5
q0 -11 -1.5 -19.5t-4.5 -12.5q-18 -5 -28.5 -9t-16.5 -7q-12 -6 -16.5 -16t-4.5 -35z" />
    <glyph glyph-name="bn_da" unicode="&#x9a6;" horiz-adv-x="479" 
d="M394 199q0 -47 6 -97t18 -102q-13 -6 -29.5 -11t-32.5 -8q-10 42 -15.5 89.5t-5.5 99.5q0 57 6.5 112t18.5 101q-72 -51 -139.5 -123.5t-107.5 -142.5q-20 4 -39.5 12t-28.5 17q29 98 46.5 204t20.5 199q-30 -3 -58.5 -8t-53.5 -11q-2 6 -3.5 15.5t-1.5 18.5
q0 7 1.5 13.5t3.5 11.5q47 14 116 22.5t136 8.5q63 0 128 -9t99 -22q2 -4 3 -10t1 -14q0 -12 -1 -21t-3 -14q-40 12 -105 19.5t-127 7.5q-22 0 -43.5 -1t-42.5 -2v-14v-14q0 -64 -7 -134t-19 -132q53 66 111.5 118.5t120.5 90.5q19 -9 33.5 -21.5t26.5 -32.5
q-16 -51 -24.5 -105.5t-8.5 -110.5z" />
    <glyph glyph-name="bn_dha" unicode="&#x9a7;" horiz-adv-x="481" 
d="M393 292q0 -99 5 -174.5t14 -121.5q-13 -7 -31 -11t-40 -4q-50 105 -114.5 166.5t-145.5 80.5q-15 17 -23 35.5t-10 40.5q17 18 40.5 36.5t50.5 36.5q-49 11 -78.5 44t-29.5 79q0 52 33.5 85.5t87.5 33.5q36 0 67 -22t44 -56q-9 -14 -24 -26.5t-30 -16.5
q-2 26 -19.5 42.5t-42.5 16.5t-39.5 -18t-14.5 -49q0 -33 22 -54t54 -21q13 0 28.5 4t36.5 14q28 14 57.5 27.5t58.5 24.5q0 2 0.5 4.5t0.5 3.5q3 24 11 37.5t23 22.5q17 12 41.5 21t54.5 15q3 -4 4.5 -12t1.5 -16t-2 -17t-4 -14q-20 -6 -34 -11.5t-25 -11.5q-11 -7 -15 -14
t-6 -29q-5 -62 -6.5 -99.5t-1.5 -72.5zM333 71q-1 29 -1.5 56t-0.5 54q0 56 2.5 110.5t7.5 111.5q-56 -22 -115.5 -56.5t-100.5 -68.5q67 -32 119.5 -84.5t88.5 -122.5z" />
    <glyph glyph-name="bn_na" unicode="&#x9a8;" horiz-adv-x="480" 
d="M406 -12q-14 -3 -33.5 -5t-40.5 -2q-2 34 -3.5 79.5t-1.5 101.5v5.5v4.5v0q1 66 -57 125t-123 59q-34 0 -53 -17.5t-19 -49.5q0 -35 24 -55t67 -20q17 0 32.5 3.5t23.5 8.5q0 -17 -2.5 -37.5t-6.5 -34.5q-4 -4 -15 -6.5t-26 -2.5q-64 0 -104.5 41t-40.5 107q0 58 33 94
t87 36q53 0 102 -37.5t80 -101.5q2 77 8.5 140t19.5 128q-28 3 -54 4t-49 1q-61 0 -129 -7t-125 -20q-2 10 -3.5 18.5t-1.5 15.5t1.5 13.5t3.5 11.5q63 15 127.5 23t124.5 8q58 0 113.5 -7.5t114.5 -23.5q2 -4 3 -10t1 -16q0 -11 -1 -19.5t-3 -13.5q-14 4 -31.5 8t-37.5 7
q-11 -67 -16 -133.5t-5 -150.5q0 -83 4.5 -159.5t11.5 -113.5z" />
    <glyph glyph-name="bn_pa" unicode="&#x9aa;" horiz-adv-x="539" 
d="M478 -12q-14 -3 -33.5 -5t-40.5 -2q-3 35 -4 81t-1 107q0 49 1 93.5t3 83.5q-1 22 -4.5 43.5t-10.5 42.5q-40 -51 -100 -110.5t-119 -106.5q-16 11 -29 25t-22 30q3 2 6.5 4.5l10.5 7.5l-4 -2q11 7 17.5 18t6.5 24q0 27 -32.5 50t-91.5 38q-9 17 -15 34.5t-10 36.5
q42 64 100.5 101t120.5 37q67 0 115.5 -43t73.5 -123q3 24 4.5 33t2.5 16q5 26 12.5 38.5t20.5 20.5t34.5 15.5t47.5 12.5q3 -4 4.5 -12t1.5 -16t-2 -17t-4 -14q-17 -5 -25.5 -8t-15.5 -6q-11 -6 -16.5 -17.5t-8.5 -35.5q-5 -42 -7.5 -93t-2.5 -109q0 -83 4.5 -159.5
t11.5 -113.5zM82 459q53 -23 82.5 -51t29.5 -57q0 -7 -1.5 -14t-4.5 -13q47 38 91.5 82t77.5 85q-24 30 -55 46t-66 16q-41 0 -78 -22.5t-76 -71.5z" />
    <glyph glyph-name="bn_pha" unicode="&#x9ab;" horiz-adv-x="655" 
d="M408 292q0 -104 7.5 -178t22.5 -120q-12 -6 -30.5 -9.5t-41.5 -3.5q-54 94 -120.5 148t-150.5 71q-19 14 -29 32t-12 39l141 127q-3 2 -76.5 51.5t-86.5 86.5q-14 -2 -20.5 -3.5t-11.5 -2.5q-5 15 -5.5 32.5t5.5 26.5q65 16 157 26t184 10t177.5 -10t136.5 -26
q4 -10 4 -27.5t-4 -31.5q-61 15 -145.5 23.5t-171.5 8.5q-53 0 -109.5 -3.5t-113.5 -10.5q2 -15 14.5 -32.5t37.5 -39.5q14 -13 40 -34.5t31 -25.5l40 -34l-139 -130q66 -27 119 -70t91 -102q-2 20 -3 46.5t-1 63.5q0 90 3.5 163t10.5 145q122 -14 193.5 -68.5t71.5 -130.5
q0 -46 -26 -87t-66 -62q-15 3 -29 18.5t-22 36.5q47 16 72.5 41t25.5 56q0 41 -43.5 70.5t-124.5 43.5q-2 -28 -2.5 -58.5t-0.5 -65.5z" />
    <glyph glyph-name="bn_ba" unicode="&#x9ac;" horiz-adv-x="467" 
d="M377 292q0 -95 7 -172t20 -124q-12 -7 -30.5 -11t-39.5 -4q-52 98 -118 155.5t-150 76.5q-16 18 -23.5 35.5t-9.5 40.5q47 56 131 115.5t173 99.5q2 17 3.5 27t3.5 19q-25 3 -50 4.5t-50 1.5q-56 0 -122 -7t-122 -19q-2 6 -3.5 14.5t-1.5 17.5q0 8 1.5 15t3.5 12
q50 13 119 21.5t129 8.5q53 0 113.5 -8.5t105.5 -21.5q2 -4 3.5 -11.5t1.5 -14.5t-1 -13.5t-4 -19.5q-12 3 -27.5 6t-42.5 7q-11 -62 -15.5 -118t-4.5 -133zM318 79q-2 20 -2.5 46.5t-0.5 59.5q0 62 2.5 119.5t8.5 116.5q-54 -26 -115 -69.5t-103 -87.5q67 -29 120 -75.5
t90 -109.5z" />
    <glyph glyph-name="bn_bha" unicode="&#x9ad;" horiz-adv-x="603" 
d="M603 530q-73 14 -148.5 20.5t-154.5 6.5q-80 0 -154.5 -6.5t-145.5 -20.5q-2 5 -3.5 13.5t-1.5 17.5q0 8 1.5 15.5t3.5 12.5q64 15 140 23t160 8t160 -8t143 -23q3 -4 4.5 -11.5t1.5 -16.5t-1.5 -17t-4.5 -14zM579 206q0 -104 -54.5 -165t-148.5 -61q-121 0 -209 108
t-150 339q16 10 28.5 17t23.5 11q57 -207 132 -305t176 -98q71 0 109 45t38 129q0 28 -4 56.5t-12 54.5q-49 -45 -87 -64t-76 -19q-55 0 -94 34.5t-39 85.5q0 41 27.5 74t72.5 49q15 -6 28.5 -20t19.5 -31q-45 -11 -70 -32.5t-25 -49.5q0 -24 16.5 -37.5t44.5 -13.5
q34 0 72.5 22t101.5 79q11 -7 23 -16.5t20 -18.5q17 -38 26.5 -83.5t9.5 -89.5z" />
    <glyph glyph-name="bn_ma" unicode="&#x9ae;" horiz-adv-x="502" 
d="M189 399q54 -43 71.5 -74t17.5 -68q0 -9 -1 -15.5t-3 -12.5q22 -24 41.5 -53.5t36.5 -64.5q-1 28 -1.5 51t-0.5 47q0 94 5 177t15 165q-26 3 -53.5 4.5t-55.5 1.5q-26 0 -56 -1.5t-67 -5.5q-8 -12 -12.5 -25.5t-4.5 -27.5q0 -23 13 -43t55 -55zM446 1q-13 -10 -30.5 -15
t-38.5 -5q-21 56 -52 104t-72 89q-15 -33 -40.5 -51t-59.5 -18q-46 0 -77 32t-31 81q0 45 27.5 73t69.5 28q20 0 38 -7t33 -20q-1 24 -16.5 44.5t-66.5 50.5q-52 32 -68 53.5t-16 47.5q0 12 3.5 25.5t9.5 27.5q-4 -1 -26 -4.5t-33 -6.5q-5 16 -5 33.5t5 25.5q64 15 131 23
t132 8t126.5 -8t112.5 -23q4 -10 4 -27.5t-4 -31.5q-13 3 -29.5 6t-41.5 7q-10 -59 -14 -115t-4 -134q0 -100 8.5 -173.5t24.5 -119.5zM92 219q0 -22 14.5 -35.5t38.5 -13.5t40 15.5t23 45.5q-13 19 -31.5 29.5t-36.5 10.5q-21 0 -34.5 -15t-13.5 -37z" />
    <glyph glyph-name="bn_ya" unicode="&#x9af;" horiz-adv-x="501" 
d="M408 292q0 -100 6.5 -175t19.5 -121q-12 -7 -30.5 -11t-40.5 -4q-51 91 -116.5 144.5t-147.5 70.5q-20 16 -30.5 32.5t-12.5 36.5l139 133q-4 3 -77 52.5t-86 85.5q-6 -1 -13 -2.5t-19 -3.5q-5 15 -5.5 32.5t5.5 26.5q51 14 122 22.5t144 8.5q58 0 122 -8.5t113 -22.5
q4 -10 4 -27.5t-4 -31.5q-18 4 -37 7.5t-38 6.5q-10 -59 -14 -115.5t-4 -136.5zM238 416l40 -34l-135 -134q65 -27 117 -70t89 -102q-2 21 -3 48t-1 66q0 112 5 195t16 167q-29 3 -54.5 4t-49.5 1q-37 0 -74 -2t-74 -6q3 -15 15.5 -32.5t37.5 -40.5q15 -13 41.5 -35.5
t29.5 -24.5z" />
    <glyph glyph-name="bn_ra" unicode="&#x9b0;" horiz-adv-x="466" 
d="M377 292q0 -95 7 -172t20 -124q-12 -7 -30.5 -11t-39.5 -4q-52 98 -118 155.5t-150 76.5q-16 18 -23.5 35.5t-9.5 40.5q47 56 131 115.5t173 99.5q2 17 3.5 27t3.5 19q-25 3 -50 4.5t-50 1.5q-56 0 -122 -7t-122 -19q-2 6 -3.5 14.5t-1.5 17.5q0 8 1.5 15t3.5 12
q50 13 119 21.5t129 8.5q53 0 113.5 -8.5t105.5 -21.5q2 -4 3.5 -11.5t1.5 -14.5t-1 -13.5t-4 -19.5q-12 3 -27.5 6t-42.5 7q-11 -62 -15.5 -118t-4.5 -133zM318 79q-2 20 -2.5 46.5t-0.5 59.5q0 62 2.5 119.5t8.5 116.5q-54 -26 -115 -69.5t-103 -87.5q67 -29 120 -75.5
t90 -109.5zM121 18q0 18 12 30.5t30 12.5q21 0 35 -15t14 -37q0 -18 -12.5 -29.5t-30.5 -11.5q-21 0 -34.5 14.5t-13.5 35.5z" />
    <glyph glyph-name="bn_la" unicode="&#x9b2;" horiz-adv-x="561" 
d="M493 -9q-13 -5 -32.5 -7.5t-40.5 -2.5q-5 33 -7 82t-2 117q0 25 0.5 52t1.5 73q-1 30 -19 49t-45 19q-21 0 -33 -10.5t-12 -29.5q0 -5 1.5 -9.5t4.5 -10.5l14 -26q-11 -8 -25.5 -14.5t-30.5 -10.5l-21 37q-23 33 -50.5 50.5t-56.5 17.5q-32 0 -50.5 -19.5t-18.5 -54.5
q0 -42 30 -67.5t78 -25.5q6 0 14.5 1l25.5 3q0 -19 -6 -40.5t-16 -36.5q-74 -1 -124.5 50t-50.5 127q0 60 33 98.5t85 38.5q33 0 63.5 -17t56.5 -50q7 31 27.5 49t47.5 18q25 0 47 -15.5t35 -42.5q2 37 5.5 76.5t10.5 90.5q-39 5 -78 7t-79 2q-67 0 -133.5 -7t-142.5 -22
q-2 8 -3.5 17.5t-1.5 16.5t1.5 13.5t3.5 11.5q69 17 138 25.5t139 8.5q73 0 147.5 -9t136.5 -25q2 -4 3 -10t1 -15q0 -11 -1 -20t-3 -14q-15 3 -32 6t-42 7q-6 -67 -9 -133t-3 -137q0 -98 4.5 -168.5t13.5 -113.5z" />
    <glyph glyph-name="bn_sha" unicode="&#x9b6;" horiz-adv-x="532" 
d="M466 475q-4 -213 -14 -304t-32 -190q-21 0 -42 3t-34 8q30 91 43 176t15 199q-3 79 -34.5 129t-74.5 50q-14 0 -27 -6.5t-24 -19.5q43 -14 71 -55t28 -91q0 -42 -20.5 -67t-55.5 -25q-26 0 -46 13.5t-33 40.5q-14 -27 -34.5 -41.5t-45.5 -14.5q-35 0 -55.5 22.5
t-20.5 61.5q0 54 33.5 99t86.5 58q-10 11 -25 16.5t-34 5.5q-17 0 -45.5 -4t-45.5 -9q-2 7 -3.5 15.5t-1.5 16.5t1.5 15t3.5 12q22 6 48 10t43 4q36 0 61 -20t37 -60q14 44 40 68.5t60 24.5q43 0 75.5 -40t49.5 -112v45q0 15 8.5 28t23.5 22q14 9 36 16.5t50 13.5
q3 -3 4.5 -10.5t1.5 -16.5q0 -11 -1.5 -19.5t-4.5 -12.5q-14 -3 -25.5 -7.5t-19.5 -8.5q-12 -6 -16.5 -14t-4.5 -25zM219 428q0 -41 14 -68t37 -27q14 0 21 10.5t7 32.5q0 35 -19.5 64t-50.5 41q-4 -11 -6.5 -24.5t-2.5 -28.5zM85 365q0 -19 7.5 -28.5t21.5 -9.5q23 0 38 29
t15 74q0 12 -1.5 24.5t-4.5 23.5q-31 -8 -53.5 -42.5t-22.5 -70.5z" />
    <glyph glyph-name="bn_ssa" unicode="&#x9b7;" horiz-adv-x="493" 
d="M109 548q6 -30 48.5 -65t119.5 -73l67 -33q3 50 7.5 92.5t9.5 82.5q-28 3 -55 4t-52 1q-40 0 -76.5 -2t-68.5 -7zM403 292q0 -111 5.5 -182.5t17.5 -115.5q-12 -6 -29.5 -9.5t-39.5 -3.5q-49 93 -112.5 147t-145.5 72q-19 14 -29.5 31t-13.5 38l124 135q-58 28 -99.5 64
t-52.5 68q-5 -1 -11 -2.5t-17 -3.5q-5 16 -5 33.5t5 25.5q55 15 121 23t136 8q65 0 130.5 -8.5t105.5 -22.5q4 -10 4 -27.5t-4 -31.5q-17 4 -35 7.5t-37 6.5q-10 -65 -14 -121.5t-4 -130.5zM343 80q-2 20 -3 46.5t-1 63.5q0 36 0.5 69.5t2.5 65.5l-96 47l-107 -120
q63 -25 115 -68.5t89 -103.5z" />
    <glyph glyph-name="bn_sa" unicode="&#x9b8;" horiz-adv-x="516" 
d="M228 353q14 12 28.5 17.5t29.5 5.5q18 0 34.5 -9t30.5 -27q3 65 6.5 115.5t8.5 98.5q-42 2 -64 3t-40 1q-35 0 -71.5 -2t-72.5 -6q1 -14 10 -31t40 -52q36 -44 48 -67.5t12 -44.5v-0.5v-1.5zM430 -8q-12 -4 -30 -5.5t-45 -1.5q-3 39 -4.5 88.5t-1.5 116.5v35.5v34.5v-1
q0 24 -13.5 39t-35.5 15q-18 0 -35 -16.5t-48 -72.5q-41 -75 -69 -99t-61 -24q-13 0 -26.5 3.5t-25.5 10.5q-7 16 -10 35t-3 45q11 -11 26 -16.5t32 -5.5q15 0 30 15.5t45 66.5q11 20 16.5 41.5t5.5 42.5q0 31 -16 58t-67 68q-33 28 -46 42.5t-18 29.5q-4 -1 -8 -1.5
t-11 -2.5q-5 -2 -7 -2.5t-4 -0.5q-2 8 -3.5 17t-1.5 17q0 7 1.5 13.5t3.5 11.5q44 14 118 23t145 9q72 0 148 -9.5t108 -22.5q2 -5 3 -11t1 -14t-1 -17.5t-3 -16.5q-19 5 -43 9.5t-49 7.5q-8 -64 -11.5 -121.5t-3.5 -133.5q0 -77 5 -161.5t13 -138.5z" />
    <glyph glyph-name="bn_ha" unicode="&#x9b9;" horiz-adv-x="454" 
d="M454 530q-43 11 -106 18.5t-119 7.5q-52 0 -114 -7t-115 -19q-3 7 -4.5 15.5t-1.5 17.5q0 8 1.5 15t4.5 11q47 13 110.5 21.5t120.5 8.5q58 0 122 -8.5t101 -21.5q2 -3 3 -8.5t1 -17.5q0 -11 -1 -19.5t-3 -13.5zM474 -74q-7 -11 -16 -22t-24 -26q-88 96 -181 158.5
t-199 95.5l-20 85q48 -17 89.5 -25.5t76.5 -8.5q61 0 93.5 26.5t32.5 76.5q0 61 -43 110.5t-96 49.5q-26 0 -40 -12t-14 -34q0 -19 11.5 -38t37.5 -43q-14 -7 -34 -11t-36 -3q-20 25 -30 49t-10 49q0 44 29 69.5t76 25.5q82 0 147 -71.5t65 -160.5q0 -68 -43.5 -107
t-122.5 -42q63 -35 126 -83t125 -108z" />
    <glyph glyph-name="bn_nukta" unicode="&#x9bc;" horiz-adv-x="0" 
d="M-52 -29q0 20 14 33.5t35 13.5q23 0 38.5 -17t15.5 -41q0 -20 -13.5 -33.5t-34.5 -13.5q-24 0 -39.5 17t-15.5 41z" />
    <glyph glyph-name="bn_avagraha" unicode="&#x9bd;" horiz-adv-x="443" 
d="M114 462q0 -26 18.5 -42t48.5 -16q28 0 49 15t36 45q-20 21 -45 32.5t-50 11.5q-27 0 -42 -12t-15 -34zM463 -14q-7 -11 -17 -23t-23 -25q-88 96 -181 158.5t-199 95.5l-20 85q46 -18 89 -27.5t79 -9.5q60 0 93 27.5t33 76.5q0 20 -5 39.5t-15 37.5q-17 -31 -44 -47.5
t-64 -16.5q-55 0 -91.5 30.5t-36.5 79.5q0 42 28 66.5t75 24.5q32 0 63 -11.5t58 -33.5q8 27 14 55.5t9 58.5q13 0 27 -4t24 -10q-6 -42 -13.5 -76.5t-19.5 -65.5q25 -32 38.5 -69.5t13.5 -75.5q0 -68 -44 -107t-123 -42q65 -36 128 -84t124 -107z" />
    <glyph glyph-name="bn_aakaar" unicode="&#x9be;" 
d="M159 488q-1 -131 -6 -268.5t-15 -273.5q-20 0 -44.5 3.5t-37.5 7.5q19 101 29 219.5t12 271.5q-3 30 -28 51t-69 31q-4 12 -4 30.5t4 28.5q37 -9 68.5 -23t52.5 -32q17 17 46 31.5t66 23.5q5 -8 4.5 -26t-4.5 -33q-26 -7 -45 -17.5t-29 -24.5z" />
    <glyph glyph-name="bn_ikaar" unicode="&#x9bf;" 
d="M194 -42q-12 -4 -36 -7t-46 -3q-9 131 -13.5 260t-4.5 249q-5 26 -29 45t-65 28q-4 12 -4 30.5t4 28.5q29 -7 51.5 -16t40.5 -20q-27 42 -39.5 77.5t-12.5 71.5q0 70 45 109t127 39t190.5 -32t241.5 -96q-3 -12 -9.5 -24.5t-17.5 -25.5q-120 61 -211 88t-173 27
q-65 0 -95.5 -26t-30.5 -83q0 -28 6.5 -56t25.5 -72q17 12 41 22t53 17q5 -8 4.5 -26t-4.5 -33q-28 -8 -47 -19t-29 -25q-1 -163 8 -289.5t29 -238.5z" />
    <glyph glyph-name="bn_iikaar" unicode="&#x9c0;" 
d="M159 488q1 -94 -5 -200.5t-30 -341.5q-20 0 -43 4.5t-36 11.5q27 118 39 233.5t13 245.5v0q0 33 -24 55t-73 34q-4 13 -4 31.5t4 27.5q24 -5 47.5 -14t44.5 -21q-4 133 -83 197.5t-236 64.5q-71 0 -107.5 -14t-36.5 -41q0 -20 21 -30.5t60 -10.5q19 0 37.5 2.5t48.5 11.5
q25 6 37.5 8t23.5 2q23 0 43 -7t36 -20q-2 -15 -8.5 -29t-14.5 -22q-11 14 -26 21t-32 7q-9 0 -20 -2t-34 -10q-33 -10 -53.5 -13.5t-40.5 -3.5q-59 0 -95 27.5t-36 72.5q0 54 52 84.5t144 30.5q158 0 261.5 -86t122.5 -234q16 9 36 16.5t41 12.5q5 -8 5 -26.5t-5 -32.5
q-26 -7 -44.5 -17.5t-29.5 -24.5z" />
    <glyph glyph-name="bn_ukaar" unicode="&#x9c1;" horiz-adv-x="0" 
d="M154 -291l-133 101q-21 -38 -53 -58.5t-72 -20.5q-49 0 -79 27.5t-30 74.5t28.5 76.5t73.5 29.5q26 0 51.5 -11.5t50.5 -34.5q1 2 1 4v7q0 23 -5.5 47.5t-15.5 42.5l50 2q11 -23 17.5 -49t6.5 -51q0 -7 -1 -16t-4 -20l148 -105q-6 -13 -14.5 -25t-19.5 -21zM-163 -166
q0 -21 15 -34t40 -13t46 14t36 40q-20 20 -40.5 30t-41.5 10q-25 0 -40 -13t-15 -34z" />
    <glyph glyph-name="bn_uukaar" unicode="&#x9c2;" horiz-adv-x="0" 
d="M167 -289l-117 89q-25 -25 -53.5 -37.5t-59.5 -12.5q-49 0 -78.5 27.5t-29.5 73.5q0 51 36 91t107 69l43 -6l7 -33l-17 -5q-55 -17 -89 -50t-34 -68q0 -19 12.5 -30.5t33.5 -11.5q23 0 49.5 15.5t60.5 49.5l162 -115q-6 -14 -14.5 -25.5t-18.5 -20.5z" />
    <glyph glyph-name="bn_rikaar" unicode="&#x9c3;" horiz-adv-x="0" 
d="M24 -291l-179 139v17l127 127v19l46 -7l19 -28l-121 -121l142 -99q-5 -13 -14 -25t-20 -22z" />
    <glyph glyph-name="bn_rrikaar" unicode="&#x9c4;" horiz-adv-x="0" 
d="M-116 -252l110 -77q-5 -12 -12.5 -23t-17.5 -19l-146 112v17l63 62l-36 28v17l127 127v19l46 -7l19 -28l-121 -121l142 -99q-5 -13 -14 -25t-20 -22l-100 77z" />
    <glyph glyph-name="bn_ekaar" unicode="&#x9c7;" horiz-adv-x="260" 
d="M306 -1q-18 -31 -44 -48t-54 -17q-64 0 -102.5 80.5t-38.5 214.5q0 74 10 141.5t27 112.5q-14 13 -39.5 24.5t-64.5 22.5q-2 9 -3 16.5t-1 14.5t1 15t3 13q42 -8 79 -23.5t63 -33.5q15 19 44.5 33t73.5 24q2 -4 3 -10.5t1 -16.5q0 -11 -1 -19t-3 -13q-69 -15 -96 -81
t-27 -217q0 -123 14.5 -184t43.5 -61q14 0 29 17t39 60q17 -9 30 -29.5t13 -35.5z" />
    <glyph glyph-name="bn_aikaar" unicode="&#x9c8;" horiz-adv-x="260" 
d="M306 -1q-18 -31 -44 -48t-54 -17q-64 0 -102.5 80.5t-38.5 214.5q0 74 10 141.5t27 112.5q-14 13 -39.5 24.5t-64.5 22.5q-2 9 -3 16.5t-1 14.5t1 15t3 13q42 -8 79 -23.5t63 -33.5q11 14 30 25.5t47 20.5q-9 58 -27 81.5t-49 23.5q-10 0 -21 -1.5t-33 -6.5
q-24 -5 -36.5 -6.5t-23.5 -1.5q-37 0 -66.5 21.5t-57.5 70.5q7 9 18.5 17t26.5 15q23 -38 42 -52.5t42 -14.5q8 0 18.5 1.5t32.5 6.5q24 6 36 7.5t21 1.5q48 0 78.5 -39.5t39.5 -112.5q2 -4 3 -10.5t1 -16.5q0 -11 -1 -19t-3 -13q-69 -15 -96 -81t-27 -217q0 -123 14.5 -184
t43.5 -61q14 0 29 17t39 60q17 -9 30 -29.5t13 -35.5z" />
    <glyph glyph-name="bn_okaar" unicode="&#x9cb;" horiz-adv-x="1148" 
d="M594 591q19 0 29.5 -11t10.5 -31q0 -19 -10.5 -30t-29.5 -11t-29.5 10.5t-10.5 30.5t10.5 31t29.5 11zM1074 488q-1 -131 -6 -268.5t-15 -273.5q-20 0 -44.5 3.5t-37.5 7.5q19 101 29 219.5t12 271.5q-3 30 -28 51t-69 31q-4 12 -4 30.5t4 28.5q37 -9 68.5 -23t52.5 -32
q17 17 46 31.5t66 23.5q5 -8 4.5 -26t-4.5 -33q-26 -7 -45 -17.5t-29 -24.5zM306 -1q-18 -31 -44 -48t-54 -17q-64 0 -102.5 80.5t-38.5 214.5q0 74 10 141.5t27 112.5q-14 13 -39.5 24.5t-64.5 22.5q-2 9 -3 16.5t-1 14.5t1 15t3 13q42 -8 79 -23.5t63 -33.5q15 19 44.5 33
t73.5 24q2 -4 3 -10.5t1 -16.5q0 -11 -1 -19t-3 -13q-69 -15 -96 -81t-27 -217q0 -123 14.5 -184t43.5 -61q14 0 29 17t39 60q17 -9 30 -29.5t13 -35.5zM726 554q19 0 30 -11.5t11 -30.5q0 -18 -11 -28.5t-30 -10.5t-29.5 10.5t-10.5 28.5q0 19 11 30.5t29 11.5zM460 554
q18 0 29 -11.5t11 -30.5q0 -18 -11 -28.5t-29 -10.5t-29 10.5t-11 28.5q0 19 11 30.5t29 11.5zM365 457q18 0 28.5 -11t10.5 -31q0 -18 -11 -29.5t-28 -11.5q-18 0 -29.5 12t-11.5 30t11.5 29.5t29.5 11.5zM824 457q18 0 28.5 -11t10.5 -30t-10.5 -30.5t-28.5 -11.5
q-17 0 -29.5 12.5t-12.5 29.5t12.5 29t29.5 12zM859 327q19 0 29.5 -11t10.5 -30t-11 -30.5t-29 -11.5t-29 12t-11 30t11 29.5t29 11.5zM330 327q18 0 28.5 -11t10.5 -30t-10.5 -30.5t-28.5 -11.5q-19 0 -30.5 11.5t-11.5 30.5q0 18 11.5 29.5t30.5 11.5zM824 197
q18 0 28.5 -11t10.5 -30q0 -20 -10.5 -31.5t-28.5 -11.5t-30 12.5t-12 30.5q0 17 12.5 29t29.5 12zM365 197q18 0 28.5 -11t10.5 -30q0 -20 -10.5 -31.5t-28.5 -11.5t-29.5 12t-11.5 31q0 18 11.5 29.5t29.5 11.5zM726 99q19 0 30 -11t11 -30q0 -18 -11 -29t-30 -11
q-18 0 -29 11t-11 29q0 19 10.5 30t29.5 11zM460 99q18 0 29 -11t11 -30q0 -18 -11 -29t-29 -11t-29 11t-11 29q0 19 11 30t29 11zM594 64q19 0 29.5 -11t10.5 -31q0 -18 -11 -29t-29 -11q-19 0 -29.5 10.5t-10.5 29.5q0 20 10.5 31t29.5 11z" />
    <glyph glyph-name="bn_aukaar" unicode="&#x9cc;" horiz-adv-x="1148" 
d="M591 591q19 0 30 -11.5t11 -30.5t-10.5 -30t-30.5 -11q-19 0 -29 10.5t-10 30.5t10.5 31t28.5 11zM1074 488q-1 -132 -5.5 -270t-13.5 -270q-21 0 -45 2.5t-36 6.5q18 106 27.5 224.5t10.5 264.5q-2 31 -27 52.5t-70 31.5q-2 7 -3 15.5t-1 15.5t1 15t3 13q37 -9 67.5 -23
t52.5 -32q13 17 20.5 36t7.5 38q0 24 -17 45.5t-66 59.5q-15 12 -44 33t-40 31q-22 20 -30.5 41t-8.5 53q0 12 1 23t4 22q11 4 25.5 5.5t27.5 0.5q-2 -11 -2.5 -20.5t-0.5 -19.5q0 -23 7 -40t23 -32q11 -9 34.5 -25.5t31.5 -22.5q50 -37 72.5 -71t22.5 -72q0 -11 -1.5 -22
t-5.5 -25q8 4 19 7.5t33 9.5q2 -4 3 -10t1 -15q0 -11 -1 -19.5t-3 -14.5q-26 -7 -45 -17.5t-29 -24.5zM306 -1q-18 -31 -44 -48t-54 -17q-64 0 -102.5 80.5t-38.5 214.5q0 74 10 141.5t27 112.5q-14 13 -39.5 24.5t-64.5 22.5q-2 9 -3 16.5t-1 14.5t1 15t3 13
q42 -8 79 -23.5t63 -33.5q15 19 44.5 33t73.5 24q2 -4 3 -10.5t1 -16.5q0 -11 -1 -19t-3 -13q-69 -15 -96 -81t-27 -217q0 -123 14.5 -184t43.5 -61q14 0 29 17t39 60q17 -9 30 -29.5t13 -35.5zM723 554q19 0 30.5 -11.5t11.5 -30.5q0 -18 -11.5 -28.5t-30.5 -10.5
q-18 0 -28.5 10.5t-10.5 28.5q0 19 10.5 30.5t28.5 11.5zM457 554q19 0 30 -11.5t11 -30.5q0 -18 -11 -28.5t-30 -10.5q-18 0 -28.5 10.5t-10.5 28.5q0 19 11 30.5t28 11.5zM822 457q18 0 28 -11t10 -30t-10 -30.5t-28 -11.5t-30 12t-12 30q0 17 12 29t30 12zM363 457
q18 0 28 -11t10 -31q0 -17 -11 -29t-27 -12q-18 0 -30 12t-12 30t11.5 29.5t30.5 11.5zM327 327q19 0 29.5 -11t10.5 -30q0 -20 -10.5 -31t-29.5 -11t-30 11.5t-11 30.5q0 18 11.5 29.5t29.5 11.5zM857 327q19 0 29.5 -11t10.5 -30t-11 -30.5t-29 -11.5t-29.5 12t-11.5 30
t11.5 29.5t29.5 11.5zM822 197q18 0 28 -11t10 -30q0 -20 -10 -31.5t-28 -11.5t-30 12t-12 31q0 17 12 29t30 12zM363 197q17 0 27.5 -11t10.5 -30q0 -20 -10.5 -31.5t-27.5 -11.5q-19 0 -30.5 12t-11.5 31q0 18 11.5 29.5t30.5 11.5zM723 99q19 0 30.5 -11t11.5 -30
q0 -18 -11.5 -29t-30.5 -11q-18 0 -28.5 11t-10.5 29q0 19 10.5 30t28.5 11zM457 99q19 0 30 -11t11 -30q0 -18 -11 -29t-30 -11q-17 0 -28 11t-11 29t11 29.5t28 11.5zM591 64q19 0 30 -11.5t11 -30.5q0 -18 -11 -29t-30 -11q-18 0 -28.5 10.5t-10.5 29.5q0 20 10.5 31
t28.5 11z" />
    <glyph glyph-name="bn_halanth" unicode="&#x9cd;" horiz-adv-x="0" 
d="M62 -98l196 -147q-6 -14 -14.5 -25.5t-18.5 -20.5l-197 150q6 14 15 24.5t19 18.5z" />
    <glyph glyph-name="bn_khanda_ta" unicode="&#x9ce;" horiz-adv-x="439" 
d="M147 511q5 -70 30.5 -108t67.5 -38q33 0 54.5 22t21.5 58q0 42 -24.5 66t-67.5 24q-21 0 -42 -6t-40 -18zM362 134q27 -27 39.5 -62t12.5 -85q-8 -5 -26.5 -9t-34.5 -4q-2 51 -12 77.5t-34 45.5q-13 11 -33.5 23t-85.5 44q-91 43 -125 87t-34 111q0 97 58 167t140 70
q65 0 103 -41t38 -105t-34.5 -106.5t-87.5 -42.5q-59 0 -94.5 44.5t-42.5 128.5q-18 -23 -27.5 -50.5t-9.5 -57.5q0 -31 12 -54.5t38 -42.5q13 -10 31 -20t70 -35q66 -32 93.5 -49t45.5 -34z" />
    <glyph glyph-name="bn_aumark" unicode="&#x9d7;" 
d="M159 488q-1 -132 -5.5 -270t-13.5 -270q-21 0 -45 2.5t-36 6.5q18 106 27.5 224.5t10.5 264.5q-2 31 -27 52.5t-70 31.5q-2 7 -3 15.5t-1 15.5t1 15t3 13q37 -9 67.5 -23t52.5 -32q13 17 20.5 36t7.5 38q0 24 -17 45.5t-66 59.5q-15 12 -44 33t-40 31q-22 20 -30.5 41
t-8.5 53q0 12 1 23t4 22q11 4 25.5 5.5t27.5 0.5q-2 -11 -2.5 -20.5t-0.5 -19.5q0 -23 7 -40t23 -32q11 -9 34.5 -25.5t31.5 -22.5q50 -37 72.5 -71t22.5 -72q0 -11 -1.5 -22t-5.5 -25q8 4 19 7.5t33 9.5q2 -4 3 -10t1 -15q0 -11 -1 -19.5t-3 -14.5q-26 -7 -45 -17.5
t-29 -24.5z" />
    <glyph glyph-name="bn_rra" unicode="&#x9dc;" horiz-adv-x="566" 
d="M545 205q0 -104 -50.5 -164.5t-137.5 -60.5q-118 0 -201.5 104.5t-145.5 342.5q14 10 26.5 16.5t24.5 11.5q58 -212 129 -308.5t168 -96.5q64 0 98.5 44.5t34.5 127.5q0 30 -4 59t-11 56q-42 -52 -73.5 -72.5t-63.5 -20.5q-49 0 -83 41t-34 96q0 29 8 72.5t25 107.5
q-70 -1 -133.5 -9t-121.5 -22q-3 6 -4 14t-1 19q0 9 1 15.5t4 10.5q64 18 135 26.5t150 8.5q76 0 146 -8.5t135 -26.5q3 -4 4.5 -11t1.5 -15q0 -9 -1.5 -18t-4.5 -15q-53 13 -115 21t-130 10q-27 -93 -35 -131.5t-8 -64.5q0 -29 13 -45t37 -16q21 0 50 26t76 88
q12 -2 24.5 -7t22.5 -12q21 -42 32.5 -92.5t11.5 -101.5zM326 -76q18 0 30.5 -12t12.5 -29q0 -21 -15 -35.5t-37 -14.5q-18 0 -30 11.5t-12 29.5q0 21 15 35.5t36 14.5z" />
    <glyph glyph-name="bn_rha" unicode="&#x9dd;" horiz-adv-x="476" 
d="M327 375q51 0 82 -34t31 -91q0 -43 -18.5 -89t-51.5 -86q-36 -44 -79 -69.5t-82 -25.5q-55 0 -92.5 42.5t-37.5 107.5q0 109 5.5 213.5t16.5 205.5q-29 -3 -55.5 -8t-45.5 -11q-2 8 -3 15t-1 15t1 16t3 13q35 14 97.5 22.5t133.5 8.5q66 0 129.5 -8t115.5 -23q2 -5 3 -12
t1 -16q0 -7 -1 -15t-3 -16q-62 14 -122.5 20.5t-120.5 6.5q-12 0 -25 -0.5t-37 -1.5q-14 -92 -22 -211.5t-8 -234.5q0 -36 16 -57t43 -22q26 0 57.5 21.5t58.5 57.5q25 33 38.5 67.5t13.5 65.5q0 32 -14.5 50.5t-39.5 18.5q-21 0 -41 -12t-33 -32q-5 6 -7.5 14.5t-2.5 18.5
q0 11 2.5 22t7.5 20q17 16 39.5 24.5t47.5 8.5zM220 -76q18 0 31 -12t13 -30q0 -21 -14.5 -35t-35.5 -14q-19 0 -31.5 12t-12.5 30q0 21 14.5 35t35.5 14z" />
    <glyph glyph-name="bn_yya" unicode="&#x9df;" horiz-adv-x="501" 
d="M408 292q0 -100 6.5 -175t19.5 -121q-12 -7 -30.5 -11t-40.5 -4q-51 91 -116.5 144.5t-147.5 70.5q-20 16 -30.5 32.5t-12.5 36.5l139 133q-4 3 -77 52.5t-86 85.5q-6 -1 -13 -2.5t-19 -3.5q-5 15 -5.5 32.5t5.5 26.5q51 14 122 22.5t144 8.5q58 0 122 -8.5t113 -22.5
q4 -10 4 -27.5t-4 -31.5q-18 4 -37 7.5t-38 6.5q-10 -59 -14 -115.5t-4 -136.5zM238 416l40 -34l-135 -134q65 -27 117 -70t89 -102q-2 21 -3 48t-1 66q0 112 5 195t16 167q-29 3 -54.5 4t-49.5 1q-37 0 -74 -2t-74 -6q3 -15 15.5 -32.5t37.5 -40.5q15 -13 41.5 -35.5
t29.5 -24.5zM144 20q0 18 12.5 30.5t30.5 12.5q20 0 34 -15t14 -37q0 -17 -12 -29t-30 -12q-21 0 -35 14.5t-14 35.5z" />
    <glyph glyph-name="bn_rri" unicode="&#x9e0;" horiz-adv-x="676" 
d="M363 63v1q0 88 5 172t15 158q-56 -23 -115.5 -59t-100.5 -72q66 -34 115.5 -84t80.5 -116zM419 64v-51t1 -28q-10 -3 -24 -4t-30 0q-44 96 -105.5 154t-140.5 80q-13 18 -19 36t-7 42q38 38 102.5 79.5t136.5 74.5q-2 19 -11 36t-25 32q-28 -39 -68.5 -62t-80.5 -23
q-49 0 -79 29.5t-30 80.5q0 15 3 28.5t9 25.5q15 6 33.5 9.5t36.5 2.5q-7 -10 -11.5 -25t-5.5 -31q0 -27 13.5 -40.5t39.5 -13.5q33 0 67.5 21t59.5 57l41 -22q16 -16 29 -39t19 -48q4 2 10.5 4.5t9.5 3.5q2 22 5.5 46t16.5 86q17 0 33.5 -4.5t30.5 -12.5
q-24 -83 -37.5 -168t-18.5 -186q37 -24 70 -57.5t59 -74.5q-5 36 -8 80.5t-3 95.5q0 91 10.5 169t31.5 146q14 0 28.5 -2.5t26.5 -7.5q-20 -56 -31.5 -131t-11.5 -153q0 -83 12 -158.5t35 -134.5q-13 -7 -30.5 -10.5t-34.5 -2.5q-34 62 -72.5 107t-84.5 74q-1 -19 -1 -41.5
v-68.5zM279 -117l-179 139v17l127 127v19l46 -7l19 -28l-121 -121l142 -99q-5 -13 -14 -25t-20 -22z" />
    <glyph glyph-name="bn_lli" unicode="&#x9e1;" horiz-adv-x="650" 
d="M614 109q0 -70 -18 -155.5t-50 -164.5q-21 2 -36.5 7t-27.5 13q3 101 -29.5 162t-86.5 61q-36 0 -58 -26.5t-22 -70.5q0 -35 14.5 -56t37.5 -21q19 0 34.5 16.5t25.5 46.5q9 -16 16 -36t8 -36q-11 -26 -32.5 -41.5t-45.5 -15.5q-44 0 -75 44t-31 109q0 36 11 66t32 52
q-9 82 -42.5 130t-81.5 48q-39 0 -62.5 -30t-23.5 -79q0 -39 15 -62t40 -23q20 0 36.5 18t27.5 52q9 -16 16.5 -36.5t9.5 -36.5q-13 -29 -36 -46t-49 -17q-45 0 -78 47t-33 115q0 74 38 121.5t97 47.5q66 0 111 -59t55 -159q21 58 35 132.5t14 126.5q0 35 -10.5 57.5
t-34.5 35.5q-14 8 -34 15t-71 18q-59 14 -86 24t-45 23q-26 18 -41 46.5t-23 72.5q13 8 27 14.5t26 8.5q11 -56 33.5 -81t82.5 -39l66 -15q85 -19 121 -67t36 -139l49 -17q83 -28 115.5 -73t32.5 -128zM527 222q-8 5 -32 14.5t-63 23.5l-18 6q-4 -38 -11.5 -80t-19.5 -86
q54 -8 90 -60.5t45 -136.5q22 53 37 119t15 113q0 31 -10 52t-33 35z" />
    <glyph glyph-name="bn_likaar" unicode="&#x9e2;" horiz-adv-x="300" 
d="M281 -163q0 -40 -12.5 -89t-33.5 -95q-13 0 -25.5 2.5t-22.5 6.5q1 61 -20.5 95.5t-57.5 34.5q-21 0 -33.5 -13t-12.5 -34q0 -16 8 -25t21 -9q11 0 20.5 8t16.5 23q7 -13 13 -30.5t7 -29.5q-8 -13 -21 -20.5t-28 -7.5q-35 0 -59 28t-24 69q0 44 25.5 72.5t64.5 28.5
q44 0 73.5 -30.5t37.5 -83.5q9 27 14.5 56.5t5.5 50.5q0 25 -15.5 39.5t-67.5 27.5q-66 14 -88.5 35.5t-31.5 65.5q10 6 21.5 11t20.5 7q6 -30 19.5 -43.5t50.5 -21.5l39 -9q50 -11 72.5 -39.5t22.5 -80.5z" />
    <glyph glyph-name="bn_llikaar" unicode="&#x9e3;" horiz-adv-x="500" 
d="M440 -275q0 -36 -11.5 -80t-32.5 -86q-11 0 -22.5 2t-21.5 6q1 54 -18.5 84.5t-51.5 30.5q-19 0 -30 -11t-11 -29q0 -14 7 -22t19 -8q10 0 18.5 7t14.5 20q7 -14 12.5 -29t6.5 -26q-7 -11 -19 -17.5t-25 -6.5q-32 0 -54 25t-22 62q0 20 6.5 37.5t18.5 29.5
q-8 37 -27.5 57.5t-46.5 20.5q-20 0 -32.5 -13t-12.5 -34q0 -16 7.5 -25t20.5 -9q11 0 20.5 8t16.5 23q7 -13 13 -30.5t7 -29.5q-8 -13 -21 -20.5t-28 -7.5q-34 0 -58 28t-24 69q0 44 25 72.5t64 28.5q44 0 73.5 -30.5t37.5 -83.5q9 27 14.5 56.5t5.5 50.5q0 25 -15.5 39.5
t-66.5 27.5q-66 14 -89 35.5t-31 65.5q9 6 20.5 11t20.5 7q6 -30 19.5 -43.5t50.5 -21.5l39 -9q47 -10 70 -36.5t25 -75.5l33 -8q45 -12 65 -38.5t20 -73.5zM401 -268q0 24 -15 37.5t-60 25.5l-7 2q-1 -13 -4.5 -28.5t-8.5 -34.5q30 -8 49.5 -34.5t25.5 -65.5
q9 25 14.5 51.5t5.5 46.5z" />
    <glyph glyph-name="bn_zero" unicode="&#x9e6;" horiz-adv-x="550" 
d="M294 585q89 0 137.5 -68t48.5 -192q0 -143 -63 -245t-163 -102q-88 0 -137 68.5t-49 190.5q0 143 63 245.5t163 102.5zM292 509q-76 0 -123.5 -74.5t-47.5 -190.5q0 -91 35.5 -140.5t99.5 -49.5q76 0 123.5 74.5t47.5 189.5q0 92 -35.5 141.5t-99.5 49.5z" />
    <glyph glyph-name="bn_one" unicode="&#x9e7;" horiz-adv-x="550" 
d="M421 336q26 -30 39 -64.5t13 -76.5q0 -91 -54.5 -153.5t-135.5 -62.5q-65 0 -106 40.5t-41 102.5q0 58 33.5 98t84.5 40q36 0 64.5 -21.5t44.5 -61.5q-7 -12 -19.5 -24.5t-25.5 -19.5q-9 34 -25.5 51.5t-40.5 17.5q-28 0 -46 -21.5t-18 -53.5q0 -38 26 -62t69 -24
q58 0 97.5 43.5t39.5 107.5q0 35 -13 63.5t-41 52.5q-16 15 -39 29.5t-74 40.5q-94 49 -126 83.5t-39 78.5q15 15 31 26.5t32 19.5q6 -41 34.5 -74.5t113.5 -84.5q55 -33 80 -52t42 -39z" />
    <glyph glyph-name="bn_two" unicode="&#x9e8;" horiz-adv-x="550" 
d="M521 13q-6 -11 -14 -23t-21 -27q-98 89 -195.5 142t-205.5 77l-20 87q46 -17 88.5 -26t77.5 -9q62 0 94 23t32 67q0 32 -23.5 57t-100.5 59q-69 31 -93 52.5t-29 47.5q16 16 31.5 27.5t31.5 18.5q5 -29 26.5 -52t85.5 -57q82 -44 108 -79.5t26 -83.5q0 -61 -38.5 -98
t-107.5 -43q63 -30 125 -70t122 -90z" />
    <glyph glyph-name="bn_three" unicode="&#x9e9;" horiz-adv-x="550" 
d="M331 585q73 0 124 -96t51 -241q0 -128 -42 -199t-119 -71q-106 0 -185.5 136.5t-130.5 409.5q10 8 22.5 12t28.5 6q44 -232 114 -360t152 -128q51 0 77 52t26 155q0 115 -30.5 190.5t-74.5 75.5q-24 0 -36.5 -24t-12.5 -68q0 -54 14.5 -99.5t40.5 -72.5q-11 -6 -31.5 -10
t-38.5 -3q-24 34 -37.5 83.5t-13.5 99.5q0 68 28 110t74 42z" />
    <glyph glyph-name="bn_four" unicode="&#x9ea;" horiz-adv-x="553" 
d="M477 160q0 -76 -60.5 -128.5t-157.5 -52.5q-83 0 -130.5 39.5t-47.5 104.5q0 42 22.5 76.5t71.5 64.5q-49 16 -77.5 53t-28.5 86q0 76 61 128.5t157 52.5q83 0 131 -40t48 -105q0 -43 -22 -77.5t-69 -65.5q47 -16 74.5 -52.5t27.5 -83.5zM308 525q-78 0 -129 -42
t-51 -100q0 -38 26.5 -61t74.5 -27q48 24 76 38.5t37 20.5q36 23 52.5 47t16.5 52q0 35 -26 53.5t-77 18.5zM136 109q0 -35 26 -53.5t76 -18.5q78 0 129.5 42.5t51.5 102.5q0 37 -24.5 59t-69.5 26l-53 -26.5t-62 -33.5q-39 -23 -56.5 -47t-17.5 -51z" />
    <glyph glyph-name="bn_five" unicode="&#x9eb;" horiz-adv-x="550" 
d="M391 183q0 -47 14 -86t41 -64q-29 -24 -77 -39.5t-95 -15.5q-97 0 -153.5 65.5t-56.5 177.5q0 105 52 206.5t132 163.5q13 -61 60 -103.5t103 -42.5q17 0 35 4t26 10l31 -60q-64 -56 -88 -105.5t-24 -110.5zM128 205q0 -84 38.5 -130.5t106.5 -46.5q29 0 55 9t46 26
q-21 29 -31.5 65t-10.5 77q0 52 17.5 99.5t52.5 89.5q-47 2 -89 27.5t-70 67.5q-53 -55 -84 -131.5t-31 -152.5z" />
    <glyph glyph-name="bn_six" unicode="&#x9ec;" horiz-adv-x="550" 
d="M505 207q0 -106 -46 -166.5t-127 -60.5q-105 0 -180.5 107t-132.5 353q13 6 26.5 10t27.5 5q50 -210 113 -307.5t148 -97.5q60 0 90 44.5t30 131.5q0 27 -3.5 55t-9.5 54q-35 -49 -63 -70t-58 -21q-45 0 -77 39t-32 90q0 7 1 16.5t3 30.5q3 18 3.5 25.5t0.5 12.5
q0 29 -22 48.5t-74 34.5q14 15 29.5 26t31.5 18q48 -20 71 -47t23 -63q0 -8 -1 -19t-4 -34q-4 -24 -5 -36t-1 -21q0 -29 10.5 -44.5t29.5 -15.5q20 0 43.5 23t68.5 90q12 -2 24.5 -7t22.5 -12q18 -42 28.5 -92t10.5 -100z" />
    <glyph glyph-name="bn_seven" unicode="&#x9ed;" horiz-adv-x="550" 
d="M507 24q-13 -16 -27 -28t-29 -21q-53 20 -71.5 45t-18.5 77q0 25 3 57.5t10 81.5q-36 -7 -67.5 -10t-59.5 -3q-84 0 -138 39.5t-54 101.5q0 38 22 79.5t59 75.5q36 32 78.5 49t85.5 17q70 0 114 -43t44 -108q0 -14 -2 -37.5t-10 -83.5q-11 -84 -14.5 -125.5t-3.5 -71.5
q0 -45 17.5 -63.5t61.5 -28.5zM125 351q0 -37 24.5 -54t84.5 -17q41 0 78.5 6.5t72.5 20.5q11 64 14 89.5t3 40.5q0 40 -22 61t-64 21q-75 0 -133 -52t-58 -116z" />
    <glyph glyph-name="bn_eight" unicode="&#x9ee;" horiz-adv-x="550" 
d="M370 67q-34 -42 -74 -64.5t-79 -22.5q-62 0 -102.5 43.5t-40.5 116.5q0 11 1 29.5t5 63.5q7 78 9.5 121.5t2.5 79.5q0 55 -16.5 74t-59.5 28q14 19 27.5 31t27.5 20q50 -17 69 -43t19 -83q0 -34 -3.5 -78.5t-13.5 -129.5q-7 -57 -9 -80t-2 -37q0 -44 17.5 -67.5
t51.5 -23.5q64 0 117.5 65t53.5 140q0 34 -16 52t-46 18q-22 0 -50 -9.5t-58 -26.5q-7 19 -10 35.5t-3 32.5q42 18 62.5 22.5t39.5 4.5q15 0 29.5 -3.5t40.5 -13.5q23 -9 35.5 -12t23.5 -3q25 0 51.5 13.5t53.5 40.5q7 -16 12.5 -33t8.5 -35q-19 -20 -42.5 -31.5
t-47.5 -11.5q-10 0 -20 2t-19 5q10 -14 15.5 -31t5.5 -35q0 -38 -18 -82.5t-49 -81.5z" />
    <glyph glyph-name="bn_nine" unicode="&#x9ef;" horiz-adv-x="550" 
d="M486 288q0 -63 -19.5 -145.5t-53.5 -162.5q-17 0 -32.5 3.5t-29.5 10.5q3 109 -35.5 175.5t-103.5 66.5q-42 0 -68 -29t-26 -76q0 -38 17.5 -61t44.5 -23q22 0 40 17.5t31 52.5q11 -21 18 -40t8 -33q-14 -29 -40 -46t-54 -17q-48 0 -83.5 46.5t-35.5 114.5
q0 72 40.5 118.5t104.5 46.5q71 0 120 -56.5t61 -151.5q19 48 31 106.5t12 101.5q0 36 -12.5 56t-41.5 33q-11 5 -26.5 9.5t-82.5 19.5q-51 11 -73 17t-38 13q-29 13 -47 32t-29 49q15 17 30 30t32 23q12 -51 36.5 -69.5t130.5 -42.5q98 -21 136 -63.5t38 -125.5z" />
    <glyph glyph-name="asa_ra" unicode="&#x9f0;" horiz-adv-x="466" 
d="M377 292q0 -95 7 -171.5t20 -123.5q-12 -8 -30.5 -12t-40.5 -4q-51 98 -117.5 155.5t-150.5 76.5q-15 17 -22.5 35t-10.5 43q46 55 130.5 114.5t174.5 99.5q2 19 3.5 28t3.5 17q-25 3 -50 4.5t-50 1.5q-57 0 -123 -7t-121 -19q-3 6 -4.5 14t-1.5 18q0 9 1.5 16t4.5 11
q49 13 118 21.5t130 8.5q52 0 112.5 -8.5t105.5 -21.5q2 -4 3.5 -11.5t1.5 -14.5t-1 -13.5t-4 -19.5q-12 3 -27.5 6t-42.5 7q-10 -58 -14.5 -114t-4.5 -137zM197 346q36 -19 66 -47.5t52 -64.5q2 63 5 108t7 83q-28 -13 -62 -33.5t-68 -45.5zM103 265q70 -30 124.5 -78
t91.5 -112q-2 28 -3 51t-1 47q-31 54 -71.5 88.5t-90.5 49.5q-12 -10 -24.5 -21.5t-25.5 -24.5z" />
    <glyph glyph-name="asa_ba" unicode="&#x9f1;" horiz-adv-x="466" 
d="M377 292q0 -95 7 -172t20 -124q-12 -7 -30.5 -11t-39.5 -4q-52 98 -118 155.5t-150 76.5q-16 18 -23.5 35.5t-9.5 40.5q47 56 131 115.5t173 99.5q2 17 3.5 27t3.5 19q-25 3 -50 4.5t-50 1.5q-56 0 -122 -7t-122 -19q-2 6 -3.5 14.5t-1.5 17.5q0 8 1.5 15t3.5 12
q50 13 119 21.5t129 8.5q53 0 113.5 -8.5t105.5 -21.5q2 -4 3.5 -11.5t1.5 -14.5t-1 -13.5t-4 -19.5q-12 3 -27.5 6t-42.5 7q-11 -62 -15.5 -118t-4.5 -133zM318 79q-2 20 -2.5 46.5t-0.5 59.5q0 62 2.5 119.5t8.5 116.5q-54 -26 -115 -69.5t-103 -87.5q67 -29 120 -75.5
t90 -109.5zM202 -2q-27 39 -77 70.5t-101 41.5q2 16 7.5 30t13.5 25q57 -18 109.5 -58t75.5 -86q-4 -7 -11 -13t-17 -10z" />
    <glyph glyph-name="bn_rupeemark" unicode="&#x9f2;" horiz-adv-x="557" 
d="M-5 462l40 72q154 -92 277 -222t214 -299q-5 -9 -12.5 -19.5t-23.5 -30.5q-75 159 -199 284t-296 215z" />
    <glyph glyph-name="bn_rupeesign" unicode="&#x9f3;" horiz-adv-x="476" 
d="M327 375q51 0 82 -34t31 -91q0 -43 -18.5 -89t-51.5 -86q-36 -44 -79 -69.5t-82 -25.5q-55 0 -92.5 42.5t-37.5 107.5q0 82 3.5 164t9.5 162q-25 -3 -48.5 -8t-43.5 -10q-2 8 -3 15t-1 15q0 9 1 16.5t3 13.5q17 7 42.5 12.5t55.5 9.5q5 49 10.5 101t12.5 112l76 14
q-9 -53 -17 -108.5t-14 -111.5q25 1 39 1.5t26 0.5q66 0 129.5 -8t115.5 -23q2 -6 3 -12.5t1 -16.5q0 -7 -1 -14.5t-3 -16.5q-62 14 -122.5 20.5t-120.5 6.5q-14 0 -30 -0.5t-43 -1.5q-9 -90 -14 -180t-5 -174q0 -36 16 -57t43 -22q26 0 57.5 21.5t58.5 57.5
q25 33 38.5 67.5t13.5 65.5q0 32 -14.5 50.5t-39.5 18.5q-21 0 -41 -12t-33 -32q-5 6 -7.5 14.5t-2.5 18.5q0 11 2.5 22t7.5 20q17 16 39.5 24.5t47.5 8.5z" />
    <glyph glyph-name="bn_currency1" unicode="&#x9f4;" horiz-adv-x="524" 
d="M507 553q-52 -170 -151.5 -313.5t-245.5 -259.5l-49 71q140 90 239.5 221t154.5 299q12 -2 25 -6.5t27 -11.5z" />
    <glyph glyph-name="bn_currency2" unicode="&#x9f5;" horiz-adv-x="524" 
d="M507 553q-52 -170 -151.5 -313.5t-245.5 -259.5l-49 71q16 10 31 20.5t29 21.5q56 45 85.5 91t29.5 91q0 46 -30.5 76t-71.5 30q-34 0 -53.5 -15.5t-19.5 -42.5q0 -26 18.5 -40.5t51.5 -14.5q18 0 34 3.5t25 9.5q1 -16 -0.5 -35.5t-4.5 -31.5q-4 -4 -17 -7t-28 -3
q-56 0 -92 35t-36 90q0 51 34 83t89 32q64 0 106 -44.5t42 -116.5q0 -10 -1 -19.5t-3 -18.5q58 70 102 151.5t74 174.5q12 -2 25 -6.5t27 -11.5z" />
    <glyph glyph-name="bn_currency3" unicode="&#x9f6;" horiz-adv-x="524" 
d="M283 371q0 31 -21 51t-54 20q-34 0 -51 -17.5t-17 -51.5q0 -17 3.5 -32.5t9.5 -23.5q-14 -1 -33 0.5t-35 4.5q-4 4 -6.5 16t-2.5 28q0 55 34.5 89.5t90.5 34.5q62 0 104.5 -35.5t42.5 -87.5q0 -34 -12 -62.5t-36 -52.5q-16 -15 -38.5 -29.5t-69.5 -36.5
q-60 -29 -77.5 -46.5t-17.5 -38.5q0 -30 25.5 -47t66.5 -17q101 0 181.5 136.5t135.5 397.5q11 -2 24 -6.5t28 -11.5q-60 -298 -147 -433t-215 -135q-78 0 -122.5 33t-44.5 88q0 38 24 66.5t102 64.5q79 37 103.5 66t24.5 68z" />
    <glyph glyph-name="bn_currency4" unicode="&#x9f7;" horiz-adv-x="265" 
d="M119 262q0 -104 7.5 -193t21.5 -150l-83 29q0 7 -0.5 15t-1.5 25q-1 29 -1.5 44t-0.5 29q0 205 5 308.5t17 215.5l51 10q-11 -163 -13 -220.5t-2 -112.5z" />
    <glyph glyph-name="bn_currencyless" unicode="&#x9f8;" horiz-adv-x="479" 
d="M418 0q-13 -6 -29.5 -11t-32.5 -8q-10 42 -15.5 89.5t-5.5 99.5q0 57 6.5 112t18.5 101q-72 -51 -139.5 -123.5t-107.5 -142.5q-20 4 -39.5 12t-28.5 17q31 105 48.5 229t18.5 240l46 7q1 -22 2 -46.5t1 -49.5q0 -64 -7 -134t-19 -132q53 66 111.5 118.5t120.5 90.5
q19 -9 33.5 -21.5t26.5 -32.5q-16 -51 -24.5 -105.5t-8.5 -110.5q0 -47 6 -97t18 -102z" />
    <glyph glyph-name="bn_currency16" unicode="&#x9f9;" horiz-adv-x="542" 
d="M271 585q80 0 123.5 -46.5t43.5 -130.5q0 -98 -56.5 -168t-145.5 -70q-80 0 -124 47t-44 131q0 97 57 167t146 70zM269 527q-68 0 -111 -49.5t-43 -125.5q0 -59 32 -91.5t89 -32.5q69 0 111.5 49t42.5 126q0 59 -32 91.5t-89 32.5z" />
    <glyph glyph-name="bn_isshar" unicode="&#x9fa;" horiz-adv-x="500" 
d="M310 239q62 0 93 53t31 159l56 -13q0 -131 -47 -203.5t-134 -72.5q-101 0 -175.5 100t-104.5 262q10 8 22.5 12t28.5 6q26 -139 88.5 -221t141.5 -82zM222 436q0 20 14.5 34t34.5 14q24 0 40 -17t16 -42q0 -20 -14 -33.5t-35 -13.5q-24 0 -40 17t-16 41z" />
    <glyph glyph-name="uni200C" unicode="&#x200c;" horiz-adv-x="0" 
 />
    <glyph glyph-name="uni200D" unicode="&#x200d;" horiz-adv-x="0" 
 />
    <glyph glyph-name="endash" unicode="&#x2013;" horiz-adv-x="419" 
d="M383 249q-90 -10 -180.5 -7.5t-173.5 16.5q1 16 2.5 29.5t3.5 27.5q47 -8 102 -12t111 -4q34 0 69.5 1.5t72.5 4.5q0 -11 -2 -25.5t-5 -30.5z" />
    <glyph glyph-name="emdash" unicode="&#x2014;" horiz-adv-x="630" 
d="M594 241q-145 -17 -293 -15t-272 24q1 16 2.5 29.5t3.5 27.5q88 -13 158.5 -17.5t165.5 -4.5q61 0 122 3t120 9q0 -11 -1.5 -24.5t-5.5 -31.5z" />
    <glyph glyph-name="quoteleft" unicode="&#x2018;" horiz-adv-x="147" 
d="M60 486q-26 71 -37.5 129t-11.5 117q18 5 36.5 7t37.5 1q-3 -65 3.5 -124t23.5 -126q-12 -2 -24.5 -3t-27.5 -1z" />
    <glyph glyph-name="quoteright" unicode="&#x2019;" horiz-adv-x="147" 
d="M56 736q20 2 38.5 1.5t34.5 -3.5q0 -61 -9.5 -114.5t-34.5 -132.5q-12 1 -25.5 3.5t-24.5 5.5q14 79 19 138.5t2 101.5z" />
    <glyph glyph-name="quotesinglbase" unicode="&#x201a;" horiz-adv-x="141" 
d="M34 79q20 2 39 1.5t35 -3.5q0 -59 -9.5 -111.5t-35.5 -134.5q-11 1 -24.5 3t-25.5 6q14 75 19 135t2 104z" />
    <glyph glyph-name="quotedblleft" unicode="&#x201c;" horiz-adv-x="275" 
d="M60 486q-26 71 -37.5 129t-11.5 117q18 5 36.5 7t37.5 1q-3 -65 3.5 -124t23.5 -126q-12 -2 -24.5 -3t-27.5 -1zM188 486q-26 71 -37.5 129t-11.5 117q18 5 36.5 7t37.5 1q-3 -65 3.5 -124t23.5 -126q-12 -2 -24.5 -3t-27.5 -1z" />
    <glyph glyph-name="quotedblright" unicode="&#x201d;" horiz-adv-x="278" 
d="M56 736q20 2 38.5 1.5t34.5 -3.5q0 -61 -9.5 -114.5t-34.5 -132.5q-12 1 -25.5 3.5t-24.5 5.5q14 79 19 138.5t2 101.5zM187 736q20 2 38.5 1.5t34.5 -3.5q0 -61 -9.5 -114.5t-34.5 -132.5q-12 1 -25.5 3.5t-24.5 5.5q14 79 19 138.5t2 101.5z" />
    <glyph glyph-name="quotedblbase" unicode="&#x201e;" horiz-adv-x="269" 
d="M34 79q20 2 39 1.5t35 -3.5q0 -59 -9.5 -111.5t-35.5 -134.5q-11 1 -24.5 3t-25.5 6q14 75 19 135t2 104zM162 79q20 2 39 1.5t35 -3.5q0 -59 -9.5 -111.5t-35.5 -134.5q-11 1 -24.5 3t-25.5 6q14 75 19 135t2 104z" />
    <glyph glyph-name="dagger" unicode="&#x2020;" horiz-adv-x="464" 
d="M254 485q9 -156 7.5 -401t-1.5 -293q-13 -2 -29 -2.5t-31 1.5q0 49 -1 166t0 182q0 107 1.5 191.5t5.5 156.5q-44 0 -83.5 -2t-87.5 -7q-3 14 -4 25t0 19q0 5 0.5 9t2.5 14q28 1 60.5 -0.5t112.5 -8.5q-4 73 -5.5 107.5t-2.5 67.5q7 2 17.5 3.5t21.5 1.5q7 0 13.5 -0.5
t13.5 -2.5q-1 -40 -2.5 -81t-5.5 -98q52 1 91.5 3t80.5 5q3 -15 4 -25t0 -18q0 -6 -0.5 -11t-2.5 -12q-29 -1 -64 0.5t-112 9.5z" />
    <glyph glyph-name="daggerdbl" unicode="&#x2021;" horiz-adv-x="464" 
d="M259 -31q4 -68 5.5 -104.5t1.5 -69.5q-12 -2 -21 -3t-17 -1q-5 0 -10.5 1t-18.5 4q4 67 6.5 110.5t4.5 64.5q-62 -2 -100 -4t-74 -5q0 2 -0.5 5.5t-1.5 9.5q-1 11 -1.5 16t-0.5 9q0 5 0.5 10t3.5 16q35 0 72.5 -2t101.5 -8q-9 135 -10 245.5t5 222.5q-44 0 -83 -2t-87 -7
q-3 14 -4 25t0 19q0 5 0.5 9t2.5 14q28 1 60.5 -0.5t112.5 -8.5q-4 73 -5.5 107.5t-2.5 67.5q7 2 17.5 3.5t21.5 1.5q7 0 13.5 -0.5t13.5 -2.5q-1 -40 -2.5 -81t-5.5 -98q52 1 91.5 3t80.5 5q3 -15 4 -25t0 -18q0 -6 -0.5 -11t-2.5 -13q-30 -1 -65.5 1.5t-110.5 9.5
q10 -127 11 -219.5t-7 -247.5q42 1 101 4.5t73 4.5q0 -2 2 -17t1 -23q0 -5 -0.5 -10t-3.5 -16q-26 0 -55 1t-117 7z" />
    <glyph glyph-name="bullet" unicode="&#x2022;" horiz-adv-x="224" 
d="M35 336q34 9 73 10.5t83 -4.5q-2 -53 -5 -81.5t-7 -54.5q-41 -4 -73.5 -4t-64.5 4q-4 52 -5 76.5t-1 53.5z" />
    <glyph glyph-name="ellipsis" unicode="&#x2026;" horiz-adv-x="488" 
d="M38 76q26 6 49 6.5t46 -3.5q-1 -32 -2.5 -48.5t-4.5 -32.5q-25 -3 -44.5 -3t-40.5 3q0 6 -0.5 12.5t-0.5 18.5q-1 18 -1.5 28t-0.5 19zM198 76q26 6 49 6.5t46 -3.5q-1 -32 -2.5 -48.5t-4.5 -32.5q-25 -3 -44.5 -3t-40.5 3q0 6 -0.5 12.5t-0.5 18.5q-1 18 -1.5 28
t-0.5 19zM358 76q26 6 49 6.5t46 -3.5q-1 -32 -2.5 -48.5t-4.5 -32.5q-25 -3 -44.5 -3t-40.5 3q0 6 -0.5 12.5t-0.5 18.5q-1 18 -1.5 28t-0.5 19z" />
    </font>
</defs>
</svg>
